<svg width="123" height="89" viewBox="0 0 123 89" fill="none" xmlns="http://www.w3.org/2000/svg">
<g clip-path="url(#clip0_4726_166)">
<path d="M29.2705 23.3347C28.2949 23.1993 27.3012 23.2949 26.3694 23.6138C25.4375 23.9327 24.5936 24.4659 23.9055 25.1706L6.63886 42.89C6.00101 43.5368 5.1491 43.9287 4.24291 43.9921C3.33673 44.0555 2.43853 43.7862 1.7168 43.2345L56.8439 85.7956C58.1616 86.8135 59.667 87.5618 61.2741 87.9977C62.8811 88.4336 64.5583 88.5486 66.2098 88.336C67.8613 88.1235 69.4547 87.5876 70.899 86.759C72.3434 85.9304 73.6102 84.8253 74.6273 83.5069C74.7651 83.3297 74.898 83.1525 75.021 82.9704L107.344 36.2108C107.737 35.6433 108.279 35.1958 108.911 34.9178C109.543 34.6398 110.239 34.5421 110.923 34.6357L29.2705 23.3347Z" fill="url(#paint0_linear_4726_166)"/>
<path d="M114.033 56.7161L88.3154 63.6955L107.31 36.2107C107.688 35.6634 108.206 35.2273 108.81 34.9476C109.414 34.6679 110.082 34.5549 110.744 34.6202C111.406 34.6854 112.039 34.9267 112.577 35.3189C113.114 35.711 113.537 36.2399 113.802 36.8506L120.294 51.8826C120.773 52.9923 121.651 53.8813 122.755 54.3731L114.033 56.7161Z" fill="url(#paint1_linear_4726_166)"/>
<path d="M5.77741 4.13858C5.97442 2.88097 5.67047 1.59625 4.93081 0.560242L48.9242 26.0664L29.2704 23.3346C28.2948 23.1993 27.3011 23.2949 26.3693 23.6138C25.4374 23.9326 24.5935 24.4659 23.9054 25.1706L6.63877 42.89C6.08721 43.4557 5.37011 43.8315 4.59103 43.963C3.81196 44.0945 3.01124 43.9749 2.30456 43.6216C1.59788 43.2682 1.02181 42.6994 0.659562 41.9972C0.297319 41.2951 0.167657 40.4959 0.289306 39.7152L5.77741 4.13858Z" fill="url(#paint2_linear_4726_166)"/>
<path d="M42.4911 44.5634V50.711H40.1088V45.095C40.1323 44.9051 40.1125 44.7124 40.0508 44.5313C39.9891 44.3502 39.8872 44.1855 39.7526 44.0495C39.618 43.9135 39.4544 43.8098 39.274 43.7462C39.0935 43.6826 38.901 43.6608 38.7109 43.6823C38.3458 43.6862 37.9842 43.7545 37.6428 43.8841V50.711H35.2556V42.3435C36.4203 41.8493 37.6676 41.5787 38.9324 41.5462C41.3836 41.5462 42.4911 42.7767 42.4911 44.5634ZM78.1514 45.3115L76.8569 44.8735C76.3303 44.6864 76.1432 44.465 76.1432 44.209C76.1432 43.8497 76.5025 43.5937 77.1621 43.5937C77.9214 43.6219 78.6626 43.833 79.3229 44.209L80.3663 42.3534C79.3687 41.8289 78.2596 41.5521 77.1325 41.5462C75.1637 41.5462 73.6576 42.7029 73.6576 44.3714C73.6576 46.04 74.829 46.7242 75.907 47.0786L77.0439 47.4526C77.6395 47.6594 77.9299 47.8267 77.9299 48.2008C77.9299 48.5749 77.6248 48.8308 76.8225 48.8308C75.9992 48.8066 75.1965 48.5673 74.4943 48.1368L73.4705 50.0269C74.5065 50.5988 75.6737 50.8906 76.8569 50.8735C78.8257 50.8735 80.4303 49.7512 80.4303 47.9645C80.4303 46.4682 79.4951 45.7742 78.1514 45.3115ZM25.3328 48.821C24.8406 48.821 24.6535 48.5798 24.6535 48.0187V38.4354H22.2712V48.7028C22.2712 50.1795 23.1867 50.8784 24.5846 50.8784C25.2047 50.8828 25.8209 50.7795 26.4058 50.5732L26.1498 48.6832C25.8845 48.7639 25.6099 48.8102 25.3328 48.821ZM48.7913 38.4354H51.1588V50.0958C50.0112 50.6035 48.7714 50.8699 47.5165 50.8784C45.0555 50.8784 43.8545 49.4018 43.8545 47.6101V44.6569C43.8545 42.8702 45.0456 41.5757 47.108 41.5757C47.6742 41.5767 48.237 41.6647 48.7765 41.8366L48.7913 38.4354ZM48.7913 43.8005C48.424 43.6718 48.0386 43.602 47.6494 43.5937C47.452 43.5828 47.2546 43.6154 47.0712 43.6892C46.8878 43.763 46.7228 43.8763 46.588 44.0209C46.4533 44.1656 46.3519 44.3381 46.2912 44.5262C46.2305 44.7144 46.2119 44.9136 46.2368 45.1097V47.2705C46.2148 47.4808 46.2403 47.6934 46.3114 47.8925C46.3825 48.0916 46.4974 48.2723 46.6476 48.4211C46.7978 48.5699 46.9795 48.6831 47.1793 48.7523C47.3791 48.8215 47.5919 48.845 47.802 48.821C48.1378 48.823 48.4712 48.7647 48.7864 48.6487L48.7913 43.8005ZM33.9661 45.159V46.9998H29.231V47.1524C29.2109 47.3753 29.2398 47.5999 29.3156 47.8104C29.3914 48.021 29.5123 48.2124 29.6698 48.3714C29.8273 48.5303 30.0177 48.6529 30.2276 48.7306C30.4375 48.8082 30.6618 48.8391 30.8848 48.821C31.6708 48.8125 32.4404 48.5951 33.1145 48.191L33.779 50.081C32.8157 50.6348 31.7202 50.9172 30.6092 50.8981C28.6847 50.8981 26.8488 49.8595 26.8488 47.2213V45.3509C26.8488 43.0376 28.2466 41.5708 30.4566 41.5708C32.77 41.5462 33.9661 43.1015 33.9661 45.159ZM31.6625 45.0605C31.6625 44.209 31.2737 43.6134 30.4763 43.6134C29.6789 43.6134 29.2507 44.209 29.2507 45.0605V45.2131H31.6625V45.0605ZM55.7806 48.821C55.2884 48.821 55.1014 48.5798 55.1014 48.0187V38.4354H52.7191V48.7028C52.7191 50.1795 53.6346 50.8784 55.0325 50.8784C55.6526 50.8828 56.2688 50.7795 56.8536 50.5732L56.5977 48.6832C56.334 48.7635 56.061 48.8098 55.7856 48.821H55.7806ZM72.5157 44.3911V50.0909C71.3828 50.5886 70.1644 50.8627 68.9275 50.8981C66.5944 50.8981 65.3147 49.7759 65.3147 47.9448C65.3147 46.3944 66.4566 45.2377 68.4845 45.2377H70.1334V44.8636C70.1334 44.0466 69.523 43.7217 68.6568 43.7217C67.7383 43.7661 66.8416 44.0168 66.0333 44.4551L65.797 42.3091C66.86 41.8054 68.0219 41.5447 69.1982 41.5462C70.596 41.5462 72.5157 42.1663 72.5157 44.396V44.3911ZM70.1334 46.9949H68.8782C68.1498 46.9949 67.7216 47.3837 67.7216 47.9153C67.7216 48.5453 68.2827 48.8997 69.0653 48.8997C69.4293 48.8977 69.7909 48.8413 70.1383 48.7324L70.1334 46.9949ZM64.4139 45.154V46.9949H59.6838V47.1475C59.663 47.3701 59.6911 47.5946 59.7663 47.8052C59.8415 48.0158 59.9619 48.2073 60.1191 48.3664C60.2763 48.5254 60.4664 48.6481 60.676 48.7258C60.8857 48.8035 61.1099 48.8343 61.3327 48.8161C62.1187 48.8076 62.8882 48.5901 63.5624 48.186L64.2269 50.0761C63.2637 50.6238 62.1697 50.8994 61.062 50.8735C59.1375 50.8735 57.3016 49.8349 57.3016 47.1967V45.3263C57.3016 43.0129 58.6945 41.5462 60.9094 41.5462C63.2228 41.5462 64.4139 43.1015 64.4139 45.159V45.154ZM62.1153 45.0556C62.1153 44.2041 61.7265 43.6085 60.9242 43.6085C60.1219 43.6085 59.6986 44.2041 59.6986 45.0556V45.2082H62.1153V45.0556ZM88.4681 45.154V46.9949H83.733V47.1475C83.7129 47.3704 83.7418 47.5949 83.8176 47.8055C83.8934 48.0161 84.0143 48.2075 84.1718 48.3665C84.3293 48.5254 84.5197 48.648 84.7296 48.7257C84.9395 48.8033 85.1638 48.8342 85.3868 48.8161C86.1728 48.8076 86.9424 48.5901 87.6165 48.186L88.281 50.0761C87.3212 50.6304 86.2293 50.9144 85.1211 50.8981C83.1965 50.8981 81.3606 49.8595 81.3606 47.2213V45.3509C81.3606 43.0376 82.7585 41.5708 84.9685 41.5708C87.2769 41.5462 88.4681 43.1015 88.4681 45.159V45.154ZM86.1695 45.0556C86.1695 44.2041 85.7757 43.6085 84.9783 43.6085C84.1809 43.6085 83.7527 44.2041 83.7527 45.0556V45.2082H86.1695V45.0556Z" fill="white"/>
</g>
<defs>
<linearGradient id="paint0_linear_4726_166" x1="107.024" y1="26.7013" x2="15.4198" y2="71.3789" gradientUnits="userSpaceOnUse">
<stop stop-color="#00AACD"/>
<stop offset="0.13" stop-color="#0EB1BB"/>
<stop offset="0.4" stop-color="#31C28A"/>
<stop offset="0.77" stop-color="#6ADD3E"/>
<stop offset="1" stop-color="#91F00A"/>
</linearGradient>
<linearGradient id="paint1_linear_4726_166" x1="88.3154" y1="49.1361" x2="122.75" y2="49.1361" gradientUnits="userSpaceOnUse">
<stop stop-color="#4BA0A5"/>
<stop offset="1" stop-color="#9D9D9D"/>
</linearGradient>
<linearGradient id="paint2_linear_4726_166" x1="0.240085" y1="22.2862" x2="48.9242" y2="22.2862" gradientUnits="userSpaceOnUse">
<stop stop-color="#C3FF00"/>
<stop offset="1" stop-color="#FFFF00"/>
</linearGradient>
<clipPath id="clip0_4726_166">
<rect width="122.51" height="87.8795" fill="white" transform="translate(0.244873 0.560242)"/>
</clipPath>
</defs>
</svg>
