<?xml version="1.0" encoding="UTF-8" standalone="no"?>
<!-- Created with Inkscape (http://www.inkscape.org/) -->

<svg
   xmlns:svg="http://www.w3.org/2000/svg"
   xmlns="http://www.w3.org/2000/svg"
   version="1.1"
   width="245.33"
   height="45.155109"
   id="svg3352">
  <defs
     id="defs3354" />
  <g
     transform="translate(-404.38111,-469.64497)"
     id="layer1">
    <path
       d="m 428.40121,489.88758 c -0.4525,0.01 -0.57,0.38 -0.725,1.165 -0.255,1.5325 -0.895,3.415 -1.575,4.73 -1.2575,2.4725 -3.86,3.985 -6.7675,3.9875 -2.6075,0 -5.23,-1.3075 -6.825,-3.3725 -1.9925,-2.6675 -2.975,-6.1925 -2.975,-11.0225 0,-5.395 1.1975,-9.3 3.6125,-12.0975 1.3875,-1.55 3.04,-2.2575 5.37,-2.26 2.92,0.002 5.1275,1.175 6.4725,3.355 0.6275,1.0375 1.185,2.8325 1.57,5.055 0.06,0.5875 0.2675,0.97 0.7275,0.96 0.205,0.01 0.445,-0.075 0.535,-0.2975 0.09,-0.2125 0.1074,-0.49 0.1074,-0.9475 0,-3.6475 0.1726,-6.44 0.4675,-7.7 0.0426,-0.22 0.0874,-0.4325 0.09,-0.595 0,-0.29 -0.2275,-0.515 -0.515,-0.515 -0.4125,0.002 -0.525,0.215 -1.055,1.2975 -0.2225,0.51 -0.36,0.5875 -0.5775,0.595 -0.235,0.002 -0.655,-0.1524 -1.335,-0.5375 -2.5825,-1.5125 -3.9,-1.875 -6.83,-1.87 -8.0925,0.014 -13.78,6.4175 -13.7925,15.4725 0.014,9.015 6.26,15.665 14.7825,15.68 l 0.012,0 c 2.945,0 5.325,-0.85 7.4325,-2.66 0.435,0.315 0.5025,0.4475 1.0325,1.695 0.1826,0.445 0.4175,0.7375 0.76,0.75 0.3575,-0.008 0.515,-0.3625 0.515,-0.7275 l 0,-0.3875 c -0.1726,-1.995 -0.1726,-2.15 -0.1726,-2.9675 0,-0.89 0.1276,-4.0775 0.1726,-4.8 0.04,-0.5125 0.085,-0.9375 0.085,-1.17 0,-0.445 -0.185,-0.815 -0.6,-0.815 z m 31.375,9.4875 c -0.0526,0 -0.1026,0.006 -0.1526,0.01 -1.3875,0.008 -2.14,-0.1526 -2.345,-0.415 -0.1174,-0.1726 -0.175,-0.4425 -0.1726,-2.2975 l 0,-22.86 c 0.04,-1.6275 0.045,-1.8075 0.0826,-1.9375 0.105,-0.325 0.2575,-0.415 1.2175,-0.47 0.8575,-0.025 1.3275,-0.0426 1.62,-0.1076 0.2925,-0.035 0.4625,-0.2925 0.4325,-0.4925 -0.0276,-0.445 -0.4775,-0.56 -1.07,-0.56 -0.26,0 -0.7375,0 -1.22,0.0476 -1.365,0.04 -2.05,0.04 -3.51,0.04 -1.505,0 -3.18,0 -4.42,-0.0426 l -0.22,0 c -0.52,0 -0.9025,0.1576 -0.9025,0.5575 0,0.3875 0.3725,0.5575 0.815,0.5575 0.2675,-0.01 0.5075,-0.014 0.7225,-0.014 1.8,0.0674 1.795,0.065 1.865,2.0725 0,0.245 -0.002,0.5175 -0.008,0.8225 l 0,9.0675 -12.5925,0 0,-9.71 c 0.08,-2.3125 -0.0874,-2.12 1.7625,-2.195 1.12,0 1.5525,-0.065 1.5875,-0.5575 0,-0.4425 -0.425,-0.6 -0.94,-0.6 -0.1776,0 -0.485,0 -0.8025,0.045 -0.8375,0.04 -1.825,0.04 -3.025,0.04 -2.06,0 -4.2975,-0.0424 -5.0625,-0.085 -0.3,-0.045 -0.5675,-0.045 -0.74,-0.045 -0.3675,0 -0.7225,0.155 -0.73,0.515 -0.035,0.18 0.0774,0.475 0.37,0.515 0.27,0.0674 0.715,0.085 1.6,0.13 1.525,0.1524 1.305,-0.145 1.3825,2.495 l 0,22.69 c 0.004,2.0275 -0.012,2.1825 -0.105,2.3175 -0.1574,0.235 -0.81,0.4425 -2.2575,0.435 -0.5525,0.0274 -0.98,0.14 -0.99,0.6 0.012,0.4225 0.4125,0.5125 1.03,0.5125 0.69,0 1.98,0 3.6125,-0.0426 0.7325,-0.0426 1.33,-0.0426 1.805,-0.0426 0.7225,0 1.755,0.0426 3.5175,0.085 l 0.395,0 c 0.59,0 1.01,-0.1324 1.0275,-0.5575 -0.012,-0.4625 -0.3875,-0.535 -1.2825,-0.555 -2.1025,-0.2275 -2.1025,-0.0276 -2.165,-1.8325 0,-0.22 0.004,-0.4675 0.01,-0.7475 l 0,-11.9925 12.5925,0 0,12.3775 c -0.08,2.335 0.145,2.04 -1.2575,2.195 -1.6425,0.145 -2.095,0.1 -2.18,0.6425 0.0224,0.4375 0.4475,0.515 1.0275,0.515 0.2625,0 0.695,0 1.2625,-0.045 0.635,-0.0426 1.4475,-0.0426 2.22,-0.0426 l 5.93,0.0426 c 0.5575,0 0.975,-0.1374 0.99,-0.5575 -0.01,-0.335 -0.34,-0.5225 -0.7275,-0.5225 z m 29.39,0.01 c -2.2975,-0.12 -2.4925,-0.2 -2.9325,-1.39 -4.6,-12.595 -4.8575,-13.325 -7.6925,-20.93 -1.2475,-3.36 -1.6325,-4.2975 -2.5375,-7 -0.045,-0.19 -0.1576,-0.3675 -0.3725,-0.3775 -0.2925,0.0276 -0.41,0.28 -0.51,0.5975 l -0.215,0.775 c -0.1276,0.3325 -0.2575,0.73 -0.3475,1.1725 -3.2575,9 -7.8575,21.9775 -9.02,25.375 -0.52,1.32 -0.965,1.58 -2.8075,1.69 -0.995,0.035 -1.425,0.115 -1.455,0.6 0.02,0.3675 0.385,0.5575 0.775,0.5575 0.17,0 0.3575,0 0.5925,-0.0476 0.7575,-0.0824 0.8225,-0.08 1.2975,-0.08 0.4275,0 0.9875,0 1.31,0.0424 1.6475,0.085 3.795,0.1676 4.62,0.1676 0.7175,-0.002 1.245,-0.095 1.2875,-0.6 -0.02,-0.4675 -0.4175,-0.5675 -1.4125,-0.5975 -1.8525,-0.085 -1.825,-0.085 -2.1025,-0.165 -0.235,-0.0724 -0.39,-0.2425 -0.3975,-0.565 -0.008,-0.6525 0.6275,-2.6725 2.53,-7.74 l 8.955,0 c 1.0475,3.145 1.55,4.75 1.8475,5.7675 l 0.2175,0.61 0.3425,1.15 c 0.045,0.1326 0.08,0.2625 0.08,0.2975 0.014,0.0924 -0.17,0.2875 -0.79,0.4125 -0.6,0.125 -1.5375,0.19 -2.8225,0.19 -0.7675,0.05 -1.285,0.14 -1.33,0.64 0.0326,0.4425 0.5,0.5975 1.03,0.6 0.1276,0 0.3575,0 0.6675,-0.04 l 5.435,-0.085 5.4525,0.085 c 0.3375,0.04 0.6475,0.04 0.7775,0.04 0.44,0 0.8125,-0.165 0.815,-0.5525 -0.014,-0.47 -0.45,-0.6 -1.2875,-0.6 z m -19.0175,-9.8425 c 0.9725,-2.895 3.15,-9.0925 4.1025,-11.6275 0.3,0.8375 0.9325,2.6375 1.905,5.4475 0.7475,2.035 1.4525,4.105 2.195,6.18 l -8.2025,0 z m 40.4725,-18.1275 c -2.6025,-0.87 -4.825,-1.08 -11.01,-1.08 l -4.6,0 c -1.545,-0.045 -2.655,-0.09 -2.8825,-0.09 -0.4775,0 -0.8725,0.1226 -0.8975,0.5175 0.02,0.47 0.5075,0.6425 1.1575,0.6425 2.5525,0.085 2.2775,-0.205 2.3625,2.6225 l 0,23.1625 c -0.002,1.3125 0.002,1.28 -0.1476,1.55 -0.22,0.33 -0.8975,0.5625 -2.0425,0.5575 -0.605,0 -0.95,0.008 -1.185,0.0674 -0.25,0.0476 -0.385,0.2975 -0.3625,0.49 0.03,0.4375 0.4925,0.595 0.9875,0.6 0.1724,0 0.36,0 0.67,-0.045 l 3.3725,-0.04 2.145,0 c 4.3375,0.085 4.34,0.085 5.46,0.085 4.6575,0 7.6825,-0.9125 10.4625,-3.1325 3.48,-2.785 5.3525,-6.965 5.3525,-11.905 0,-6.635 -3.5575,-12.25 -8.8425,-14.0025 z m 0.72,24.5875 c -1.68,1.9375 -4.52,3.21 -7.35,3.2075 -1.8225,0.004 -3.735,-0.225 -4.265,-0.495 -0.35,-0.1874 -0.315,-0.1024 -0.3325,-1.7375 l 0,-22.865 c -0.002,-1.515 0.0526,-1.7675 0.2175,-1.955 0.3275,-0.3475 1.295,-0.545 3.35,-0.54 7.8275,0.025 11.315,4.165 11.3475,13.625 0,4.9225 -0.9875,8.4875 -2.9675,10.76 z m 21.7775,-13.1025 c -2.355,-1.16 -3.725,-2.015 -4.4325,-2.6425 -1.21,-1.13 -1.79,-2.485 -1.7925,-4.2975 0.014,-3.07 1.725,-4.9325 4.5175,-4.945 2.8175,-0.004 5.3875,2.46 6.02,5.7925 0.1074,0.7625 0.355,1.1375 0.81,1.13 0.3175,0 0.5575,-0.28 0.5575,-0.6425 l -0.17,0 0.17,-0.012 -0.045,-0.6875 c -0.17,-0.95 -0.21,-1.925 -0.21,-3.255 0,-0.9 0.04,-1.7975 0.125,-2.4725 0.0476,-0.18 0.045,-0.405 0.045,-0.535 0,-0.3625 -0.235,-0.6875 -0.6025,-0.6875 -0.315,-0.014 -0.605,0.215 -0.64,0.575 -0.2675,1 -0.165,0.885 -0.735,0.9275 -0.26,0 -0.5425,-0.0724 -1.2725,-0.3325 -1.8475,-0.7325 -2.91,-0.9975 -4.095,-0.9975 -4.7725,0.008 -8.2875,3.5225 -8.295,8.38 -0.01,3.8075 1.8925,6.0475 7.3575,8.7475 4.495,2.2375 6.0875,4.1725 6.095,7.325 -0.02,3.5425 -1.9225,5.4825 -5.3325,5.5 -3.91,-0.012 -6.3525,-2.52 -7.0925,-7.5025 -0.1124,-0.755 -0.285,-1.175 -0.7725,-1.18 -0.43,0.002 -0.685,0.35 -0.685,0.8175 0,0.175 0,0.44 0.0476,0.7175 0.0376,0.9675 0.08,1.74 0.08,2.375 0.002,1.1075 -0.1276,3.21 -0.34,4.835 -0.0476,0.1826 -0.045,0.405 -0.045,0.535 0.002,0.38 0.27,0.6825 0.6,0.69 0.415,0 0.685,-0.365 0.7275,-0.8 0.13,-1.12 0.1024,-1.0675 0.475,-1.09 0.205,-0.004 0.5875,0.115 1.2275,0.3725 2.5725,1.16 3.695,1.4325 5.6075,1.4275 5.37,-0.004 9.75,-4.06 9.7525,-9.0625 0.002,-3.655 -2.2725,-6.2975 -7.6575,-9.005 z m 32.75,-12.54 -0.012,-0.1624 -0.1624,0.008 c -1.2,0.04 -2.8725,0.085 -4.975,0.085 l -2.155,0.0426 c -0.855,0.0424 -3.52,0.0424 -4.81,0.0424 l -8.7625,-0.13 -2.0925,0 -0.014,0.155 c -0.13,1.29 -0.2575,2.7975 -0.39,5.21 l -0.085,0.98 c -0.0426,0.395 -0.0426,0.7475 -0.0426,0.96 0,0.6125 0.205,1.0725 0.69,1.0725 0.5225,-0.0276 0.6425,-0.515 0.7675,-1.4375 0.3075,-2.995 1.2125,-4.48 3.07,-5.1475 0.7175,-0.28 1.7575,-0.3725 5.0575,-0.4175 l 0,25.57 c -0.065,2.03 -0.1124,2.09 -1.7625,2.1525 -0.825,0.02 -1.285,0.0376 -1.575,0.105 -0.29,0.035 -0.4725,0.2775 -0.445,0.495 0.0426,0.46 0.4925,0.5125 1.16,0.5125 0.69,0 1.85,0 3.1825,-0.0426 1.1625,-0.0426 2.0175,-0.0426 2.6625,-0.0426 1.1125,0 2.3575,0.0426 3.645,0.085 0.25,0.045 0.4775,0.045 0.6075,0.045 0.48,0 0.8575,-0.165 0.86,-0.5575 0.01,-0.375 -0.325,-0.54 -0.6675,-0.5575 -2.88,-0.1076 -3.02,-0.18 -3.0725,-2.0225 l 0,-25.7675 c 0.215,-0.0224 0.53,-0.035 2.2875,-0.1074 0.3175,0 1.485,0.0874 2.105,0.2125 1.49,0.2625 2.185,0.6925 2.86,1.7325 0.665,1.0875 1.045,2.3425 1.1725,4.175 0.08,0.7 0.335,1.1825 0.86,1.1875 0.4075,0 0.685,-0.35 0.6875,-0.725 -0.002,-0.17 -0.05,-0.3375 -0.0924,-0.5925 -0.1676,-2.3025 -0.34,-4.5375 -0.5575,-7.1175 z m 16.895,-0.5425 c -8.1775,0.014 -13.995,6.415 -14.0075,15.4275 0.012,8.8425 6.1675,15.7075 14.18,15.7225 7.5875,0 13.435,-6.8 13.4475,-15.4225 -0.012,-8.885 -5.905,-15.725 -13.62,-15.7275 z m 6.2125,26.515 c -1.36,2.4075 -3.255,3.52 -5.9975,3.5225 -5.71,-0.012 -9.055,-5.225 -9.0675,-14.395 -0.004,-5.52 1.245,-10.04 3.4325,-12.48 1.1675,-1.29 3.0525,-2.0475 5.2075,-2.0475 2.635,0.008 4.0425,0.6925 5.4875,2.6775 2.165,2.9275 3.19,6.755 3.1925,12.15 0,4.495 -0.73,7.9425 -2.255,10.5725 z m 34.66,-26.0875 -1.3375,0 c -0.99,0.045 -1.76,0.045 -2.0625,0.045 -0.385,0 -1.0725,0 -2.0075,-0.045 l -1.515,0 c -0.64,0.004 -1.165,0.1026 -1.2025,0.6025 0.0576,0.52 0.5475,0.55 1.7175,0.5575 1.425,-0.004 1.75,0.01 1.98,0.145 0.3025,0.14 0.2825,0.0624 0.2975,1.8775 l 0,18.56 -14.565,-21.6575 -0.0924,0.004 c -2.3625,0.04 -3.655,0.0824 -3.95,0.0824 -0.385,0 -0.855,0 -1.405,-0.0426 -2.1175,-0.04 -2.115,-0.04 -2.205,-0.04 -0.4225,0 -0.795,0.1826 -0.815,0.555 0.0426,0.5025 0.5675,0.595 1.29,0.6 1.47,0.002 1.7375,0.0376 2.36,0.405 0.995,0.6375 1.375,1.705 1.38,4.325 l 0,21.1875 c 0,0.195 0.004,0.3725 0.004,0.535 -0.04,1.41 -0.0674,1.3025 -3.1925,1.4425 -0.5525,0 -1,0.115 -1.0275,0.555 0.0426,0.4625 0.5225,0.5525 1.1575,0.5575 l 0.435,0 c 2.7175,-0.17 2.71,-0.17 3.1775,-0.17 0.2975,0 0.7675,0 1.315,0.0424 2.1975,0.1276 2.2,0.1276 2.465,0.1276 0.7375,-0.01 1.2425,-0.135 1.29,-0.6 -0.008,-0.36 -0.36,-0.5125 -0.7275,-0.5125 -3.0575,-0.1 -3.315,-0.185 -3.3525,-0.7525 l -0.0474,-1.875 0,-21.51 c 3.4425,5.2775 7.205,10.9625 11.2925,17.01 2.065,2.9675 3.8675,5.63 5.5,8.0375 0.2575,0.345 0.4375,0.5425 0.745,0.545 l 0.0274,0 c 0.0676,0 0.1826,-0.004 0.275,-0.105 0.21,-0.305 0.15,-0.81 0.1676,-3.115 l 0,-24.755 c 0.075,-1.6425 -0.0826,-1.445 0.775,-1.505 l 0.775,0 0.9325,0.045 c 0.7725,0 1.22,-0.1076 1.2575,-0.5575 -0.018,-0.47 -0.48,-0.6025 -1.1125,-0.6025 z m 25.4775,22.005 c -0.5,0.012 -0.65,0.47 -0.7275,1.225 -0.27,3.4325 -1.1675,4.8975 -3.095,5.3575 -1.415,0.33 -2.775,0.3775 -10.8775,0.38 l 0,-14.0975 1.7625,0 c 5.02,0.0476 5.5575,0.34 5.98,3.245 0.1926,1.3775 0.2875,2.06 0.39,2.43 0.0624,0.3725 0.365,0.5075 0.5525,0.465 0.36,0 0.64,-0.3125 0.6425,-0.725 0,-0.1726 0,-0.44 -0.045,-0.755 -0.085,-0.965 -0.17,-3.8925 -0.17,-6.295 0,-1.155 0.045,-2.1825 0.085,-3.0425 0.0426,-0.64 0.0874,-1.1525 0.0874,-1.51 0,-0.4975 -0.1974,-0.935 -0.645,-0.9425 -0.45,0.004 -0.6125,0.4275 -0.64,1.055 -0.58,4.705 -0.7,4.7625 -7.135,4.83 l -0.865,0 0,-12.2525 3.3525,0 c 4.3825,-0.002 6.175,0.185 7.135,0.7525 1.1325,0.595 2.0775,2.3125 2.585,4.7875 0.185,0.8725 0.3575,1.2175 0.855,1.2075 0.3125,0 0.5575,-0.2625 0.5575,-0.5975 0,-0.1324 0,-0.36 -0.0474,-0.5975 l -0.17,-1.8275 c -0.215,-2.49 -0.3425,-4.165 -0.385,-5.1075 l -0.01,-0.19 -0.19,0.0326 c -0.8075,0.1274 -1.045,0.1274 -2.3425,0.1674 -0.7825,-0.012 -1.935,-0.018 -3.2025,-0.018 -3.085,0 -6.8375,0.03 -7.67,0.0624 l -3.13,0 -4.2075,-0.045 c -0.64,0 -1.0875,0.115 -1.12,0.56 0.0326,0.3925 0.4375,0.5475 0.86,0.555 2.48,0.0576 2.5025,-0.05 2.5425,1.125 0,0.125 -0.002,0.2675 -0.008,0.4225 l 0,24.155 c -0.065,2.1875 0.04,2.095 -1.4375,2.3225 -0.8925,0.0424 -1.36,0.0624 -1.64,0.12 -0.2875,0.0224 -0.44,0.3 -0.4025,0.48 0.014,0.4175 0.43,0.5525 0.99,0.5525 l 0.43,0 c 1.3325,-0.0376 2.23,-0.0376 4.9375,-0.0376 8.595,0 13.3225,0.0376 16.6675,0.2125 l 0.18,0.008 0,-1.595 c 0,-1.2425 0.0426,-2.7475 0.08,-3.6875 0.0474,-0.9925 0.09,-1.805 0.09,-2.115 0,-0.66 -0.125,-1.0725 -0.6,-1.0725"
       id="path328"
       style="fill:#000000;fill-opacity:1;fill-rule:nonzero;stroke:none" />
    <path
       d="m 450.77621,508.25258 -3.07,0 0,-0.8825 7.18,0 0,0.8825 -3.065,0 0,6.3575 -1.045,0 0,-6.3575"
       id="path332"
       style="fill:#000000;fill-opacity:1;fill-rule:nonzero;stroke:none" />
    <path
       d="m 463.27121,511.24258 -4.655,0 0,3.3675 -1.0425,0 0,-7.24 1.0425,0 0,3.05 4.655,0 0,-3.05 1.0425,0 0,7.24 -1.0425,0 0,-3.3675"
       id="path336"
       style="fill:#000000;fill-opacity:1;fill-rule:nonzero;stroke:none" />
    <path
       d="m 467.96371,507.37008 5.4125,0 0,0.8225 -4.3725,0 0,2.2875 4.0925,0 0,0.82 -4.0925,0 0,2.4875 4.495,0 0,0.8225 -5.535,0 0,-7.24"
       id="path340"
       style="fill:#000000;fill-opacity:1;fill-rule:nonzero;stroke:none" />
    <path
       d="m 482.31371,507.37008 5.1425,0 0,0.8225 -4.1025,0 0,2.3675 3.9025,0 0,0.8225 -3.9025,0 0,3.2275 -1.04,0 0,-7.24"
       id="path344"
       style="fill:#000000;fill-opacity:1;fill-rule:nonzero;stroke:none" />
    <path
       d="m 495.62871,512.72508 -4.4425,0 -0.935,1.885 -1.16,0 3.72,-7.24 1.2225,0 3.72,7.24 -1.195,0 -0.93,-1.885 z m -0.4025,-0.82 -1.805,-3.6525 -1.815,3.6525 3.62,0"
       id="path348"
       style="fill:#000000;fill-opacity:1;fill-rule:nonzero;stroke:none" />
    <path
       d="m 505.51621,509.29758 c -0.1026,-1.015 -1.135,-1.295 -2.3075,-1.295 -1.035,0 -1.9075,0.5125 -1.9075,1.3125 0,0.3925 0.2425,0.7925 1.135,0.9425 l 2.6975,0.4625 c 1.1725,0.2 1.715,0.87 1.715,1.7625 0,1.445 -1.295,2.3175 -3.44,2.3175 -2.055,0 -3.2475,-0.76 -3.38,-2.355 l 1.105,0 c 0.0276,0.9725 0.9625,1.5325 2.3375,1.5325 1.5025,0 2.335,-0.59 2.335,-1.3825 0,-2.005 -5.545,-0.1924 -5.545,-3.22 0,-1.3925 1.1825,-2.1925 3.1575,-2.1925 1.5025,0 3.1,0.45 3.2,2.115 l -1.1025,0"
       id="path352"
       style="fill:#000000;fill-opacity:1;fill-rule:nonzero;stroke:none" />
    <path
       d="m 515.78371,511.24258 -4.655,0 0,3.3675 -1.04,0 0,-7.24 1.04,0 0,3.05 4.655,0 0,-3.05 1.0425,0 0,7.24 -1.0425,0 0,-3.3675"
       id="path356"
       style="fill:#000000;fill-opacity:1;fill-rule:nonzero;stroke:none" />
    <path
       d="m 520.35371,514.61008 1.045,0 0,-7.24 -1.045,0 0,7.24 z"
       id="path358"
       style="fill:#000000;fill-opacity:1;fill-rule:nonzero;stroke:none" />
    <path
       d="m 528.66871,507.18258 c 3.0375,0 4.07,2.08 4.07,3.8075 0,1.7275 -1.0325,3.81 -4.07,3.81 -3.04,0 -4.0725,-2.0825 -4.0725,-3.81 0,-1.7275 1.0325,-3.8075 4.0725,-3.8075 z m 0,6.795 c 1.7525,0 2.9675,-1.2025 2.9675,-2.9875 0,-1.785 -1.215,-2.9875 -2.9675,-2.9875 -1.755,0 -2.97,1.2025 -2.97,2.9875 0,1.785 1.215,2.9875 2.97,2.9875"
       id="path362"
       style="fill:#000000;fill-opacity:1;fill-rule:nonzero;stroke:none" />
    <path
       d="m 541.84371,507.37008 1.0425,0 0,7.24 -1.425,0 -4.4325,-6.1775 -0.018,0 0,6.1775 -1.045,0 0,-7.24 1.425,0 4.4325,6.1775 0.02,0 0,-6.1775"
       id="path366"
       style="fill:#000000;fill-opacity:1;fill-rule:nonzero;stroke:none" />
    <path
       d="m 559.16121,512.59508 c -0.23,1.595 -1.735,2.205 -3.51,2.205 -2.5875,0 -3.78,-1.8125 -3.78,-3.81 0,-1.7275 1.0325,-3.8075 4.0725,-3.8075 1.7125,0 3.025,0.86 3.1175,2.0925 l -1.1625,0 c -0.1826,-0.9425 -1.0325,-1.2725 -2.035,-1.2725 -1.655,0 -2.89,0.9525 -2.89,2.9875 0,2.035 1.235,2.9875 2.89,2.9875 0.9925,0 1.955,-0.44 2.1325,-1.3825 l 1.165,0"
       id="path370"
       style="fill:#000000;fill-opacity:1;fill-rule:nonzero;stroke:none" />
    <path
       d="m 567.97371,512.72508 -4.4425,0 -0.9325,1.885 -1.1625,0 3.7175,-7.24 1.225,0 3.72,7.24 -1.195,0 -0.93,-1.885 z m -0.4,-0.82 -1.805,-3.6525 -1.8175,3.6525 3.6225,0"
       id="path374"
       style="fill:#000000;fill-opacity:1;fill-rule:nonzero;stroke:none" />
    <path
       d="m 572.91621,507.37008 3.33,0 c 2.175,0 2.9075,0.6525 2.9075,1.9525 0,1.2675 -0.83,2.1075 -2.5875,2.1075 l -2.6075,0 0,3.18 -1.0425,0 0,-7.24 z m 3.39,3.24 c 1.2025,0 1.745,-0.42 1.745,-1.2875 0,-0.7775 -0.4525,-1.13 -1.825,-1.13 l -2.2675,0 0,2.4175 2.3475,0"
       id="path378"
       style="fill:#000000;fill-opacity:1;fill-rule:nonzero;stroke:none" />
    <path
       d="m 582.31371,514.61008 1.04248,0 0,-7.24 -1.04248,0 0,7.24 z"
       id="path380"
       style="fill:#000000;fill-opacity:1;fill-rule:nonzero;stroke:none" />
    <path
       d="m 588.99121,508.25258 -3.0675,0 0,-0.8825 7.18,0 0,0.8825 -3.07,0 0,6.3575 -1.0425,0 0,-6.3575"
       id="path384"
       style="fill:#000000;fill-opacity:1;fill-rule:nonzero;stroke:none" />
    <path
       d="m 600.62371,512.72508 -4.445,0 -0.93,1.885 -1.165,0 3.72,-7.24 1.225,0 3.72,7.24 -1.1925,0 -0.9325,-1.885 z m -0.4025,-0.82 -1.8025,-3.6525 -1.8175,3.6525 3.62,0"
       id="path388"
       style="fill:#000000;fill-opacity:1;fill-rule:nonzero;stroke:none" />
    <path
       d="m 605.56621,507.37008 1.0425,0 0,6.4175 4.1725,0 0,0.8225 -5.215,0 0,-7.24"
       id="path392"
       style="fill:#000000;fill-opacity:1;fill-rule:nonzero;stroke:none" />
  </g>
</svg>
