<?xml version="1.0" encoding="UTF-8" standalone="no"?>
<!DOCTYPE svg PUBLIC "-//W3C//DTD SVG 1.1//EN" "http://www.w3.org/Graphics/SVG/1.1/DTD/svg11.dtd">
<svg xmlns="http://www.w3.org/2000/svg" version="1.1" viewBox="0.00 0.00 670.00 372.00">
<path fill="#f05b01" d="
  M 101.20 81.50
  C 101.17 78.77 101.06 75.98 101.61 73.19
  Q 102.34 69.54 102.86 65.63
  Q 103.29 62.37 104.33 59.48
  Q 105.44 56.42 106.53 53.64
  C 113.44 36.08 126.91 23.02 143.69 14.45
  Q 145.80 13.37 148.12 12.60
  C 150.80 11.71 153.44 10.17 156.34 9.97
  Q 158.11 9.84 159.86 9.38
  Q 165.11 8.01 171.73 7.42
  Q 174.68 7.16 176.93 7.41
  Q 178.43 7.57 179.89 7.63
  Q 186.08 7.87 191.75 9.66
  C 193.48 10.21 195.24 9.87 197.06 10.51
  Q 218.53 18.08 231.57 33.25
  Q 242.88 46.42 247.67 65.37
  Q 249.28 71.76 249.06 77.27
  Q 248.91 81.18 249.04 85.46
  Q 249.16 89.11 248.11 93.45
  Q 245.48 104.30 242.75 110.20
  Q 230.45 136.78 203.51 148.09
  Q 200.02 149.56 196.26 150.49
  C 193.09 151.27 190.34 152.78 187.01 152.95
  Q 176.28 153.51 165.18 153.07
  Q 162.03 152.95 158.89 151.93
  Q 155.76 150.92 152.25 149.86
  Q 141.87 146.74 132.45 140.12
  Q 114.80 127.69 106.40 107.54
  C 105.79 106.08 105.74 104.45 104.95 102.97
  Q 103.53 100.28 103.19 97.29
  Q 102.81 94.10 102.28 91.50
  Q 101.26 86.56 101.20 81.50
  Z"
/>
<path fill="#f05b01" d="
  M 311.65 9.63
  L 360.45 9.51
  A 46.84 46.84 0.0 0 1 407.41 56.57
  L 407.18 105.25
  A 46.84 46.84 0.0 0 1 360.22 151.87
  L 311.82 151.75
  A 46.84 46.84 0.0 0 1 265.10 105.07
  L 264.93 56.63
  A 46.84 46.84 0.0 0 1 311.65 9.63
  Z"
/>
<rect fill="#f05b01" x="427.00" y="12.24" width="137.04" height="136.88" rx="0.38"/>
<path fill="#000000" d="
  M 136.96 254.01
  C 137.29 254.28 137.57 254.62 137.65 255.05
  Q 137.98 256.75 138.86 258.24
  Q 144.50 267.74 154.28 273.21
  Q 157.07 274.77 160.71 275.84
  C 163.98 276.81 166.91 277.90 170.43 277.91
  Q 206.91 277.96 243.65 277.93
  Q 244.25 277.93 244.25 278.52
  L 244.25 309.29
  A 0.55 0.54 -90.0 0 1 243.71 309.84
  Q 210.57 309.89 183.28 309.95
  Q 174.31 309.98 166.30 309.70
  Q 162.37 309.56 157.25 308.06
  Q 154.40 307.23 151.71 306.96
  Q 148.70 306.66 146.04 304.93
  C 144.84 304.15 143.38 304.21 142.13 303.60
  Q 125.37 295.36 114.88 281.60
  Q 114.13 280.62 113.49 280.10
  Q 113.09 279.78 112.85 279.33
  C 111.54 276.91 109.56 274.90 108.60 272.32
  Q 107.83 270.27 106.46 268.45
  Q 105.97 267.79 106.03 266.95
  Q 106.06 266.46 105.87 266.01
  Q 104.78 263.47 103.70 260.93
  Q 103.17 259.66 103.05 258.61
  C 102.92 257.35 102.97 256.45 102.59 255.18
  Q 98.07 240.07 102.41 224.79
  C 102.84 223.27 102.99 221.95 103.05 220.39
  Q 103.09 219.50 103.59 218.66
  Q 105.00 216.32 105.69 213.85
  Q 106.35 211.49 107.64 209.08
  Q 109.98 204.70 112.54 200.53
  Q 113.10 199.62 113.88 198.93
  C 114.62 198.29 114.84 197.37 115.47 196.61
  Q 128.90 180.46 147.18 173.85
  C 149.43 173.04 151.60 172.65 153.91 171.90
  C 157.07 170.88 161.10 169.96 164.83 169.96
  Q 205.22 170.03 243.70 169.99
  Q 244.25 169.99 244.25 170.54
  L 244.25 201.45
  Q 244.25 201.98 243.72 201.98
  Q 207.75 201.99 166.91 202.01
  Q 162.77 202.01 159.35 204.01
  Q 158.10 204.74 156.76 204.96
  C 154.49 205.32 153.54 206.88 151.70 207.75
  Q 150.84 208.15 150.08 208.72
  Q 145.34 212.21 141.49 216.92
  Q 141.01 217.51 140.80 218.20
  Q 140.61 218.79 140.03 219.07
  Q 139.61 219.27 139.37 219.66
  Q 138.38 221.23 137.96 222.94
  Q 137.69 224.03 137.00 224.99
  Q 135.00 227.75 134.94 231.13
  C 134.89 233.89 133.76 236.76 134.07 239.50
  Q 134.62 244.48 135.16 249.54
  C 135.31 250.98 136.10 251.85 136.44 253.19
  A 1.50 1.49 -77.6 0 0 136.96 254.01
  Z"
/>
<path fill="#000000" d="
  M 298.50 278.70
  L 298.50 309.57
  A 0.33 0.32 -0.0 0 1 298.17 309.89
  L 267.28 309.85
  Q 266.96 309.85 266.96 309.53
  L 266.97 170.51
  Q 266.97 170.01 267.48 170.01
  Q 319.49 170.02 365.99 169.97
  Q 372.18 169.96 376.37 171.71
  Q 378.13 172.44 379.95 172.80
  Q 381.52 173.11 382.93 173.86
  Q 391.68 178.51 398.00 185.84
  Q 400.64 188.90 402.51 192.66
  Q 404.87 197.42 405.69 201.05
  Q 406.38 204.12 406.95 207.83
  Q 407.53 211.58 407.53 215.24
  Q 407.53 225.76 407.44 234.91
  Q 407.41 238.65 406.47 243.70
  Q 405.69 247.93 404.18 251.60
  Q 402.64 255.35 400.57 258.75
  Q 399.04 261.27 395.23 265.20
  Q 389.75 270.86 382.72 274.25
  C 380.81 275.17 378.86 275.32 376.97 276.19
  Q 373.05 277.99 368.94 277.99
  Q 334.59 278.01 299.20 277.99
  Q 298.50 277.99 298.50 278.70
  Z
  M 371.54 243.06
  C 372.73 242.87 373.65 241.96 374.00 240.84
  C 374.63 238.83 375.92 236.83 375.97 234.64
  Q 376.17 225.54 376.27 215.11
  C 376.30 212.10 374.78 209.35 373.62 206.64
  Q 373.08 205.38 371.89 205.00
  A 1.69 1.67 -11.7 0 1 371.13 204.51
  Q 369.20 202.36 367.55 202.13
  Q 365.22 201.80 363.31 201.80
  Q 330.66 201.66 299.25 201.80
  A 0.75 0.75 0.0 0 0 298.50 202.55
  L 298.50 245.98
  A 0.51 0.51 0.0 0 0 299.01 246.49
  Q 336.31 246.59 363.57 246.40
  Q 365.62 246.39 368.09 245.82
  Q 370.37 245.31 371.11 243.40
  Q 371.23 243.11 371.54 243.06
  Z"
/>
<path fill="#000000" d="
  M 556.42 237.29
  A 0.89 0.88 54.6 0 0 556.18 238.74
  Q 558.20 240.67 560.26 242.89
  C 561.25 243.96 561.32 245.46 562.70 246.07
  A 1.47 1.42 -0.1 0 1 563.44 246.78
  C 564.04 248.03 564.17 249.37 565.17 250.41
  Q 566.64 251.93 566.88 254.00
  Q 567.10 255.91 567.89 258.02
  Q 570.76 265.59 568.61 274.31
  Q 567.96 276.94 567.26 279.47
  Q 566.58 281.94 565.39 284.43
  Q 558.36 299.02 543.43 305.93
  C 541.02 307.05 538.62 307.19 536.17 308.12
  C 533.45 309.15 530.05 309.71 527.13 309.72
  Q 485.49 309.83 427.54 309.75
  Q 427.00 309.75 427.00 309.21
  L 427.00 170.52
  A 0.52 0.52 0.0 0 1 427.52 170.00
  Q 479.75 170.00 529.00 170.11
  Q 533.50 170.12 536.93 172.07
  Q 538.11 172.75 539.22 172.89
  C 541.68 173.22 542.86 174.73 544.94 175.71
  Q 548.89 177.57 551.97 180.54
  C 553.11 181.64 554.70 182.36 555.21 183.86
  Q 555.37 184.35 555.84 184.57
  Q 556.45 184.86 556.87 185.39
  Q 560.47 189.91 563.19 195.61
  Q 563.86 197.01 564.19 198.64
  Q 564.51 200.18 565.05 201.67
  C 568.30 210.72 566.89 217.34 563.98 225.78
  C 563.05 228.46 561.53 230.76 560.17 233.20
  Q 559.92 233.65 559.46 233.89
  Q 558.20 234.55 557.97 235.98
  A 1.25 1.23 82.9 0 1 557.26 236.91
  L 556.42 237.29
  Z
  M 457.50 200.35
  L 457.50 224.69
  A 0.33 0.33 0.0 0 0 457.83 225.02
  L 523.02 225.02
  A 12.68 12.38 0.0 0 0 535.70 212.64
  L 535.70 212.40
  A 12.68 12.38 0.0 0 0 523.02 200.02
  L 457.83 200.02
  A 0.33 0.33 0.0 0 0 457.50 200.35
  Z
  M 457.43 254.98
  L 457.55 278.44
  A 0.83 0.83 0.0 0 0 458.39 279.27
  L 525.76 278.91
  A 12.52 12.19 -0.3 0 0 538.21 266.66
  L 538.21 265.92
  A 12.52 12.19 -0.3 0 0 525.62 253.79
  L 458.25 254.15
  A 0.83 0.83 0.0 0 0 457.43 254.98
  Z"
/>
<path fill="#000000" d="
  M 148.93 338.23
  C 149.87 336.15 151.45 333.89 153.58 332.95
  Q 155.05 332.31 156.13 331.22
  Q 156.50 330.86 157.02 330.83
  C 158.13 330.76 158.86 330.14 159.96 330.06
  Q 165.25 329.68 171.78 329.94
  Q 174.39 330.04 176.02 331.17
  C 177.79 332.39 180.16 333.01 181.44 334.75
  Q 182.55 336.27 183.82 337.90
  Q 185.17 339.65 185.30 341.87
  C 185.44 344.12 186.28 346.18 185.85 348.50
  Q 185.24 351.76 184.72 354.94
  Q 184.62 355.51 184.14 355.82
  Q 182.85 356.65 182.12 358.07
  Q 181.89 358.53 181.50 358.87
  L 178.16 361.80
  A 0.72 0.72 0.0 0 1 177.74 361.98
  Q 177.51 362.01 177.28 362.00
  Q 176.97 361.99 176.70 362.15
  Q 170.26 365.72 162.15 364.39
  C 159.23 363.92 157.00 362.39 154.18 361.81
  Q 153.59 361.68 153.27 361.17
  L 152.56 360.02
  A 1.65 1.64 -6.3 0 0 151.69 359.33
  Q 150.31 358.87 150.03 357.58
  Q 149.88 356.92 149.40 356.44
  Q 147.29 354.37 147.05 351.87
  Q 146.58 346.76 147.16 340.42
  Q 147.26 339.35 148.21 338.94
  Q 148.71 338.72 148.93 338.23
  Z
  M 161.17 338.32
  Q 159.23 338.91 157.45 340.20
  Q 156.19 341.10 155.82 342.66
  Q 154.67 347.53 156.20 352.04
  C 156.67 353.42 158.97 355.59 160.39 355.96
  C 165.25 357.26 173.42 357.62 176.22 352.48
  Q 179.36 346.72 176.35 341.29
  Q 175.44 339.65 173.74 338.92
  Q 170.30 337.45 167.23 336.78
  A 1.79 1.76 39.9 0 0 166.22 336.86
  C 165.17 337.25 163.30 337.03 162.66 337.43
  C 162.10 337.78 161.83 338.12 161.17 338.32
  Z"
/>
<path fill="#000000" d="
  M 480.94 338.93
  Q 481.56 339.37 481.71 340.11
  Q 482.84 345.72 482.13 351.62
  Q 481.83 354.12 480.08 356.47
  Q 478.12 359.12 476.13 360.66
  Q 473.56 362.64 468.74 363.99
  Q 464.13 365.28 458.74 364.46
  Q 456.59 364.13 454.68 363.25
  Q 452.77 362.38 450.86 361.69
  A 0.68 0.65 -12.4 0 1 450.60 361.53
  L 447.15 358.37
  A 0.79 0.79 0.0 0 1 446.93 358.01
  Q 446.59 356.68 445.46 356.04
  A 2.80 2.79 15.3 0 1 444.04 353.56
  Q 444.07 351.45 443.44 349.40
  C 442.50 346.31 444.13 343.37 444.00 340.26
  Q 443.97 339.71 444.39 339.34
  Q 444.99 338.80 445.34 338.06
  Q 447.28 333.82 451.83 332.09
  Q 452.32 331.91 452.68 331.53
  Q 453.86 330.32 455.70 330.16
  Q 463.46 329.48 470.31 330.18
  C 471.13 330.26 472.18 330.68 472.83 331.20
  C 475.80 333.56 478.50 333.89 480.17 337.96
  Q 480.41 338.56 480.94 338.93
  Z
  M 458.90 337.75
  C 457.04 338.62 455.20 339.01 453.62 340.38
  A 1.65 1.62 -15.1 0 0 453.08 341.30
  C 452.75 343.02 451.67 344.01 451.65 345.86
  Q 451.63 347.50 451.76 349.07
  C 451.86 350.23 452.66 350.87 452.86 351.98
  C 453.59 355.96 459.68 356.81 462.92 356.78
  C 467.28 356.75 471.75 355.93 473.20 351.23
  C 473.85 349.15 474.60 347.20 473.88 345.02
  Q 473.33 343.34 472.95 341.75
  Q 472.83 341.23 472.45 340.85
  L 471.10 339.46
  Q 470.78 339.14 470.33 339.03
  Q 468.93 338.69 467.81 337.72
  Q 467.39 337.36 466.85 337.30
  C 464.26 337.01 461.31 336.63 458.90 337.75
  Z"
/>
<path fill="#000000" d="
  M 540.47 340.53
  Q 540.95 341.14 541.88 341.01
  A 1.94 1.92 -35.9 0 1 542.93 341.17
  Q 543.83 341.61 545.00 341.83
  Q 549.53 342.72 553.88 343.67
  C 556.31 344.20 559.43 343.59 561.27 345.68
  Q 562.13 346.67 563.33 347.05
  Q 563.76 347.19 563.94 347.61
  C 565.09 350.25 566.90 352.39 566.06 355.46
  Q 565.54 357.33 564.28 359.32
  Q 563.34 360.80 561.71 361.68
  Q 552.28 366.78 541.72 363.73
  C 540.40 363.35 539.75 362.41 538.45 362.22
  C 536.90 361.98 535.60 361.04 534.78 359.71
  Q 534.51 359.28 534.04 359.12
  Q 532.23 358.48 531.97 356.46
  A 0.70 0.68 78.5 0 1 532.46 355.70
  Q 535.34 354.87 537.72 353.17
  A 1.50 1.49 62.1 0 1 540.00 353.88
  C 540.76 355.95 543.43 356.16 545.27 356.77
  C 549.27 358.11 553.25 357.47 557.28 355.65
  Q 557.76 355.44 557.88 354.94
  C 558.91 350.95 551.68 350.04 549.14 350.07
  Q 543.33 350.16 540.08 348.53
  Q 538.11 347.55 536.19 346.88
  Q 535.61 346.67 535.27 346.19
  Q 535.00 345.81 534.97 345.35
  Q 534.93 344.89 534.60 344.56
  Q 531.28 341.27 533.21 336.90
  Q 534.64 333.66 537.42 331.84
  Q 539.76 330.32 542.52 330.03
  C 547.73 329.50 554.64 329.23 559.01 331.62
  C 561.89 333.19 563.70 334.26 565.09 337.59
  Q 565.31 338.11 564.77 338.29
  Q 561.19 339.46 558.25 339.46
  C 556.11 339.46 555.04 337.55 553.09 336.92
  Q 548.51 335.45 543.96 336.64
  Q 543.52 336.76 543.19 337.08
  Q 542.23 338.02 540.89 338.68
  A 1.22 1.22 0.0 0 0 540.47 340.53
  Z"
/>
<path fill="#000000" d="
  M 116.53 344.72
  Q 115.95 348.37 117.78 351.49
  C 119.80 354.96 122.85 356.14 126.88 356.06
  Q 134.19 355.91 140.56 356.04
  Q 141.03 356.04 141.03 356.51
  L 141.05 363.23
  A 0.61 0.61 0.0 0 1 140.42 363.84
  Q 135.52 363.63 130.35 363.82
  Q 124.09 364.05 120.27 362.88
  Q 114.73 361.18 111.37 356.39
  Q 108.92 352.89 108.78 349.37
  C 108.63 345.49 108.43 341.90 110.78 338.50
  C 115.12 332.23 121.00 329.67 128.67 329.93
  Q 134.85 330.14 140.33 329.94
  A 0.83 0.83 0.0 0 1 141.19 330.76
  L 141.19 337.48
  A 0.70 0.70 0.0 0 1 140.46 338.18
  Q 133.61 337.96 126.31 338.13
  C 123.05 338.21 118.43 339.44 117.53 343.05
  C 117.42 343.50 117.23 343.73 116.89 344.03
  Q 116.59 344.31 116.53 344.72
  Z"
/>
<path fill="#000000" d="
  M 220.24 349.71
  L 220.22 330.27
  Q 220.22 330.01 220.48 330.01
  L 228.75 330.00
  Q 229.00 330.00 229.00 330.25
  L 229.00 363.51
  A 0.27 0.27 0.0 0 1 228.73 363.78
  L 221.94 363.79
  Q 221.48 363.79 221.17 363.45
  L 209.10 350.18
  Q 208.92 349.98 208.64 349.95
  Q 208.40 349.93 208.25 349.75
  Q 208.13 349.62 208.09 349.45
  Q 207.55 347.45 205.58 346.86
  A 0.67 0.67 0.0 0 1 205.11 346.33
  Q 204.78 344.21 202.67 343.86
  A 0.91 0.91 0.0 0 1 201.91 343.01
  Q 201.90 342.84 201.83 342.69
  Q 201.40 341.67 201.41 342.78
  Q 201.56 353.44 201.50 363.28
  Q 201.50 363.79 200.99 363.79
  L 194.25 363.76
  Q 193.50 363.76 193.50 363.00
  L 193.50 331.00
  Q 193.50 330.00 194.50 330.00
  L 200.78 330.00
  Q 201.73 330.00 201.94 330.93
  Q 202.32 332.65 203.99 333.18
  Q 204.66 333.40 204.83 334.09
  Q 205.22 335.66 206.87 336.15
  A 1.49 1.49 0.0 0 1 207.92 337.36
  Q 208.09 338.55 209.26 339.00
  Q 209.80 339.20 210.18 339.62
  L 219.57 349.97
  Q 220.24 350.70 220.24 349.71
  Z"
/>
<path fill="#000000" d="
  M 249.87 337.95
  L 236.73 337.90
  A 0.37 0.37 0.0 0 1 236.36 337.52
  L 236.54 330.36
  A 0.37 0.37 0.0 0 1 236.91 330.00
  L 271.69 330.00
  A 0.37 0.37 0.0 0 1 272.06 330.37
  L 272.08 337.56
  A 0.37 0.37 0.0 0 1 271.71 337.93
  L 258.78 337.91
  A 0.37 0.37 0.0 0 0 258.41 338.28
  L 258.41 363.37
  A 0.37 0.37 0.0 0 1 258.05 363.74
  L 250.58 363.84
  A 0.37 0.37 0.0 0 1 250.20 363.47
  L 250.24 338.32
  A 0.37 0.37 0.0 0 0 249.87 337.95
  Z"
/>
<path fill="#000000" d="
  M 306.61 350.75
  Q 307.03 351.32 306.98 352.04
  Q 306.94 352.59 307.43 352.85
  C 309.63 354.00 310.25 356.57 312.00 358.32
  Q 313.25 359.57 313.91 361.32
  A 1.02 1.02 0.0 0 0 314.61 361.94
  L 315.51 362.19
  Q 315.95 362.31 315.96 362.76
  L 315.97 363.15
  Q 315.99 363.79 315.35 363.79
  L 307.44 363.76
  A 3.55 3.53 79.9 0 1 304.12 361.43
  C 303.71 360.29 302.96 359.26 301.84 358.72
  Q 300.88 358.25 300.99 357.16
  Q 301.07 356.29 300.26 355.98
  Q 298.86 355.46 298.98 353.95
  Q 299.05 353.12 298.24 352.91
  Q 297.40 352.70 297.08 351.90
  Q 296.80 351.21 296.06 351.20
  L 289.31 351.15
  Q 288.77 351.15 288.77 351.69
  L 288.76 363.41
  A 0.34 0.34 0.0 0 1 288.42 363.75
  L 280.64 363.78
  Q 280.49 363.78 280.49 363.64
  L 280.51 330.28
  A 0.27 0.27 0.0 0 1 280.78 330.01
  Q 291.50 330.01 302.01 330.13
  Q 307.45 330.19 312.02 333.98
  Q 312.40 334.30 312.57 334.77
  Q 314.48 340.13 312.77 345.94
  Q 312.58 346.60 311.94 346.88
  Q 310.34 347.56 309.71 349.20
  A 1.24 1.23 10.2 0 1 308.55 350.00
  L 306.99 350.00
  Q 306.06 350.00 306.61 350.75
  Z
  M 288.53 337.74
  L 288.48 343.48
  A 0.51 0.51 0.0 0 0 288.98 343.99
  L 301.55 344.10
  A 3.96 3.32 0.5 0 0 305.54 340.81
  L 305.54 340.69
  A 3.96 3.32 0.5 0 0 301.61 337.34
  L 289.04 337.23
  A 0.51 0.51 0.0 0 0 288.53 337.74
  Z"
/>
<path fill="#000000" d="
  M 354.80 349.83
  L 355.30 350.07
  Q 355.56 350.19 355.69 350.44
  Q 356.56 352.19 356.97 354.02
  Q 357.19 355.03 357.84 355.85
  Q 359.07 357.39 359.88 359.23
  A 1.36 1.32 37.0 0 1 359.98 359.87
  Q 359.85 361.24 361.04 362.00
  Q 361.47 362.27 361.64 362.72
  Q 361.87 363.32 361.36 363.74
  A 1.03 1.00 27.5 0 1 360.62 363.96
  Q 357.03 363.62 353.36 363.83
  Q 352.68 363.86 352.67 363.19
  Q 352.66 362.28 351.83 361.83
  Q 351.25 361.51 351.22 360.84
  Q 351.10 358.40 349.56 356.53
  Q 349.26 356.17 348.81 356.17
  L 334.69 356.18
  Q 333.47 356.18 332.91 357.27
  C 332.21 358.63 331.31 359.46 331.00 360.99
  Q 330.75 362.21 330.23 363.37
  Q 330.04 363.81 329.56 363.80
  Q 325.71 363.74 322.10 363.79
  Q 319.93 363.81 321.48 362.29
  Q 322.20 361.58 322.04 360.55
  A 1.05 1.04 62.0 0 1 322.31 359.65
  Q 324.52 357.21 325.15 354.00
  A 1.66 1.63 72.2 0 1 325.52 353.26
  Q 327.10 351.46 327.87 349.03
  C 328.61 346.69 330.35 345.06 330.99 342.64
  C 331.39 341.11 332.75 339.58 333.72 338.37
  Q 334.04 337.97 333.97 337.47
  Q 333.82 336.39 334.46 335.57
  C 335.50 334.22 336.08 332.30 336.44 330.66
  Q 336.58 330.00 337.26 330.00
  L 344.71 330.00
  Q 345.45 330.00 345.68 330.71
  Q 346.14 332.13 347.18 333.15
  Q 347.66 333.63 347.77 334.29
  Q 348.25 337.08 350.05 339.23
  C 351.24 340.64 350.71 342.26 351.97 343.62
  Q 354.07 345.88 354.31 349.13
  A 0.86 0.85 10.3 0 0 354.80 349.83
  Z
  M 340.61 340.34
  C 340.20 341.27 339.19 341.16 339.10 342.60
  Q 338.90 345.54 336.24 348.30
  A 0.74 0.74 0.0 0 0 336.29 349.37
  Q 337.07 350.05 338.20 349.63
  Q 338.66 349.46 339.16 349.49
  Q 342.21 349.74 345.41 349.51
  Q 346.32 349.44 345.82 348.68
  C 344.77 347.08 345.05 345.45 343.74 343.81
  Q 342.27 341.97 341.80 339.52
  Q 341.70 339.01 341.18 339.09
  Q 340.72 339.16 340.74 339.63
  Q 340.75 340.00 340.61 340.34
  Z"
/>
<path fill="#000000" d="
  M 396.40 338.13
  Q 388.91 338.03 381.92 338.06
  Q 380.10 338.06 378.69 338.46
  C 377.31 338.86 375.76 338.79 374.73 339.91
  Q 372.19 342.71 371.31 346.03
  A 1.56 1.56 0.0 0 0 371.34 346.96
  C 371.63 347.81 371.34 348.42 371.74 349.26
  Q 373.71 353.45 377.54 355.77
  Q 377.92 356.00 378.36 356.00
  L 396.66 356.00
  Q 397.07 356.00 397.07 356.41
  L 397.07 363.47
  Q 397.07 363.75 396.78 363.76
  Q 388.57 363.81 380.12 363.75
  Q 377.76 363.74 375.02 362.47
  C 374.12 362.06 373.62 362.01 372.65 361.94
  Q 371.86 361.89 371.47 361.20
  Q 370.46 359.45 368.64 358.91
  Q 368.09 358.74 368.00 358.17
  Q 367.78 356.66 366.39 355.82
  Q 365.91 355.53 366.02 354.96
  Q 366.18 354.14 365.67 353.51
  Q 365.05 352.75 364.72 351.78
  Q 362.61 345.53 365.81 339.91
  C 366.16 339.30 366.04 338.57 366.45 338.00
  C 367.84 336.08 370.03 333.42 372.40 332.73
  Q 373.59 332.38 374.33 331.36
  Q 374.57 331.02 374.99 331.00
  C 376.54 330.92 377.47 329.98 379.00 329.98
  Q 387.72 330.03 396.39 329.98
  Q 397.08 329.98 397.08 330.68
  L 397.06 337.48
  Q 397.06 338.14 396.40 338.13
  Z"
/>
<path fill="#000000" d="
  M 425.76 338.32
  L 425.80 363.47
  A 0.37 0.37 0.0 0 1 425.42 363.84
  L 418.00 363.73
  A 0.37 0.37 0.0 0 1 417.64 363.36
  L 417.63 338.25
  A 0.37 0.37 0.0 0 0 417.26 337.88
  L 403.36 337.89
  A 0.37 0.37 0.0 0 1 402.99 337.52
  L 403.00 330.37
  A 0.37 0.37 0.0 0 1 403.37 330.00
  L 439.08 330.00
  A 0.37 0.37 0.0 0 1 439.45 330.36
  L 439.65 337.53
  A 0.37 0.37 0.0 0 1 439.28 337.91
  L 426.13 337.95
  A 0.37 0.37 0.0 0 0 425.76 338.32
  Z"
/>
<path fill="#000000" d="
  M 516.64 350.79
  Q 517.05 351.28 516.98 351.93
  Q 516.91 352.58 517.49 352.89
  C 519.76 354.13 520.49 356.99 522.44 358.83
  Q 522.83 359.20 522.98 359.72
  Q 523.49 361.48 525.36 362.12
  Q 525.72 362.25 525.90 362.57
  Q 526.17 363.05 525.88 363.49
  Q 525.67 363.79 525.30 363.79
  L 516.18 363.77
  Q 515.52 363.77 515.18 363.21
  L 512.99 359.75
  Q 512.66 359.22 512.07 359.01
  Q 510.85 358.58 510.97 357.30
  A 1.06 1.05 -67.5 0 0 510.59 356.37
  L 508.68 354.77
  Q 508.27 354.43 508.14 353.92
  Q 507.73 352.31 506.40 351.40
  Q 506.07 351.17 505.67 351.17
  L 499.42 351.11
  A 0.96 0.95 90.0 0 0 498.46 352.08
  L 498.60 363.08
  A 0.67 0.67 0.0 0 1 497.93 363.76
  L 491.34 363.79
  A 0.70 0.70 0.0 0 1 490.64 363.09
  L 490.61 330.49
  Q 490.61 329.99 491.11 329.99
  Q 501.87 329.99 512.09 330.02
  Q 517.15 330.04 522.18 334.17
  Q 522.57 334.49 522.68 335.00
  C 523.14 337.13 524.10 339.36 523.61 341.55
  Q 523.12 343.72 522.92 345.77
  Q 522.84 346.51 522.14 346.77
  Q 520.41 347.40 519.72 349.18
  Q 519.40 350.00 518.52 350.00
  L 517.01 350.00
  Q 515.98 350.00 516.64 350.79
  Z
  M 498.51 337.97
  L 498.49 343.35
  A 0.67 0.67 0.0 0 0 499.16 344.02
  L 511.46 344.07
  A 4.09 3.23 0.2 0 0 515.56 340.85
  L 515.56 340.59
  A 4.09 3.23 0.2 0 0 511.48 337.35
  L 499.18 337.30
  A 0.67 0.67 0.0 0 0 498.51 337.97
  Z"
/>
</svg>
