<?xml version="1.0" encoding="UTF-8" standalone="no"?>
<!DOCTYPE svg PUBLIC "-//W3C//DTD SVG 1.1//EN" "http://www.w3.org/Graphics/SVG/1.1/DTD/svg11.dtd">
<svg xmlns="http://www.w3.org/2000/svg" version="1.1" viewBox="0.00 0.00 294.00 100.00">
<path fill="#6d3430" d="
  M 82.63 0.00
  L 89.75 0.00
  Q 93.31 0.45 96.76 1.18
  C 101.01 2.08 110.82 6.30 108.62 12.40
  C 106.74 17.58 98.93 20.81 94.10 22.22
  Q 75.42 27.66 56.01 25.13
  Q 52.76 24.70 49.89 23.43
  Q 49.37 23.19 49.10 23.70
  Q 46.60 28.43 46.77 32.21
  C 47.00 37.26 51.55 39.05 55.72 40.37
  Q 57.50 40.93 59.17 40.40
  C 65.98 38.24 92.05 31.96 96.67 38.92
  A 1.93 1.93 0.0 0 1 96.32 41.44
  C 92.29 44.94 84.68 45.32 79.40 45.36
  Q 71.66 45.43 63.90 43.99
  Q 61.79 43.59 59.79 44.29
  C 43.80 49.83 28.70 58.50 15.91 69.34
  Q 10.59 73.84 6.62 79.26
  C 2.15 85.34 2.13 92.76 10.20 95.73
  Q 19.84 99.28 32.20 97.87
  Q 42.76 96.66 50.67 94.78
  C 60.62 92.42 73.99 86.61 80.53 78.10
  C 88.97 67.14 82.11 57.99 71.69 52.60
  Q 70.68 52.07 71.82 52.05
  C 83.44 51.82 99.81 56.31 90.64 72.01
  C 86.15 79.70 77.67 85.74 69.81 89.82
  Q 63.08 93.30 53.74 95.72
  Q 40.83 99.07 27.37 100.00
  L 21.77 100.00
  Q 13.86 99.42 7.87 96.63
  Q 1.48 93.64 0.00 86.66
  L 0.00 83.76
  C 4.24 62.59 32.68 45.91 52.91 42.02
  Q 53.99 41.81 52.95 41.46
  C 43.45 38.18 38.54 29.99 43.66 20.50
  Q 43.91 20.04 43.47 19.73
  L 41.54 18.36
  A 1.22 1.21 -72.9 0 1 41.02 17.36
  L 41.02 16.55
  Q 41.02 15.70 41.73 16.18
  L 44.48 18.01
  A 0.56 0.55 32.6 0 0 45.26 17.84
  C 52.73 5.80 69.54 1.56 82.63 0.00
  Z
  M 67.36 9.51
  C 61.10 12.09 54.72 15.94 51.19 20.95
  Q 50.61 21.78 51.57 22.08
  Q 57.05 23.77 62.86 23.98
  Q 80.86 24.65 95.30 19.98
  C 98.84 18.84 105.56 16.07 106.93 12.21
  C 107.96 9.31 104.87 6.90 102.45 6.07
  Q 98.39 4.66 93.89 4.56
  Q 80.12 4.25 67.36 9.51
  Z
  M 91.74 41.77
  Q 93.00 41.48 94.00 40.66
  A 0.46 0.46 0.0 0 0 93.90 39.89
  C 92.61 39.27 91.23 38.69 89.77 38.58
  Q 77.77 37.60 64.53 41.80
  Q 63.72 42.06 64.56 42.21
  Q 78.73 44.75 91.74 41.77
  Z"
/>
<path fill="#6d3430" d="
  M 91.91 76.22
  L 88.60 79.15
  A 0.48 0.47 -37.5 0 1 87.89 79.06
  L 87.72 78.81
  Q 87.43 78.38 87.80 78.01
  C 89.70 76.13 93.09 74.10 94.09 71.57
  Q 103.12 48.63 114.71 26.99
  Q 120.50 16.17 126.32 7.31
  C 127.89 4.93 130.98 1.11 133.69 0.78
  C 137.71 0.30 136.83 8.19 136.45 10.23
  Q 135.16 17.28 132.33 23.13
  C 125.43 37.37 114.87 50.65 103.77 63.35
  Q 102.03 65.33 101.12 67.71
  Q 96.59 79.40 93.66 90.39
  Q 93.12 92.44 94.14 93.97
  Q 94.52 94.54 95.20 94.53
  C 98.39 94.47 103.69 88.66 105.83 86.62
  A 0.46 0.45 -43.6 0 1 106.47 86.63
  L 106.71 86.87
  A 0.83 0.83 0.0 0 1 106.71 88.03
  C 103.61 91.16 95.90 99.80 91.10 97.80
  Q 88.55 96.75 88.43 93.85
  C 88.22 88.30 90.51 81.99 92.40 76.54
  Q 92.77 75.46 91.91 76.22
  Z
  M 105.95 55.60
  Q 105.15 57.43 104.43 59.34
  Q 104.07 60.29 104.75 59.54
  Q 118.81 44.19 128.34 26.17
  C 131.60 20.00 134.72 12.32 134.61 5.19
  A 1.17 1.17 0.0 0 0 133.50 4.04
  C 131.27 3.92 128.50 9.02 127.52 10.87
  Q 115.26 34.27 105.95 55.60
  Z"
/>
<path fill="#6d3430" d="
  M 268.30 50.69
  L 266.32 53.24
  A 0.81 0.78 -65.4 0 1 265.56 53.54
  L 259.30 52.46
  A 0.35 0.34 -11.1 0 0 258.95 52.98
  L 261.29 56.89
  Q 261.62 57.44 261.08 57.78
  L 257.56 59.99
  Q 257.03 60.33 256.41 60.25
  Q 250.63 59.55 247.40 56.63
  C 241.98 51.72 246.42 43.36 252.73 41.93
  C 258.59 40.60 264.49 45.99 268.24 49.81
  Q 268.72 50.30 269.18 49.78
  C 272.46 46.06 277.87 40.70 283.30 41.19
  Q 290.11 41.80 292.32 48.63
  C 294.33 54.83 286.46 58.76 281.59 59.69
  Q 281.07 59.79 280.62 59.51
  Q 277.44 57.45 273.99 56.13
  A 1.24 1.19 79.0 0 1 273.48 55.77
  L 269.18 50.68
  Q 268.73 50.14 268.30 50.69
  Z"
/>
<path fill="#6d3430" d="
  M 294.00 78.61
  L 294.00 80.72
  Q 293.00 84.33 289.36 82.64
  Q 284.76 80.51 280.95 77.24
  Q 273.90 71.19 267.27 64.34
  Q 266.88 63.93 267.37 63.65
  Q 268.78 62.86 270.22 63.29
  Q 275.06 64.72 279.74 67.05
  Q 280.58 67.47 280.12 66.65
  L 277.18 61.36
  Q 276.90 60.85 277.47 60.72
  L 280.58 59.97
  Q 281.31 59.79 281.93 60.23
  Q 291.55 66.97 294.00 78.61
  Z"
/>
<path fill="#6d3430" d="
  M 161.45 87.65
  Q 168.31 80.82 175.41 74.18
  C 178.16 71.61 186.88 63.56 190.55 68.83
  C 192.44 71.53 190.00 76.06 188.27 78.34
  Q 183.62 84.43 179.11 89.99
  Q 177.95 91.43 177.31 93.15
  A 1.34 1.34 0.0 0 0 178.58 94.95
  Q 180.07 94.94 181.40 94.05
  Q 186.40 90.68 191.23 87.09
  A 0.28 0.28 0.0 0 1 191.65 87.20
  L 191.76 87.43
  A 0.82 0.82 0.0 0 1 191.56 88.37
  C 188.18 91.42 181.22 97.91 176.60 98.20
  C 170.90 98.56 172.19 92.48 174.43 89.56
  Q 178.52 84.22 182.66 79.10
  C 184.36 76.98 186.86 73.81 187.07 71.01
  A 1.49 1.48 79.2 0 0 184.94 69.56
  Q 182.69 70.65 180.63 72.25
  Q 165.50 84.03 155.11 96.91
  Q 154.67 97.44 153.98 97.51
  L 151.28 97.74
  Q 150.65 97.80 150.86 97.21
  C 154.45 87.08 162.87 79.44 167.01 69.40
  Q 167.11 69.15 167.37 69.07
  L 172.73 67.43
  A 0.15 0.15 0.0 0 1 172.91 67.63
  C 170.18 75.09 165.33 81.06 161.20 87.45
  Q 160.40 88.69 161.45 87.65
  Z"
/>
<path fill="#6d3430" d="
  M 138.41 82.46
  C 132.60 87.43 127.17 92.69 120.67 96.55
  Q 116.07 99.29 112.48 97.33
  C 109.63 95.77 109.88 92.16 111.36 89.72
  Q 118.70 77.66 131.42 70.28
  Q 138.67 66.08 146.10 67.64
  Q 146.81 67.79 146.44 68.41
  L 145.57 69.86
  A 0.75 0.74 -64.2 0 1 144.67 70.18
  Q 140.26 68.58 136.77 69.75
  C 130.36 71.90 124.38 78.45 120.09 83.83
  Q 117.57 86.99 116.29 90.06
  C 115.29 92.46 117.02 95.09 119.72 94.35
  Q 120.96 94.01 121.96 93.41
  Q 137.88 83.95 148.56 68.42
  Q 148.73 68.17 149.03 68.15
  L 153.15 67.88
  A 0.13 0.13 0.0 0 1 153.28 68.06
  C 149.81 75.58 144.02 82.31 139.36 89.07
  Q 138.08 90.91 137.80 93.01
  A 1.35 1.35 0.0 0 0 139.72 94.41
  Q 145.47 91.66 150.80 87.85
  Q 151.22 87.55 151.23 88.07
  L 151.25 88.93
  A 0.56 0.53 73.3 0 1 151.02 89.38
  Q 146.01 92.83 140.31 96.75
  Q 138.24 98.17 136.09 98.14
  C 129.81 98.05 132.58 91.49 134.58 88.57
  Q 136.62 85.60 138.66 82.69
  Q 139.44 81.58 138.41 82.46
  Z"
/>
<path fill="#6d3430" d="
  M 196.91 87.15
  C 201.12 79.04 210.60 68.46 220.17 67.29
  C 227.80 66.36 231.17 73.21 227.87 79.58
  C 223.38 88.25 213.50 99.50 202.84 98.13
  C 196.95 97.38 194.09 92.56 196.91 87.15
  Z
  M 202.3781 95.8570
  A 16.88 6.82 128.3 0 0 218.1922 86.8369
  A 16.88 6.82 128.3 0 0 223.3019 69.3630
  A 16.88 6.82 128.3 0 0 207.4878 78.3831
  A 16.88 6.82 128.3 0 0 202.3781 95.8570
  Z"
/>
<path fill="#6d3430" d="
  M 239.69 86.08
  Q 246.05 78.56 252.33 70.84
  C 253.78 69.06 257.15 65.94 259.23 68.31
  C 260.83 70.13 259.71 74.59 258.97 76.77
  Q 258.43 78.38 256.76 79.18
  Q 255.04 80.00 253.36 81.11
  Q 252.47 81.71 252.92 80.73
  Q 254.38 77.57 255.17 73.96
  A 0.99 0.98 87.3 0 0 253.91 72.81
  Q 252.80 73.17 251.96 74.05
  Q 240.06 86.53 234.19 96.87
  Q 233.82 97.52 233.07 97.60
  L 229.99 97.94
  A 0.48 0.48 0.0 0 1 229.49 97.31
  Q 232.37 89.19 236.30 81.01
  Q 238.96 75.46 240.49 70.10
  Q 240.66 69.52 241.24 69.34
  L 245.99 67.82
  Q 246.58 67.64 246.49 68.25
  Q 246.25 69.84 245.70 71.28
  Q 242.80 78.78 239.36 85.86
  Q 238.68 87.27 239.69 86.08
  Z"
/>
</svg>
