<?xml version="1.0" encoding="UTF-8"?>
<svg version="1.1" xmlns="http://www.w3.org/2000/svg" width="500" height="500">
<path d="M0 0 C1.94202011 0.97618418 3.83222572 1.99321758 5.69921875 3.10546875 C5.69921875 2.44546875 5.69921875 1.78546875 5.69921875 1.10546875 C8.4080121 -0.24892793 10.70855143 0.04045424 13.69921875 0.10546875 C14.19421875 4.56046875 14.19421875 4.56046875 14.69921875 9.10546875 C13.93609375 9.24984375 13.17296875 9.39421875 12.38671875 9.54296875 C9.19051925 11.40122427 9.17060615 12.0609605 8.19921875 15.48046875 C6.9553538 19.80967469 5.71397416 21.77130863 1.69921875 24.10546875 C-3.3712967 26.47170929 -6.94340795 26.0291538 -12.30078125 25.10546875 C-11.97078125 25.76546875 -11.64078125 26.42546875 -11.30078125 27.10546875 C-9.54701172 27.14414062 -9.54701172 27.14414062 -7.7578125 27.18359375 C-6.20959899 27.23989242 -4.66142335 27.29723937 -3.11328125 27.35546875 C-2.34435547 27.36964844 -1.57542969 27.38382812 -0.78320312 27.3984375 C4.25909725 27.61484524 7.03823165 28.32363353 10.69921875 32.10546875 C11.8291393 34.36530984 11.99721831 35.90273362 12.13671875 38.41796875 C12.22759766 39.55685547 12.22759766 39.55685547 12.3203125 40.71875 C11.54597477 43.69434969 10.14578263 45.27276406 7.71166992 47.12182617 C3.58155466 49.14053713 -0.86438718 48.7361297 -5.36328125 48.60546875 C-6.34361328 48.60804688 -7.32394531 48.610625 -8.33398438 48.61328125 C-13.40655388 48.54440726 -17.23182143 48.48095082 -21.30078125 45.10546875 C-23.46354444 42.35286106 -23.30048212 41.10205868 -22.98828125 37.54296875 C-22.30078125 34.10546875 -22.30078125 34.10546875 -21.30078125 31.10546875 C-21.33292077 29.08067903 -21.36553521 27.05588544 -21.40625 25.03125 C-21.27788869 22.68746748 -20.33756893 21.17904412 -19.30078125 19.10546875 C-19.93118168 17.75461068 -20.60329542 16.42294199 -21.30078125 15.10546875 C-21.81395014 11.17117393 -21.4791214 9.4303026 -19.55078125 5.91796875 C-14.5245031 -0.36487893 -7.8053038 -3.03465971 0 0 Z M-9.48828125 8.79296875 C-11.62901944 10.98000722 -11.62901944 10.98000722 -11.05078125 13.85546875 C-10.80328125 14.59796875 -10.55578125 15.34046875 -10.30078125 16.10546875 C-7.44300092 16.79040248 -7.44300092 16.79040248 -4.30078125 17.10546875 C-3.31078125 16.44546875 -2.32078125 15.78546875 -1.30078125 15.10546875 C-0.7172762 12.648375 -0.7172762 12.648375 -1.30078125 10.10546875 C-4.34009721 7.16746333 -5.95233826 6.0652413 -9.48828125 8.79296875 Z M-12.30078125 36.10546875 C-12.30078125 37.42546875 -12.30078125 38.74546875 -12.30078125 40.10546875 C-8.01078125 40.10546875 -3.72078125 40.10546875 0.69921875 40.10546875 C0.69921875 38.78546875 0.69921875 37.46546875 0.69921875 36.10546875 C-3.59078125 36.10546875 -7.88078125 36.10546875 -12.30078125 36.10546875 Z " fill="#242424" transform="translate(151.30078125,233.89453125)"/>
<path d="M0 0 C5.34296365 2.77423113 8.76053686 6.27318108 11.25 11.75 C13.06431297 19.61202289 12.317574 26.07244558 8 33 C4.03881345 36.77255862 1.46466672 38.14783651 -3.9375 38.1875 C-5.25041016 38.20876953 -5.25041016 38.20876953 -6.58984375 38.23046875 C-9 38 -9 38 -12 36 C-12.33 40.29 -12.66 44.58 -13 49 C-20.71484375 49.09765625 -20.71484375 49.09765625 -23 49 C-24 48 -24 48 -24.12025452 46.09544373 C-24.11803391 45.26271439 -24.11581329 44.42998505 -24.11352539 43.57202148 C-24.11344986 42.63112167 -24.11337433 41.69022186 -24.11329651 40.72080994 C-24.10813522 39.69790359 -24.10297394 38.67499725 -24.09765625 37.62109375 C-24.0962413 36.57929459 -24.09482635 35.53749542 -24.09336853 34.46412659 C-24.0877508 31.12188906 -24.0751953 27.77971743 -24.0625 24.4375 C-24.05748728 22.17773534 -24.05292398 19.91796963 -24.04882812 17.65820312 C-24.03777561 12.10544318 -24.0204991 6.55273278 -24 1 C-20.7 1 -17.4 1 -14 1 C-13.67 1.66 -13.34 2.32 -13 3 C-12.34 2.505 -11.68 2.01 -11 1.5 C-7.25792214 -0.37103893 -4.07015931 -0.71967453 0 0 Z M-11.4375 11.875 C-13.51473915 16.02947831 -13.83408057 19.43808996 -13 24 C-11.55985074 26.69138543 -11.55985074 26.69138543 -9 28 C-5.95746492 28.58345476 -5.95746492 28.58345476 -3 28 C-0.96332385 26.45493534 -0.13926922 25.27853844 1 23 C1.27785312 19.3184461 1.22270258 16.60260697 -0.0625 13.125 C-1.95064485 10.70361875 -1.95064485 10.70361875 -5.4375 9.875 C-9.04131279 9.65573419 -9.04131279 9.65573419 -11.4375 11.875 Z " fill="#242424" transform="translate(83,233)"/>
<path d="M0 0 C2.78224898 2.22818226 4.61415203 4.11342774 5.82421875 7.4609375 C6.31147109 12.26261526 6.19991171 17.01609587 6.07421875 21.8359375 C6.05617188 23.14433594 6.038125 24.45273437 6.01953125 25.80078125 C5.97251223 29.02158439 5.90680056 32.24088224 5.82421875 35.4609375 C4.36628991 35.51493486 2.90779163 35.55372927 1.44921875 35.5859375 C0.63710938 35.60914063 -0.175 35.63234375 -1.01171875 35.65625 C-3.17578125 35.4609375 -3.17578125 35.4609375 -5.17578125 33.4609375 C-6.16578125 34.1209375 -7.15578125 34.7809375 -8.17578125 35.4609375 C-12.22941281 36.12375161 -16.32807098 36.2887117 -20.12890625 34.5859375 C-23.09073254 32.40051228 -24.15655245 30.52703648 -25.17578125 27.0234375 C-25.17578125 23.22513016 -24.84282772 20.87080528 -23.17578125 17.4609375 C-18.95379994 13.55560479 -16.19863292 12.35814636 -10.55078125 11.8984375 C-9.54789062 11.81464844 -8.545 11.73085937 -7.51171875 11.64453125 C-6.74085938 11.58394531 -5.97 11.52335938 -5.17578125 11.4609375 C-6.71405972 9.2531285 -6.71405972 9.2531285 -9.17578125 7.4609375 C-12.87010636 7.60706645 -12.87010636 7.60706645 -16.17578125 8.4609375 C-16.50578125 9.4509375 -16.83578125 10.4409375 -17.17578125 11.4609375 C-20.14578125 11.4609375 -23.11578125 11.4609375 -26.17578125 11.4609375 C-27.17578125 7.4609375 -27.17578125 7.4609375 -26.42578125 5.64453125 C-19.76947482 -3.65349679 -9.88878918 -4.85110413 0 0 Z M-14.17578125 21.4609375 C-13.85536728 24.06374318 -13.85536728 24.06374318 -13.17578125 26.4609375 C-9.71078125 25.9659375 -9.71078125 25.9659375 -6.17578125 25.4609375 C-5.51578125 23.4809375 -4.85578125 21.5009375 -4.17578125 19.4609375 C-9.76242971 18.85672219 -9.76242971 18.85672219 -14.17578125 21.4609375 Z " fill="#232323" transform="translate(334.17578125,235.5390625)"/>
<path d="M0 0 C3.72471453 2.84831111 5.33483256 6.2176937 6.18359375 10.7734375 C6.44133565 12.95908878 6.62687995 15.12231236 6.7265625 17.3203125 C3.47266262 19.48957909 2.59260293 19.56111299 -1.16015625 19.515625 C-2.09794922 19.50917969 -3.03574219 19.50273437 -4.00195312 19.49609375 C-5.46665039 19.47095703 -5.46665039 19.47095703 -6.9609375 19.4453125 C-7.94900391 19.43628906 -8.93707031 19.42726562 -9.95507812 19.41796875 C-12.39477515 19.3943968 -14.83398447 19.36149272 -17.2734375 19.3203125 C-15.97001479 21.82814632 -15.97001479 21.82814632 -14.2734375 24.3203125 C-10.77295146 25.36301047 -7.67971343 25.83421291 -4.2734375 24.3203125 C-3.9434375 23.3303125 -3.6134375 22.3403125 -3.2734375 21.3203125 C-0.3034375 21.6503125 2.6665625 21.9803125 5.7265625 22.3203125 C6.2215625 23.8053125 6.2215625 23.8053125 6.7265625 25.3203125 C4.19905033 30.07203538 1.63623447 33.08081301 -3.2734375 35.3203125 C-9.19581789 36.05966699 -14.38807102 36.21338083 -19.8359375 33.6328125 C-25.08373326 28.65413447 -28.2960829 24.35499651 -28.5859375 17.0078125 C-28.42148712 10.83064525 -26.8365288 6.21247565 -22.8984375 1.4453125 C-16.01017482 -4.13090014 -7.66317393 -4.365872 0 0 Z M-15.6484375 8.2578125 C-17.37658287 10.01360379 -17.37658287 10.01360379 -17.2734375 11.3203125 C-12.9834375 11.3203125 -8.6934375 11.3203125 -4.2734375 11.3203125 C-5.85180048 7.63654027 -5.85180048 7.63654027 -7.2734375 6.3203125 C-11.03968092 5.90184101 -12.65678558 5.81725436 -15.6484375 8.2578125 Z " fill="#262626" transform="translate(271.2734375,235.6796875)"/>
<path d="M0 0 C3.83084349 2.61193874 6.65161815 5.67823629 8.75 9.875 C8.81996014 11.58202735 8.83440154 13.29168003 8.8125 15 C8.80347656 15.91007812 8.79445312 16.82015625 8.78515625 17.7578125 C8.77355469 18.45648438 8.76195312 19.15515625 8.75 19.875 C5.86734851 20.83588383 4.07337729 20.99170941 1.08203125 20.97265625 C0.18935547 20.96943359 -0.70332031 20.96621094 -1.62304688 20.96289062 C-3.01620117 20.95032227 -3.01620117 20.95032227 -4.4375 20.9375 C-5.37787109 20.93298828 -6.31824219 20.92847656 -7.28710938 20.92382812 C-9.60813712 20.91204626 -11.92903644 20.89559558 -14.25 20.875 C-12.21689557 24.87847127 -12.21689557 24.87847127 -8.375 26.9375 C-5.1345542 27.20558299 -5.1345542 27.20558299 -2.9375 24.875 C0.61535967 22.23101141 2.62436882 22.74536133 6.859375 23.3203125 C7.48328125 23.50335938 8.1071875 23.68640625 8.75 23.875 C9.245 24.865 9.245 24.865 9.75 25.875 C7.94048521 30.49931557 5.85565559 33.10368248 1.75 35.875 C-4.2841684 37.88638947 -11.01505033 37.95256502 -16.75 35.1875 C-20.97633143 31.27814343 -24.80187261 27.23074467 -25.5859375 21.359375 C-25.68856891 14.17517644 -24.84996252 8.64415136 -19.75390625 3.30859375 C-13.87843598 -1.83427425 -7.25506539 -2.51136879 0 0 Z M-12.6875 9.75 C-14.34873174 11.56967209 -14.34873174 11.56967209 -14.25 12.875 C-9.96 12.875 -5.67 12.875 -1.25 12.875 C-1.91 11.555 -2.57 10.235 -3.25 8.875 C-8.27728802 7.37763408 -8.27728802 7.37763408 -12.6875 9.75 Z " fill="#232323" transform="translate(192.25,234.125)"/>
<path d="M0 0 C5.63527721 3.93158875 8.38986168 8.15087418 9.6875 14.875 C10.19568655 20.46505204 9.29528629 24.94918146 6.6875 29.875 C3.23314466 33.94936784 0.28426571 36.56001855 -5.08203125 37.2109375 C-15.58889738 37.34581383 -15.58889738 37.34581383 -19.84375 34.39453125 C-24.09404949 29.99727992 -26.56927031 24.3518927 -26.8125 18.25 C-26.36475708 11.74050677 -24.76271708 6.8330416 -19.8125 2.4375 C-14.05334554 -2.19760897 -6.84225187 -2.32378365 0 0 Z M-14.3125 11.875 C-15.71699969 16.08849906 -15.99078466 20.03394163 -14.4375 24.25 C-13.39499579 26.03409903 -13.39499579 26.03409903 -11.3125 26.875 C-7.26107881 27.13360135 -5.76912331 27.17941554 -2.3125 24.875 C-1.03462879 20.30539725 -0.73722512 16.15629405 -2.6875 11.8125 C-4.62425259 9.21844518 -4.62425259 9.21844518 -7.625 8.625 C-10.80871377 8.92115942 -12.03147829 9.67544336 -14.3125 11.875 Z " fill="#232323" transform="translate(412.3125,234.125)"/>
<path d="M0 0 C4.47746939 2.28097497 6.8202196 4.50841489 9 9 C9.34057617 12.22973633 9.34057617 12.22973633 9.29296875 15.83203125 C9.2784668 17.77045898 9.2784668 17.77045898 9.26367188 19.74804688 C9.23860985 21.1028707 9.21321506 22.45768841 9.1875 23.8125 C9.17244013 25.18683445 9.15875401 26.56118468 9.14648438 27.93554688 C9.11116628 31.29076632 9.06183851 34.64518166 9 38 C7.35425434 38.02688151 5.70838587 38.04634123 4.0625 38.0625 C3.14597656 38.07410156 2.22945312 38.08570313 1.28515625 38.09765625 C-1 38 -1 38 -2 37 C-2.15786308 35.14825294 -2.25107356 33.2909089 -2.31640625 31.43359375 C-2.35830078 30.30888672 -2.40019531 29.18417969 -2.44335938 28.02539062 C-2.48267578 26.84138672 -2.52199219 25.65738281 -2.5625 24.4375 C-2.60568359 23.24962891 -2.64886719 22.06175781 -2.69335938 20.83789062 C-2.79983546 17.89205216 -2.90184841 14.9461257 -3 12 C-5.31 11.67 -7.62 11.34 -10 11 C-12.22535794 14.33803691 -12.28978404 15.62819711 -12.4140625 19.54296875 C-12.47207031 21.15268555 -12.47207031 21.15268555 -12.53125 22.79492188 C-12.57765625 24.47424805 -12.57765625 24.47424805 -12.625 26.1875 C-12.68300781 27.88422852 -12.68300781 27.88422852 -12.7421875 29.61523438 C-12.83652533 32.4099925 -12.92211652 35.20474278 -13 38 C-14.64574566 38.02688151 -16.29161413 38.04634123 -17.9375 38.0625 C-18.85402344 38.07410156 -19.77054688 38.08570313 -20.71484375 38.09765625 C-23 38 -23 38 -24 37 C-24.08855161 34.3337397 -24.11524673 31.69352886 -24.09765625 29.02734375 C-24.0962413 28.22970108 -24.09482635 27.43205841 -24.09336853 26.61024475 C-24.08775316 24.05262565 -24.07519812 21.49509282 -24.0625 18.9375 C-24.05748698 17.20768355 -24.05292373 15.47786574 -24.04882812 13.74804688 C-24.03777875 9.49866447 -24.02050386 5.24934688 -24 1 C-20.7 1 -17.4 1 -14 1 C-13.67 1.66 -13.34 2.32 -13 3 C-12.34 2.505 -11.68 2.01 -11 1.5 C-7.2571311 -0.37143445 -4.07067311 -0.71835408 0 0 Z " fill="#282828" transform="translate(230,233)"/>
<path d="M0 0 C4.47746939 2.28097497 6.8202196 4.50841489 9 9 C9.34057617 12.22973633 9.34057617 12.22973633 9.29296875 15.83203125 C9.2784668 17.77045898 9.2784668 17.77045898 9.26367188 19.74804688 C9.23860985 21.1028707 9.21321506 22.45768841 9.1875 23.8125 C9.17244013 25.18683445 9.15875401 26.56118468 9.14648438 27.93554688 C9.11116628 31.29076632 9.06183851 34.64518166 9 38 C7.35425434 38.02688151 5.70838587 38.04634123 4.0625 38.0625 C3.14597656 38.07410156 2.22945313 38.08570313 1.28515625 38.09765625 C-1 38 -1 38 -2 37 C-2.15786308 35.14825294 -2.25107356 33.2909089 -2.31640625 31.43359375 C-2.35830078 30.30888672 -2.40019531 29.18417969 -2.44335938 28.02539062 C-2.48267578 26.84138672 -2.52199219 25.65738281 -2.5625 24.4375 C-2.60568359 23.24962891 -2.64886719 22.06175781 -2.69335938 20.83789062 C-2.79983546 17.89205216 -2.90184841 14.9461257 -3 12 C-6.40320934 11.32326553 -6.40320934 11.32326553 -10 11 C-12.63991268 13.63991268 -12.30240797 14.97946296 -12.4140625 18.6640625 C-12.47207031 20.34628906 -12.47207031 20.34628906 -12.53125 22.0625 C-12.57765625 23.8259375 -12.57765625 23.8259375 -12.625 25.625 C-12.68300781 27.40003906 -12.68300781 27.40003906 -12.7421875 29.2109375 C-12.83668845 32.14046691 -12.92224558 35.06998597 -13 38 C-14.64574566 38.02688151 -16.29161413 38.04634123 -17.9375 38.0625 C-18.85402344 38.07410156 -19.77054687 38.08570313 -20.71484375 38.09765625 C-23 38 -23 38 -24 37 C-24.08855161 34.3337397 -24.11524673 31.69352886 -24.09765625 29.02734375 C-24.0962413 28.22970108 -24.09482635 27.43205841 -24.09336853 26.61024475 C-24.08775316 24.05262565 -24.07519812 21.49509282 -24.0625 18.9375 C-24.05748698 17.20768355 -24.05292373 15.47786574 -24.04882812 13.74804688 C-24.03777875 9.49866447 -24.02050386 5.24934688 -24 1 C-20.7 1 -17.4 1 -14 1 C-13.67 1.66 -13.34 2.32 -13 3 C-12.34 2.505 -11.68 2.01 -11 1.5 C-7.2571311 -0.37143445 -4.07067311 -0.71835408 0 0 Z " fill="#202020" transform="translate(450,233)"/>
<path d="M0 0 C0 3.3 0 6.6 0 10 C2.31 10.33 4.62 10.66 7 11 C7 13.97 7 16.94 7 20 C4.69 20.33 2.38 20.66 0 21 C0 26.28 0 31.56 0 37 C2.64 37.33 5.28 37.66 8 38 C7.85950482 39.47968324 7.71245174 40.95874516 7.5625 42.4375 C7.48128906 43.26121094 7.40007812 44.08492188 7.31640625 44.93359375 C7 47 7 47 6 48 C1.10875334 48.43455291 -3.67179498 48.54600295 -8 46 C-10.83074098 42.9265507 -11.36518088 40.93703713 -11.29296875 36.796875 C-11.28330078 35.8171875 -11.27363281 34.8375 -11.26367188 33.828125 C-11.23853516 32.81234375 -11.21339844 31.7965625 -11.1875 30.75 C-11.17396484 29.71875 -11.16042969 28.6875 -11.14648438 27.625 C-11.11117607 25.08280208 -11.06186036 22.54166777 -11 20 C-11.99 20.33 -12.98 20.66 -14 21 C-14.99 20.67 -15.98 20.34 -17 20 C-17 17.03 -17 14.06 -17 11 C-15.02 11 -13.04 11 -11 11 C-11 8.36 -11 5.72 -11 3 C-9.73160474 2.49384702 -8.46016898 1.99530901 -7.1875 1.5 C-6.12595703 1.08234375 -6.12595703 1.08234375 -5.04296875 0.65625 C-3 0 -3 0 0 0 Z " fill="#252525" transform="translate(360,223)"/>
<path d="M0 0 C3.3 0 6.6 0 10 0 C10.33 0.66 10.66 1.32 11 2 C11.99 1.34 12.98 0.68 14 0 C17.02329256 -0.2610788 19.95876242 -0.08815181 23 0 C23.33 2.97 23.66 5.94 24 9 C21.32655418 10.33672291 18.83406297 10.26803708 15.875 10.42578125 C13.85240633 10.8234964 13.85240633 10.8234964 12.90869141 12.71069336 C11.8704839 15.32629567 11.68392724 17.39408576 11.5859375 20.203125 C11.52792969 21.67265625 11.52792969 21.67265625 11.46875 23.171875 C11.42234375 24.69554687 11.42234375 24.69554687 11.375 26.25 C11.31699219 27.796875 11.31699219 27.796875 11.2578125 29.375 C11.16368326 31.9164894 11.07805021 34.45797433 11 37 C9.35425434 37.02688151 7.70838587 37.04634123 6.0625 37.0625 C5.14597656 37.07410156 4.22945313 37.08570313 3.28515625 37.09765625 C1 37 1 37 0 36 C-0.08855161 33.3337397 -0.11524673 30.69352886 -0.09765625 28.02734375 C-0.0962413 27.22970108 -0.09482635 26.43205841 -0.09336853 25.61024475 C-0.08775316 23.05262565 -0.07519812 20.49509282 -0.0625 17.9375 C-0.05748698 16.20768355 -0.05292373 14.47786574 -0.04882812 12.74804688 C-0.03777875 8.49866447 -0.02050386 4.24934688 0 0 Z " fill="#292929" transform="translate(282,234)"/>
<path d="M0 0 C3.63 0 7.26 0 11 0 C11 12.21 11 24.42 11 37 C7.37 37 3.74 37 0 37 C0 24.79 0 12.58 0 0 Z " fill="#2A2A2A" transform="translate(42,234)"/>
<path d="M0 0 C3.63 0 7.26 0 11 0 C11 12.21 11 24.42 11 37 C7.7 37 4.4 37 1 37 C0 36 0 36 -0.11352539 32.58178711 C-0.11336628 31.06363012 -0.10767226 29.54546771 -0.09765625 28.02734375 C-0.0962413 27.22970108 -0.09482635 26.43205841 -0.09336853 25.61024475 C-0.08775316 23.05262565 -0.07519812 20.49509282 -0.0625 17.9375 C-0.05748698 16.20768355 -0.05292373 14.47786574 -0.04882812 12.74804688 C-0.03777875 8.49866447 -0.02050386 4.24934688 0 0 Z " fill="#2A2A2A" transform="translate(371,234)"/>
<path d="M0 0 C2.4375 2.1875 2.4375 2.1875 4 5 C4 8.24570608 3.50123855 9.48086008 1.25 11.8125 C-1.49884554 13.26327959 -2.93447101 13.53646757 -6 13 C-8.375 11.4375 -8.375 11.4375 -10 9 C-9.9375 5.375 -9.9375 5.375 -9 2 C-5.50434664 -0.33043558 -4.1134271 -0.58763244 0 0 Z " fill="#6BBCD1" transform="translate(116,240)"/>
<path d="M0 0 C3 2 3 2 3.9375 4.3125 C4 7 4 7 2.5 9.8125 C0 12 0 12 -3.5625 12.5 C-7 12 -7 12 -8.9375 10.875 C-10.50422245 8.11019567 -10.38976435 6.11811483 -10 3 C-7.71662927 -1.02947777 -4.2161407 -0.37644113 0 0 Z " fill="#6DC1D3" transform="translate(51,219)"/>
<path d="M0 0 C1.9375 1.125 1.9375 1.125 3 3 C3.38976435 6.11811483 3.50422245 8.11019567 1.9375 10.875 C-1.1069286 12.64273274 -3.5631012 12.36823916 -7 12 C-8.9375 10.875 -8.9375 10.875 -10 9 C-10.38976435 5.88188517 -10.50422245 3.88980433 -8.9375 1.125 C-5.8930714 -0.64273274 -3.4368988 -0.36823916 0 0 Z " fill="#23A0C0" transform="translate(380,219)"/>
<path d="M0 0 C1.175625 0.0825 2.35125 0.165 3.5625 0.25 C5.7144437 3.47791555 5.76336443 4.53400809 5.5625 8.25 C4.9025 7.92 4.2425 7.59 3.5625 7.25 C2.02226004 7.18049459 0.47915012 7.16547643 -1.0625 7.1875 C-1.87976562 7.19652344 -2.69703125 7.20554688 -3.5390625 7.21484375 C-4.16554687 7.22644531 -4.79203125 7.23804688 -5.4375 7.25 C-4.40543117 0.32039499 -4.40543117 0.32039499 0 0 Z " fill="#3AA4C3" transform="translate(47.4375,218.75)"/>
<path d="M0 0 C3.3 0 6.6 0 10 0 C10.33 0.66 10.66 1.32 11 2 C11.99 1.67 12.98 1.34 14 1 C13.34 2.32 12.68 3.64 12 5 C11.01 5 10.02 5 9 5 C9 3.68 9 2.36 9 1 C6.36 1 3.72 1 1 1 C1 12.55 1 24.1 1 36 C0.67 36 0.34 36 0 36 C0 24.12 0 12.24 0 0 Z " fill="#BFBFBF" transform="translate(426,234)"/>
<path d="M0 0 C0.66 0 1.32 0 2 0 C3.39935013 2.79870027 3.25265405 4.90498792 3 8 C1.9375 9.875 1.9375 9.875 0 11 C-5.90954774 11.63316583 -5.90954774 11.63316583 -8.9375 9.875 C-10.44484863 7.214973 -10.19986253 4.99793795 -10 2 C-9.34 1.67 -8.68 1.34 -8 1 C-7.67 3.64 -7.34 6.28 -7 9 C-4.36 8.67 -1.72 8.34 1 8 C0.67 5.36 0.34 2.72 0 0 Z " fill="#7EC4D6" transform="translate(380,220)"/>
<path d="M0 0 C1.134375 0.020625 2.26875 0.04125 3.4375 0.0625 C3.4375 0.3925 3.4375 0.7225 3.4375 1.0625 C1.4575 1.0625 -0.5225 1.0625 -2.5625 1.0625 C-2.8925 3.0425 -3.2225 5.0225 -3.5625 7.0625 C-1.9125 6.7325 -0.2625 6.4025 1.4375 6.0625 C1.4375 6.7225 1.4375 7.3825 1.4375 8.0625 C2.0975 8.3925 2.7575 8.7225 3.4375 9.0625 C1.1275 9.3925 -1.1825 9.7225 -3.5625 10.0625 C-5.05356457 7.08037087 -4.68191467 4.34640342 -4.5625 1.0625 C-3.5625 0.0625 -3.5625 0.0625 0 0 Z " fill="#42ABCB" transform="translate(376.5625,218.9375)"/>
<path d="M0 0 C1.2065625 0.0309375 1.2065625 0.0309375 2.4375 0.0625 C2.1075 2.3725 1.7775 4.6825 1.4375 7.0625 C-0.2125 6.7325 -1.8625 6.4025 -3.5625 6.0625 C-3.605221 4.39638095 -3.60313832 2.72867115 -3.5625 1.0625 C-2.5625 0.0625 -2.5625 0.0625 0 0 Z " fill="#20A3C8" transform="translate(112.5625,242.9375)"/>
<path d="M0 0 C2.97 0 5.94 0 9 0 C9.33 0.66 9.66 1.32 10 2 C10.99 1.67 11.98 1.34 13 1 C12.34 2.32 11.68 3.64 11 5 C10.01 5 9.02 5 8 5 C8 3.68 8 2.36 8 1 C5.36 1 2.72 1 0 1 C0 0.67 0 0.34 0 0 Z " fill="#777777" transform="translate(427,234)"/>
<path d="M0 0 C-1.49097658 3.7952131 -3.75700849 5.61042731 -7 8 C-6.44414399 4.1090079 -4.34122117 0 0 0 Z " fill="#4D4D4D" transform="translate(177,235)"/>
</svg>
