<svg width="76" height="54" viewBox="0 0 76 54" fill="none" xmlns="http://www.w3.org/2000/svg">
<g clip-path="url(#clip0_4488_2594)">
<path d="M18.5217 14.5974C17.9321 14.5155 17.3315 14.5733 16.7683 14.7661C16.2051 14.9588 15.6951 15.281 15.2792 15.7069L4.84387 26.4159C4.45837 26.8068 3.94351 27.0437 3.39584 27.082C2.84817 27.1203 2.30533 26.9576 1.86914 26.6242L35.1861 52.3466C35.9825 52.9618 36.8923 53.4141 37.8635 53.6775C38.8348 53.941 39.8484 54.0104 40.8465 53.882C41.8446 53.7535 42.8077 53.4296 43.6805 52.9289C44.5534 52.4281 45.3191 51.7602 45.9338 50.9634C46.0171 50.8563 46.0974 50.7492 46.1717 50.6391L65.7068 22.3792C65.9442 22.0363 66.2719 21.7658 66.6536 21.5978C67.0354 21.4298 67.4562 21.3708 67.8694 21.4273L18.5217 14.5974Z" fill="url(#paint0_linear_4488_2594)"/>
<path d="M69.7495 34.7719L54.2065 38.99L65.686 22.3792C65.9148 22.0484 66.2279 21.7848 66.5929 21.6158C66.9578 21.4467 67.3614 21.3784 67.7616 21.4179C68.1619 21.4573 68.5443 21.6031 68.8693 21.8401C69.1942 22.0771 69.4499 22.3968 69.6097 22.7659L73.5333 31.8507C73.8226 32.5213 74.3536 33.0586 75.0207 33.3559L69.7495 34.7719Z" fill="url(#paint1_linear_4488_2594)"/>
<path d="M4.32317 2.99588C4.44224 2.23582 4.25854 1.45938 3.81151 0.833252L30.3996 16.2483L18.5215 14.5973C17.9319 14.5155 17.3314 14.5733 16.7682 14.766C16.205 14.9587 15.695 15.281 15.2791 15.7069L4.84374 26.4159C4.5104 26.7578 4.07701 26.9849 3.60616 27.0644C3.13532 27.1439 2.65139 27.0716 2.2243 26.858C1.7972 26.6445 1.44904 26.3007 1.23012 25.8764C1.01119 25.452 0.932826 24.969 1.00635 24.4972L4.32317 2.99588Z" fill="url(#paint2_linear_4488_2594)"/>
<path d="M26.5117 27.4274V31.1428H25.0719V27.7487C25.0861 27.6339 25.0742 27.5175 25.0369 27.408C24.9996 27.2986 24.938 27.199 24.8566 27.1168C24.7753 27.0346 24.6764 26.972 24.5674 26.9335C24.4583 26.8951 24.342 26.8819 24.2271 26.8949C24.0064 26.8973 23.7879 26.9386 23.5816 27.0169V31.1428H22.1388V26.0858C22.8427 25.7871 23.5966 25.6236 24.361 25.6039C25.8424 25.6039 26.5117 26.3476 26.5117 27.4274ZM48.0636 27.8796L47.2812 27.6148C46.9629 27.5018 46.8499 27.3679 46.8499 27.2132C46.8499 26.9961 47.067 26.8414 47.4657 26.8414C47.9245 26.8584 48.3725 26.986 48.7716 27.2132L49.4022 26.0918C48.7993 25.7748 48.129 25.6075 47.4478 25.6039C46.2579 25.6039 45.3477 26.303 45.3477 27.3114C45.3477 28.3198 46.0556 28.7333 46.7071 28.9475L47.3943 29.1736C47.7542 29.2985 47.9297 29.3997 47.9297 29.6257C47.9297 29.8518 47.7453 30.0065 47.2604 30.0065C46.7628 29.9918 46.2777 29.8472 45.8534 29.5871L45.2346 30.7294C45.8607 31.075 46.5661 31.2514 47.2812 31.241C48.4711 31.241 49.4409 30.5628 49.4409 29.4829C49.4409 28.5786 48.8757 28.1592 48.0636 27.8796ZM16.1418 30.0006C15.8443 30.0006 15.7313 29.8548 15.7313 29.5157V23.7239H14.2915V29.9292C14.2915 30.8216 14.8448 31.244 15.6896 31.244C16.0644 31.2466 16.4368 31.1842 16.7903 31.0596L16.6356 29.9173C16.4752 29.9661 16.3093 29.994 16.1418 30.0006ZM30.3193 23.7239H31.7502V30.771C31.0566 31.0779 30.3073 31.2389 29.5489 31.244C28.0615 31.244 27.3357 30.3516 27.3357 29.2688V27.4839C27.3357 26.4041 28.0556 25.6218 29.302 25.6218C29.6442 25.6223 29.9843 25.6755 30.3104 25.7794L30.3193 23.7239ZM30.3193 26.9663C30.0973 26.8886 29.8644 26.8464 29.6292 26.8414C29.5099 26.8348 29.3906 26.8545 29.2797 26.8991C29.1689 26.9437 29.0692 27.0121 28.9878 27.0996C28.9063 27.187 28.8451 27.2912 28.8084 27.405C28.7717 27.5187 28.7604 27.6391 28.7754 27.7576V29.0635C28.7622 29.1906 28.7776 29.3191 28.8205 29.4394C28.8635 29.5598 28.933 29.6689 29.0237 29.7589C29.1145 29.8488 29.2243 29.9172 29.3451 29.959C29.4658 30.0009 29.5944 30.015 29.7214 30.0006C29.9244 30.0018 30.1259 29.9665 30.3164 29.8964L30.3193 26.9663ZM21.3595 27.7874V28.8999H18.4978V28.9921C18.4856 29.1268 18.5031 29.2626 18.5489 29.3898C18.5947 29.5171 18.6677 29.6328 18.7629 29.7288C18.8582 29.8249 18.9732 29.899 19.1001 29.9459C19.2269 29.9929 19.3625 30.0115 19.4973 30.0006C19.9723 29.9954 20.4374 29.864 20.8448 29.6198L21.2464 30.7621C20.6642 31.0968 20.0022 31.2674 19.3307 31.2559C18.1676 31.2559 17.058 30.6282 17.058 29.0338V27.9034C17.058 26.5052 17.9028 25.6188 19.2385 25.6188C20.6366 25.6039 21.3595 26.5439 21.3595 27.7874ZM19.9673 27.7279C19.9673 27.2132 19.7323 26.8533 19.2504 26.8533C18.7685 26.8533 18.5097 27.2132 18.5097 27.7279V27.8201H19.9673V27.7279ZM34.5434 30.0006C34.246 30.0006 34.1329 29.8548 34.1329 29.5157V23.7239H32.6932V29.9292C32.6932 30.8216 33.2465 31.244 34.0913 31.244C34.4661 31.2466 34.8385 31.1842 35.1919 31.0596L35.0373 29.9173C34.8779 29.9658 34.7129 29.9938 34.5464 30.0006H34.5434ZM44.6575 27.3233V30.768C43.9728 31.0688 43.2365 31.2345 42.4889 31.2559C41.0789 31.2559 40.3055 30.5776 40.3055 29.471C40.3055 28.534 40.9956 27.8349 42.2212 27.8349H43.2177V27.6089C43.2177 27.1151 42.8489 26.9187 42.3253 26.9187C41.7702 26.9455 41.2283 27.097 40.7398 27.362L40.597 26.065C41.2394 25.7605 41.9416 25.603 42.6525 25.6039C43.4974 25.6039 44.6575 25.9787 44.6575 27.3263V27.3233ZM43.2177 28.8969H42.4592C42.0189 28.8969 41.7601 29.1319 41.7601 29.4532C41.7601 29.834 42.0993 30.0481 42.5722 30.0481C42.7922 30.0469 43.0108 30.0128 43.2207 29.947L43.2177 28.8969ZM39.7611 27.7844V28.8969H36.9024V28.9891C36.8898 29.1237 36.9068 29.2594 36.9522 29.3866C36.9977 29.5139 37.0705 29.6297 37.1655 29.7258C37.2604 29.8219 37.3753 29.8961 37.5021 29.943C37.6288 29.99 37.7642 30.0086 37.8989 29.9976C38.3739 29.9925 38.839 29.861 39.2465 29.6168L39.6481 30.7591C39.066 31.0901 38.4048 31.2567 37.7353 31.241C36.5722 31.241 35.4626 30.6133 35.4626 29.0189V27.8885C35.4626 26.4904 36.3045 25.6039 37.6431 25.6039C39.0412 25.6039 39.7611 26.5439 39.7611 27.7874V27.7844ZM38.3719 27.7249C38.3719 27.2103 38.1369 26.8503 37.652 26.8503C37.1672 26.8503 36.9113 27.2103 36.9113 27.7249V27.8171H38.3719V27.7249ZM54.2986 27.7844V28.8969H51.4369V28.9891C51.4248 29.1238 51.4422 29.2596 51.488 29.3868C51.5338 29.5141 51.6069 29.6298 51.7021 29.7259C51.7973 29.8219 51.9124 29.896 52.0392 29.9429C52.166 29.9899 52.3016 30.0085 52.4364 29.9976C52.9114 29.9925 53.3765 29.861 53.784 29.6168L54.1856 30.7591C53.6055 31.0941 52.9456 31.2658 52.2758 31.2559C51.1127 31.2559 50.0031 30.6282 50.0031 29.0338V27.9034C50.0031 26.5052 50.8479 25.6188 52.1836 25.6188C53.5787 25.6039 54.2986 26.5439 54.2986 27.7874V27.7844ZM52.9094 27.7249C52.9094 27.2103 52.6714 26.8503 52.1895 26.8503C51.7076 26.8503 51.4488 27.2103 51.4488 27.7249V27.8171H52.9094V27.7249Z" fill="white"/>
</g>
<defs>
<linearGradient id="paint0_linear_4488_2594" x1="65.5134" y1="16.6321" x2="10.1508" y2="43.6337" gradientUnits="userSpaceOnUse">
<stop stop-color="#00AACD"/>
<stop offset="0.13" stop-color="#0EB1BB"/>
<stop offset="0.4" stop-color="#31C28A"/>
<stop offset="0.77" stop-color="#6ADD3E"/>
<stop offset="1" stop-color="#91F00A"/>
</linearGradient>
<linearGradient id="paint1_linear_4488_2594" x1="54.2065" y1="30.1908" x2="75.0177" y2="30.1908" gradientUnits="userSpaceOnUse">
<stop stop-color="#4BA0A5"/>
<stop offset="1" stop-color="#9D9D9D"/>
</linearGradient>
<linearGradient id="paint2_linear_4488_2594" x1="0.976599" y1="13.9637" x2="30.3996" y2="13.9637" gradientUnits="userSpaceOnUse">
<stop stop-color="#C3FF00"/>
<stop offset="1" stop-color="#FFFF00"/>
</linearGradient>
<clipPath id="clip0_4488_2594">
<rect width="74.041" height="53.1113" fill="white" transform="translate(0.979492 0.833252)"/>
</clipPath>
</defs>
</svg>
