<?xml version="1.0" encoding="UTF-8" standalone="no"?>
<!DOCTYPE svg PUBLIC "-//W3C//DTD SVG 1.1//EN" "http://www.w3.org/Graphics/SVG/1.1/DTD/svg11.dtd">
<svg xmlns="http://www.w3.org/2000/svg" version="1.1" viewBox="0.00 0.00 400.00 400.00">
<path fill="#1c1c1c" d="
  M 244.74 159.33
  L 253.23 159.24
  A 0.72 0.72 0.0 0 0 253.95 158.52
  L 253.98 124.70
  Q 253.98 123.67 252.95 123.68
  L 144.91 123.74
  A 0.59 0.51 0.0 0 0 144.32 124.25
  L 144.37 158.37
  A 0.76 0.76 0.0 0 0 145.12 159.13
  L 154.04 159.20
  A 0.75 0.74 0.4 0 0 154.80 158.46
  L 154.77 135.41
  A 0.81 0.81 0.0 0 1 155.58 134.60
  L 193.36 134.58
  Q 193.89 134.58 193.89 135.11
  L 193.95 197.80
  Q 193.95 198.29 193.45 198.29
  L 105.72 198.23
  A 0.77 0.76 0.0 0 1 104.95 197.47
  L 104.98 85.45
  Q 104.98 84.88 105.55 84.88
  L 292.15 84.79
  A 0.62 0.61 0.0 0 1 292.77 85.40
  L 292.77 197.48
  A 1.02 1.02 0.0 0 1 291.51 198.47
  Q 290.76 198.28 289.93 198.28
  Q 243.77 198.14 205.38 198.40
  Q 204.75 198.40 204.75 197.77
  L 204.72 134.74
  Q 204.72 134.20 205.26 134.20
  L 243.26 134.26
  Q 243.75 134.26 243.75 134.76
  L 243.79 158.39
  A 0.94 0.94 0.0 0 0 244.74 159.33
  Z
  M 268.25 172.76
  A 0.56 0.56 0.0 0 1 267.69 173.32
  L 230.31 173.31
  A 0.56 0.56 0.0 0 1 229.75 172.75
  L 229.60 148.79
  A 0.56 0.56 0.0 0 0 229.03 148.23
  L 219.30 148.49
  A 0.56 0.56 0.0 0 0 218.75 149.05
  L 218.75 183.49
  A 0.56 0.56 0.0 0 0 219.31 184.05
  L 278.01 184.03
  A 0.56 0.56 0.0 0 0 278.57 183.47
  L 278.60 99.41
  A 0.56 0.56 0.0 0 0 278.04 98.85
  L 119.79 98.87
  A 0.56 0.56 0.0 0 0 119.23 99.43
  L 119.23 183.48
  A 0.56 0.56 0.0 0 0 119.79 184.04
  L 179.22 184.03
  A 0.56 0.56 0.0 0 0 179.78 183.47
  L 179.78 148.89
  A 0.56 0.56 0.0 0 0 179.22 148.33
  L 169.55 148.31
  A 0.56 0.56 0.0 0 0 168.99 148.87
  L 169.06 172.60
  A 0.56 0.56 0.0 0 1 168.50 173.16
  L 130.78 173.24
  A 0.56 0.56 0.0 0 1 130.22 172.68
  L 130.19 110.31
  A 0.56 0.56 0.0 0 1 130.75 109.75
  L 267.64 109.73
  A 0.56 0.56 0.0 0 1 268.20 110.29
  L 268.25 172.76
  Z"
/>
<path fill="#1c1c1c" d="
  M 234.75 244.71
  L 227.75 244.59
  Q 227.64 244.58 227.63 244.47
  Q 227.39 241.57 227.61 239.52
  A 0.26 0.26 0.0 0 1 227.87 239.28
  L 240.43 239.25
  Q 241.12 239.25 241.12 239.93
  L 241.08 255.94
  A 0.93 0.92 78.4 0 1 240.52 256.79
  Q 228.88 261.67 219.02 258.87
  Q 209.51 256.17 205.93 248.10
  C 202.90 241.26 203.48 232.47 208.16 226.54
  C 216.10 216.47 229.08 216.38 240.01 221.55
  Q 240.19 221.63 240.19 221.83
  L 240.29 227.15
  Q 240.29 227.34 240.12 227.25
  Q 233.66 224.00 227.61 223.41
  C 220.79 222.75 213.41 226.54 211.01 233.27
  Q 209.59 237.25 210.10 241.52
  Q 210.62 245.76 213.44 249.03
  Q 217.85 254.13 225.63 254.61
  Q 229.47 254.84 234.69 253.02
  Q 235.24 252.83 235.24 252.24
  L 235.28 245.25
  Q 235.28 244.72 234.75 244.71
  Z"
/>
<path fill="#1c1c1c" d="
  M 190.6173 238.6340
  A 22.03 20.98 -0.9 0 1 168.9195 259.9574
  A 22.03 20.98 -0.9 0 1 146.5627 239.3260
  A 22.03 20.98 -0.9 0 1 168.2605 218.0026
  A 22.03 20.98 -0.9 0 1 190.6173 238.6340
  Z
  M 184.5345 239.4088
  A 16.00 15.62 1.5 0 0 168.9489 223.3754
  A 16.00 15.62 1.5 0 0 152.5455 238.5712
  A 16.00 15.62 1.5 0 0 168.1311 254.6046
  A 16.00 15.62 1.5 0 0 184.5345 239.4088
  Z"
/>
<path fill="#1c1c1c" d="
  M 264.14 247.37
  L 258.93 258.95
  A 0.32 0.32 0.0 0 1 258.65 259.13
  L 253.57 259.24
  A 0.32 0.32 0.0 0 1 253.26 258.79
  L 270.37 218.62
  A 0.32 0.32 0.0 0 1 270.69 218.43
  L 274.52 218.73
  A 0.32 0.32 0.0 0 1 274.79 218.91
  L 292.54 258.76
  A 0.32 0.32 0.0 0 1 292.24 259.21
  L 287.11 259.16
  A 0.32 0.32 0.0 0 1 286.82 258.98
  L 281.40 247.36
  A 0.32 0.32 0.0 0 0 281.11 247.18
  L 264.43 247.18
  A 0.32 0.32 0.0 0 0 264.14 247.37
  Z
  M 266.48 241.59
  A 0.32 0.32 0.0 0 0 266.78 242.04
  L 278.47 241.98
  A 0.32 0.32 0.0 0 0 278.77 241.53
  L 272.85 228.00
  A 0.32 0.32 0.0 0 0 272.26 228.00
  L 266.48 241.59
  Z"
/>
<path fill="#1c1c1c" d="
  M 124.83 224.44
  L 124.90 258.75
  A 0.45 0.45 0.0 0 1 124.45 259.20
  L 119.55 259.24
  A 0.45 0.45 0.0 0 1 119.10 258.79
  L 119.18 224.44
  A 0.45 0.45 0.0 0 0 118.73 223.99
  L 105.51 223.95
  A 0.45 0.45 0.0 0 1 105.06 223.51
  L 105.00 219.30
  A 0.45 0.45 0.0 0 1 105.45 218.84
  L 138.57 218.77
  A 0.45 0.45 0.0 0 1 139.02 219.22
  L 139.03 223.50
  A 0.45 0.45 0.0 0 1 138.58 223.95
  L 125.28 223.99
  A 0.45 0.45 0.0 0 0 124.83 224.44
  Z"
/>
</svg>
