<?xml version="1.0" encoding="UTF-8"?>
<svg version="1.1" xmlns="http://www.w3.org/2000/svg" width="3450" height="626">
<path d="M0 0 C4.6498025 0.00248988 9.29958577 -0.00657474 13.94938099 -0.01403749 C23.03545479 -0.02672458 32.12149895 -0.02858568 41.20758011 -0.02623723 C48.60108873 -0.02444705 55.99458842 -0.02621862 63.38809597 -0.03046167 C64.44433103 -0.03105686 65.50056609 -0.03165205 66.58880827 -0.03226527 C68.73524958 -0.03347715 70.88169088 -0.03469128 73.02813218 -0.03590765 C93.11472818 -0.04676026 113.20130736 -0.0446316 133.2879043 -0.0385228 C151.6160396 -0.03335651 169.94412171 -0.04460558 188.2722465 -0.06362102 C207.14417601 -0.08304879 226.01608042 -0.09124673 244.88801998 -0.08749777 C255.46204664 -0.0855931 266.03602806 -0.08800119 276.61004651 -0.10221231 C285.61271492 -0.11419031 294.61531025 -0.11545972 303.61797979 -0.10342214 C308.20026052 -0.09757796 312.782408 -0.09630846 317.36467946 -0.10842454 C340.61654468 -0.16573411 363.61665782 0.19062064 386.30706227 5.96360838 C387.33226979 6.21924559 388.35747731 6.4748828 389.41375172 6.73826659 C425.60386663 16.08744927 457.76301396 34.47564745 484.68206227 60.27610838 C485.26745778 60.82895506 485.85285328 61.38180174 486.45598805 61.95140135 C500.93159169 75.67255132 512.74853883 90.99015232 522.68206227 108.27610838 C523.12791676 109.04874022 523.57377125 109.82137206 524.03313649 110.61741698 C544.76915611 147.05968318 551.83954371 186.45716719 551.82732594 227.88548338 C551.83032412 229.93064493 551.83372815 231.97580591 551.83750355 234.02096617 C551.84628225 239.54003638 551.84867911 245.05909104 551.84931934 250.57816756 C551.85003351 254.03816189 551.85217476 257.49815237 551.85481656 260.95814574 C551.86405079 273.06299648 551.86815399 285.16783627 551.867365 297.27269042 C551.86676523 308.50038884 551.87730231 319.72803907 551.89310867 330.95572531 C551.90624972 340.64035002 551.91154614 350.32495911 551.91090959 360.00959265 C551.91065646 365.77361942 551.91340404 371.53760331 551.92408764 377.30162108 C551.9338795 382.73215466 551.93377316 388.16260538 551.92657101 393.59314215 C551.92553868 395.56735987 551.9278058 397.54158305 551.93393147 399.51579154 C552.03768698 435.32195106 546.62108585 469.91361316 530.68206227 502.27610838 C530.27471852 503.11383788 529.86737477 503.95156737 529.44768727 504.8146826 C523.24626391 517.462691 516.23965497 529.08635198 507.68206227 540.27610838 C506.93440602 541.25579588 506.18674977 542.23548338 505.41643727 543.24485838 C492.71824492 559.23517467 478.16836686 573.25338555 461.68206227 585.27610838 C461.12986012 585.67942381 460.57765797 586.08273924 460.00872242 586.49827635 C424.50239235 612.06901798 381.2679315 625.4446226 337.70102894 625.41655028 C336.08631768 625.41913784 334.47160705 625.42215208 332.85689729 625.42555368 C328.43921194 625.43358131 324.02154287 625.43541088 319.60385108 625.43615115 C314.83125173 625.43800916 310.05866068 625.4455603 305.28606617 625.45228636 C294.8578961 625.46584084 284.42972988 625.47189012 274.00155246 625.47629702 C267.48219086 625.47906477 260.96283073 625.48330312 254.44347012 625.48780119 C236.37107861 625.49999092 218.29868827 625.51029028 200.22629273 625.51367629 C199.07065552 625.51389585 197.91501831 625.51411542 196.7243618 625.51434164 C195.56605288 625.51455992 194.40774397 625.51477819 193.21433479 625.51500309 C190.86739564 625.51544654 188.52045649 625.5158931 186.17351735 625.51634276 C184.42729524 625.5166749 184.42729524 625.5166749 182.64579592 625.51701376 C163.80097623 625.52095808 144.95619529 625.53840227 126.11139055 625.56170228 C106.7346484 625.5854653 87.35792564 625.59788041 67.98116869 625.5990442 C57.11367048 625.59995827 46.24622275 625.60564259 35.37873852 625.62386382 C26.1210509 625.63933188 16.86342937 625.64434602 7.60573127 625.63612571 C2.89021489 625.6322426 -1.82516868 625.63303307 -6.54066837 625.64718306 C-42.71200827 625.74955754 -42.71200827 625.74955754 -60.31793773 622.27610838 C-61.42459694 622.06716067 -62.53125616 621.85821295 -63.6714505 621.64293349 C-66.09563023 621.16758538 -68.48390523 620.62420986 -70.88043773 620.02610838 C-71.73863109 619.81413817 -72.59682445 619.60216795 -73.48102367 619.3837744 C-121.04412513 607.23195018 -164.07416816 578.74240525 -193.31793773 539.27610838 C-194.16817518 538.15629928 -195.01843544 537.03650749 -195.86871898 535.91673338 C-202.62271228 526.88395373 -208.12378859 517.27440974 -213.31793773 507.27610838 C-213.67629711 506.5920996 -214.03465648 505.90809081 -214.40387523 505.20335448 C-222.7669115 489.03141169 -228.42681097 471.68775289 -232.19293773 453.90110838 C-232.38396068 453.00061766 -232.57498363 452.10012694 -232.77179515 451.17234862 C-235.98366705 434.87118834 -236.61496495 418.70417574 -236.59259593 402.1428076 C-236.59695469 399.98207483 -236.60214166 397.8213436 -236.60808361 395.66061461 C-236.62136192 389.84412115 -236.62206468 384.02769312 -236.61952031 378.21118748 C-236.61844265 373.3288713 -236.62335427 368.44656793 -236.62812573 363.56425452 C-236.639183 352.0297193 -236.63968013 340.49521664 -236.63361156 328.9606787 C-236.62757901 317.12397435 -236.63987334 305.28738909 -236.66118163 293.45070505 C-236.67888902 283.23263416 -236.68478455 273.01460086 -236.68154389 262.79651523 C-236.67974489 256.71835909 -236.68222678 250.64028785 -236.69625843 244.56214583 C-236.70898144 238.83767994 -236.70675828 233.11339737 -236.69384754 227.38893378 C-236.69151308 225.30912455 -236.69410121 223.22930182 -236.70247066 221.14950812 C-236.9296287 160.22329045 -214.17296249 105.08874951 -171.75543773 61.46360838 C-166.88446581 56.72381165 -161.64962348 52.48308606 -156.31793773 48.27610838 C-155.34211742 47.48333495 -154.36629711 46.69056151 -153.36090648 45.87376463 C-144.50963492 38.82614841 -135.09638753 32.9500237 -125.31793773 27.27610838 C-124.68130199 26.90211913 -124.04466625 26.52812987 -123.38873851 26.1428076 C-85.3567511 3.99410652 -42.99845144 -0.04321552 0 0 Z M-43.63043773 178.28392088 C-53.10359492 189.46750923 -58.47503825 202.82240371 -58.45837963 217.43409789 C-58.46135075 218.25140281 -58.46432187 219.06870774 -58.46738303 219.91077948 C-58.47604909 222.64731228 -58.47757652 225.38380123 -58.47907054 228.12034667 C-58.48370026 230.08350781 -58.48872513 232.04666805 -58.49411571 234.00982726 C-58.50722839 239.34274397 -58.51368267 244.6756481 -58.51812637 250.00857842 C-58.5210594 253.34263874 -58.52516469 256.67669563 -58.52963054 260.01075423 C-58.54330356 270.44867404 -58.55297072 280.88658601 -58.55683243 291.32451415 C-58.56131042 303.3612314 -58.57884717 315.39783494 -58.60783303 327.43451762 C-58.6294753 336.74596831 -58.6395381 346.05738707 -58.64087355 355.36886263 C-58.64191991 360.92646077 -58.64779157 366.48395199 -58.66569316 372.04152358 C-58.68221744 377.27330591 -58.68430819 382.50490146 -58.67555416 387.73670065 C-58.67478607 389.65103274 -58.67909622 391.56537505 -58.68901241 393.47968161 C-58.78489528 413.15232883 -54.68052711 430.76646178 -40.31793773 445.27610838 C-26.20236021 457.61241143 -11.23430648 462.75793552 7.33829701 462.65705931 C8.68805186 462.66052298 10.03780387 462.66529228 11.38755006 462.67124104 C15.06792276 462.68368363 18.74805999 462.6776117 22.42843318 462.66828239 C26.40875399 462.6614643 30.38903573 462.67198679 34.36934865 462.68022215 C42.15575905 462.69353273 49.94208249 462.6906936 57.72849625 462.68198423 C64.05966003 462.67519705 70.39079952 462.67429543 76.72196591 462.67755568 C78.075848 462.67824523 78.075848 462.67824523 79.45708125 462.67894871 C81.2909346 462.67990793 83.12478795 462.68088057 84.9586413 462.68186648 C102.13818885 462.69041267 119.31768831 462.68059862 136.49722797 462.66446538 C151.22203081 462.65106519 165.94676267 462.65338934 180.67156422 462.66722167 C197.78992058 462.68329505 214.90823482 462.68958637 232.02659768 462.68038487 C233.85384607 462.67942928 235.68109446 462.67848616 237.50834286 462.67755568 C238.40727351 462.67709285 239.30620416 462.67663003 240.23237513 462.67615318 C246.55174464 462.67356839 252.87108733 462.67792328 259.19045269 462.68499434 C266.89774002 462.6934292 274.60493574 462.69108767 282.31221264 462.67515211 C286.24081888 462.66729569 290.16927268 462.66413259 294.09787762 462.67409956 C297.70094625 462.68310202 301.30372252 462.67802339 304.90676499 462.66216691 C306.81309747 462.65727916 308.71945057 462.66696579 310.62576109 462.6773386 C329.15800526 462.55194089 343.31022227 455.74575443 356.79924977 443.32688963 C361.11007079 438.92381368 364.15572154 434.07440872 366.99456227 428.65110838 C367.32021168 428.0491162 367.6458611 427.44712401 367.98137867 426.82688963 C374.2163388 414.19485393 374.12137247 400.00119927 374.07024586 386.26219237 C374.07432112 384.40094251 374.0796683 382.53969508 374.08617604 380.67845213 C374.09974114 375.66816814 374.09459633 370.65807146 374.08503878 365.64778459 C374.07738684 360.3786292 374.08450293 355.10948872 374.08919728 349.84033263 C374.09463835 340.99671133 374.08750617 332.15316547 374.07317555 323.30955565 C374.0568472 313.11603164 374.06214561 302.92268766 374.07865477 292.729168 C374.09231074 283.94229201 374.09416941 275.1554699 374.08633876 266.36858672 C374.08168543 261.13578501 374.08097256 255.90306766 374.09094822 250.67027152 C374.09967591 245.74939311 374.09349104 240.82874473 374.07626545 235.90789092 C374.07233161 234.11253612 374.07338075 232.31716164 374.08005345 230.52181494 C374.14364664 211.65853106 371.35498551 195.6168997 359.68206227 180.27610838 C358.96018727 179.26548338 358.23831227 178.25485838 357.49456227 177.21360838 C347.64857313 165.92908187 333.28649461 159.38439232 318.68206227 157.27610838 C314.24058437 157.00067148 309.81181801 156.99732156 305.36281788 157.00868285 C304.05065883 157.00415173 302.73849977 156.99962062 301.38657832 156.9949522 C297.76872919 156.98279075 294.15097299 156.98297452 290.53310812 156.98534095 C286.62154323 156.98575087 282.71000746 156.97469328 278.79845631 156.96522582 C271.14360713 156.94865203 263.48878877 156.94311789 255.83392315 156.94200106 C249.60717766 156.94104877 243.38044228 156.93692947 237.15369999 156.93059981 C219.4751428 156.91299653 201.79660984 156.9037594 184.11804383 156.90526076 C183.16608886 156.90534067 182.21413389 156.90542058 181.2333318 156.90550292 C180.28020583 156.90558468 179.32707985 156.90566644 178.34507127 156.90575068 C162.90794239 156.9065631 147.47091118 156.88743402 132.03381054 156.85922618 C116.15899555 156.83044892 100.28422812 156.81668858 84.4093864 156.81841373 C75.50660818 156.81907601 66.60393234 156.81365525 57.70117772 156.79205763 C50.11949959 156.77378189 42.53797026 156.76955062 34.95627956 156.78307648 C31.09396551 156.78957433 27.23193636 156.78983989 23.36965001 156.77236998 C-2.69734935 156.66186378 -24.59731426 158.4577506 -43.63043773 178.28392088 Z " fill="#000000" transform="translate(2898.317937731743,-0.27610838413238525)"/>
<path d="M0 0 C1.01134858 -0.00453111 2.02269717 -0.00906223 3.06469268 -0.01373065 C6.45778146 -0.02640348 9.85071034 -0.0247524 13.24382019 -0.02310181 C15.67489835 -0.02908525 18.1059746 -0.03589037 20.53704834 -0.04345703 C26.45799915 -0.05930541 32.37891238 -0.06556624 38.29988007 -0.06668179 C43.1137715 -0.06763265 47.92764981 -0.07174485 52.74153709 -0.07808304 C66.39518475 -0.09569369 80.04880099 -0.10492223 93.70246009 -0.10342209 C94.80622924 -0.10330222 94.80622924 -0.10330222 95.93229675 -0.10317993 C96.66904323 -0.10309817 97.4057897 -0.10301641 98.16486182 -0.10293217 C110.10286802 -0.1021194 122.04074802 -0.12125525 133.97871772 -0.14945666 C146.24181821 -0.17819712 158.50485718 -0.19199631 170.7679922 -0.19026911 C177.65068847 -0.18960559 184.53325245 -0.19508104 191.41591835 -0.21662521 C197.889532 -0.23675936 204.3629385 -0.23615139 210.83656883 -0.22159195 C213.21173892 -0.2194992 215.58692636 -0.22423237 217.96206665 -0.23631287 C221.20640401 -0.25174467 224.4497753 -0.24246989 227.6940918 -0.22705078 C229.10145457 -0.24248147 229.10145457 -0.24248147 230.53724891 -0.25822389 C237.40678004 -0.18615683 242.64102979 1.43229301 247.96153259 5.8734436 C251.588212 10.37739134 254.30111075 15.07706182 256.86564636 20.25180054 C257.29955688 21.10687195 257.73346741 21.96194336 258.18052673 22.84292603 C259.55870079 25.563239 260.92355033 28.289968 262.28752136 31.01742554 C263.63397285 33.68846264 264.98320187 36.35808296 266.33274841 39.02755737 C267.2318782 40.806401 268.12994464 42.58578249 269.02696228 44.36569214 C272.42828659 51.10353893 275.9175944 57.79138379 279.44596863 64.46340942 C283.09846821 71.37033329 286.68706036 78.30872944 290.25611877 85.25906372 C292.07828173 88.8072054 293.90373321 92.35365507 295.72892761 95.90023804 C296.09452286 96.61076324 296.4601181 97.32128845 296.83679199 98.05334473 C301.97918602 108.04434329 307.15830348 118.01629574 312.33586121 127.98910522 C315.23835094 133.58087455 318.13776748 139.17423712 321.03752136 144.76742554 C324.52529048 151.49425377 328.01330547 158.22095406 331.50236511 164.94711304 C337.8374966 177.16078997 344.16565065 189.37803691 350.48500061 201.59988403 C354.99668194 210.32542482 359.51435829 219.04782901 364.03752136 227.76742554 C368.87732152 237.09742403 373.71009905 246.43101945 378.53752136 255.76742554 C385.69322629 269.60644769 392.8635 283.43788916 400.03752136 297.26742554 C407.52818556 311.70736205 415.01361724 326.14996341 422.48500061 340.59988403 C426.99668194 349.32542482 431.51435829 358.04782901 436.03752136 366.76742554 C440.87732152 376.09742403 445.71009905 385.43101945 450.53752136 394.76742554 C457.69322629 408.60644769 464.8635 422.43788916 472.03752136 436.26742554 C479.52784007 450.70669605 487.01274091 465.14872651 494.48399353 479.59786987 C501.32442918 492.82662692 508.17979718 506.04762296 515.03752136 519.26742554 C521.89552835 532.48777328 528.75117329 545.70931735 535.59187317 558.93862915 C540.82033835 569.04999857 546.05059644 579.16043431 551.28752136 589.26742554 C551.85873718 590.37078247 552.429953 591.4741394 553.01847839 592.6109314 C555.77819197 597.93561591 558.55208195 603.25199463 561.35783386 608.55258179 C561.87442566 609.53033569 562.39101746 610.5080896 562.92326355 611.51547241 C563.89163051 613.34552721 564.86345123 615.17376007 565.83927917 616.99984741 C566.26305847 617.80099976 566.68683777 618.6021521 567.12345886 619.42758179 C567.49519226 620.12504517 567.86692566 620.82250854 568.24992371 621.54110718 C569.03752136 623.26742554 569.03752136 623.26742554 569.03752136 625.26742554 C521.38666285 625.35301173 473.73579865 625.43261555 426.08488464 625.47914124 C425.37971059 625.47983152 424.67453654 625.48052181 423.94799358 625.48123301 C408.62290553 625.49619732 393.29781667 625.51004826 377.97272658 625.52275218 C370.45737805 625.5289889 362.94202973 625.53547167 355.42668152 625.54208374 C354.30487634 625.54306443 354.30487634 625.54306443 353.16040844 625.54406494 C328.91688897 625.56537419 304.67342775 625.6029326 280.42994358 625.64891164 C255.5179846 625.6960727 230.60605785 625.72685231 205.69405499 625.73700049 C202.17594482 625.73844128 198.65783476 625.74006946 195.13972473 625.74181175 C194.44730572 625.74214887 193.75488672 625.74248598 193.04148532 625.74283331 C181.8924596 625.74874343 170.74353352 625.77193778 159.59454844 625.80158571 C148.38783791 625.83101864 137.18122431 625.84186131 125.97446698 625.83493242 C119.90161206 625.83172318 113.82904974 625.83671626 107.75624657 625.86345291 C102.19823527 625.88774488 96.64071397 625.88903908 91.08268034 625.87192001 C89.07042842 625.86980353 87.0581462 625.87618017 85.04595411 625.89184145 C82.31210487 625.91188483 79.58002835 625.9011092 76.84620667 625.88266468 C75.67206523 625.90236728 75.67206523 625.90236728 74.47420377 625.92246792 C67.16534871 625.81090232 62.35700845 622.62580995 57.31510925 617.49935913 C54.62039547 613.67551723 52.59242754 609.77631883 50.59611511 605.55648804 C50.19167175 604.71974548 49.78722839 603.88300293 49.37052917 603.02090454 C48.06439561 600.31501157 46.76978864 597.60377278 45.47502136 594.89242554 C44.1228554 592.08486877 42.76774032 589.27874773 41.41253662 586.47265625 C40.51932114 584.62252923 39.62709293 582.77192524 38.73587036 580.9208374 C35.38280862 573.95984412 31.95793222 567.03948999 28.47502136 560.14242554 C24.33511623 551.92244872 20.33490518 543.6449107 16.39079285 535.32943726 C12.54518611 527.25523609 8.55284184 519.25797381 4.53752136 511.26742554 C-0.13325291 501.96577541 -4.76676294 492.64938793 -9.27497864 483.26742554 C-9.72486145 482.33672241 -10.17474426 481.40601929 -10.63825989 480.44711304 C-11.05075989 479.58344116 -11.46325989 478.71976929 -11.88825989 477.82992554 C-12.24315491 477.0887146 -12.59804993 476.34750366 -12.96369934 475.58383179 C-14.13047225 472.87780848 -15.03060305 470.0630523 -15.96247864 467.26742554 C136.99252136 466.77242554 136.99252136 466.77242554 293.03752136 466.26742554 C289.07752136 459.00742554 285.11752136 451.74742554 281.03752136 444.26742554 C279.02134321 440.44042071 277.01467815 436.61391462 275.03752136 432.76742554 C271.14895553 425.25736394 267.1743828 417.80327194 263.10002136 410.39242554 C258.22646852 401.52562129 253.53670439 392.57341637 248.89323425 383.58432007 C245.36037417 376.76308119 241.73985042 369.99804486 238.03752136 363.26742554 C233.18331566 354.44276135 228.51522201 345.53185791 223.89299011 336.58383179 C220.36019897 329.76276249 216.73976262 322.99788524 213.03752136 316.26742554 C208.75923101 308.48974202 204.61148018 300.65402911 200.53752136 292.76742554 C195.9690598 283.92388362 191.28212304 275.15770497 186.48674011 266.43539429 C182.39256803 258.9689173 178.45270976 251.42826034 174.53507996 243.86801147 C171.13793726 237.33003083 167.64960918 230.84876243 164.10002136 224.39242554 C159.80194148 216.57262051 155.63352013 208.69488983 151.53752136 200.76742554 C147.29247992 192.5636539 143.00148254 184.38850945 138.60002136 176.26742554 C138.12822449 175.39021851 137.65642761 174.51301147 137.17033386 173.60922241 C131.28860125 161.72441779 131.28860125 161.72441779 121.24064636 153.85726929 C115.60727077 152.34904284 110.20089075 152.46312944 104.78752136 154.70492554 C97.39242921 159.09420418 93.72006752 168.4547317 89.99064636 175.88461304 C89.53453979 176.78124664 89.07843323 177.67788025 88.60850525 178.60168457 C87.16286028 181.44593783 85.72484692 184.29396052 84.28752136 187.14242554 C82.39910398 190.87010972 80.50764301 194.59624447 78.61564636 198.32211304 C78.14893524 199.24234253 77.68222412 200.16257202 77.20137024 201.11068726 C73.73289988 207.93662366 70.19106792 214.72117927 66.61262512 221.48999023 C62.92683209 228.46315449 59.30745325 235.4691761 55.70549011 242.4859314 C53.87317471 246.05491464 52.03757579 249.6222075 50.20158386 253.18930054 C49.83986084 253.8920813 49.47813782 254.59486206 49.10545349 255.31893921 C46.10406259 261.14624928 43.0771472 266.95996717 40.03752136 272.76742554 C35.16387368 282.08014974 30.34578828 291.42084428 25.53752136 300.76742554 C20.2176932 311.10801494 14.87681022 321.43669973 9.48796082 331.74154663 C5.5468117 339.28142702 1.63186113 346.83472732 -2.27497864 354.39242554 C-2.58951996 355.00088318 -2.90406128 355.60934082 -3.22813416 356.23623657 C-4.83060578 359.33633805 -6.43276076 362.43660304 -8.03474426 365.53695679 C-11.19669938 371.65619938 -14.36071222 377.77437788 -17.52497864 383.89242554 C-17.99055176 384.79263428 -17.99055176 384.79263428 -18.4655304 385.71102905 C-25.86297558 400.01371775 -33.27716835 414.3077139 -40.69197083 428.60140991 C-47.28927507 441.31973248 -53.881748 454.0405208 -60.46247864 466.76742554 C-68.19326971 481.71850725 -75.94145222 496.66054571 -83.69197083 511.60140991 C-90.28927507 524.31973248 -96.881748 537.0405208 -103.46247864 549.76742554 C-108.88194942 560.248494 -114.30675226 570.7267739 -119.74128723 581.20004272 C-122.44425489 586.4092309 -125.14548098 591.61929083 -127.83911133 596.83331299 C-129.11417875 599.30121774 -130.39033085 601.76856088 -131.66654968 604.23587036 C-132.56059154 605.96541191 -133.45308751 607.6957523 -134.34553528 609.42611694 C-134.89201721 610.48234253 -135.43849915 611.53856812 -136.00154114 612.62680054 C-136.47801086 613.54944702 -136.95448059 614.47209351 -137.44538879 615.42269897 C-139.21553575 618.74193817 -141.09612759 622.00131121 -142.96247864 625.26742554 C-208.30247864 625.26742554 -273.64247864 625.26742554 -340.96247864 625.26742554 C-339.41659655 620.62977928 -337.71415319 616.55772038 -335.47029114 612.27133179 C-334.95761688 611.27942085 -334.95761688 611.27942085 -334.43458557 610.26747131 C-333.3230347 608.11944173 -332.20534225 605.97467563 -331.08747864 603.82992554 C-330.30994004 602.33043644 -329.5327622 600.83076022 -328.75593567 599.3309021 C-326.49727759 594.97336751 -324.23086502 590.61990196 -321.96247864 586.26742554 C-321.39077942 585.16962769 -320.8190802 584.07182983 -320.23005676 582.94076538 C-318.29422215 579.22507263 -316.3566082 575.51032209 -314.4153595 571.79745483 C-310.47288332 564.25645898 -306.55755421 556.70154715 -302.64997864 549.14242554 C-302.33543732 548.5339679 -302.020896 547.92551025 -301.69682312 547.2986145 C-300.0943515 544.19851302 -298.49219652 541.09824803 -296.89021301 537.99789429 C-293.72825789 531.87865168 -290.56421996 525.76048619 -287.39997864 519.64242554 C-287.08926422 519.0416217 -286.7785498 518.44081787 -286.4584198 517.82180786 C-281.38975261 508.02129916 -276.3123953 498.22531256 -271.23176575 488.43099976 C-266.96942177 480.21286049 -262.7144683 471.99092447 -258.46247864 463.76742554 C-250.73174801 448.81631262 -242.983505 433.87430527 -235.23298645 418.93344116 C-228.3190501 405.60471333 -221.41136887 392.27279041 -214.51499939 378.93496704 C-209.42795864 369.09668763 -204.33199622 359.2630644 -199.23200989 349.43148804 C-194.96959974 341.21317813 -190.71455187 332.9910861 -186.46247864 324.76742554 C-178.73174801 309.81631262 -170.983505 294.87430527 -163.23298645 279.93344116 C-156.6356822 267.21511859 -150.04320927 254.49433028 -143.46247864 241.76742554 C-135.73168757 226.81634382 -127.98350505 211.87430537 -120.23298645 196.93344116 C-113.3190501 183.60471333 -106.41136887 170.27279041 -99.51499939 156.93496704 C-94.42795864 147.09668763 -89.33199622 137.2630644 -84.23200989 127.43148804 C-79.96959974 119.21317813 -75.71455187 110.9910861 -71.46247864 102.76742554 C-64.88480776 90.04631225 -58.295158 77.33143947 -51.70075989 64.61898804 C-49.35354874 60.09335396 -47.00739331 55.56717387 -44.66242981 51.04037476 C-43.4956224 48.79080756 -42.32654548 46.54241593 -41.15510559 44.29525757 C-38.21027149 38.64087784 -35.30751771 32.97078524 -32.47419739 27.25961304 C-31.6206366 25.56119263 -31.6206366 25.56119263 -30.74983215 23.82846069 C-29.6772481 21.69211397 -28.61809428 19.54894607 -27.57551575 17.39779663 C-24.024473 10.37536507 -20.01959626 4.95898864 -12.95869923 1.20094872 C-8.63066253 -0.14752429 -4.5084806 -0.01477742 0 0 Z " fill="#000000" transform="translate(1073.9624786376953,-0.267425537109375)"/>
<path d="M0 0 C24.76510366 -0.09346394 49.53018087 -0.16398939 74.29542542 -0.20724869 C85.79450376 -0.2278691 97.29347249 -0.25597988 108.79248047 -0.30175781 C118.8156536 -0.34164136 128.83874733 -0.3674366 138.8619976 -0.37635398 C144.16867782 -0.38156612 149.4751309 -0.39380595 154.78173828 -0.42292023 C159.7787309 -0.45011316 164.77540326 -0.45843709 169.77246284 -0.45243073 C171.60421045 -0.45352922 173.435969 -0.46145993 175.26765251 -0.4768219 C177.77444661 -0.49681085 180.28004168 -0.49190728 182.78686523 -0.48101807 C183.50673363 -0.49266943 184.22660202 -0.5043208 184.96828461 -0.51632524 C191.16479247 -0.44388533 196.45853594 1.57293181 200.93939209 5.85209656 C201.36383606 6.47413467 201.78828003 7.09617279 202.22558594 7.73706055 C202.70314331 8.43495697 203.18070068 9.13285339 203.67272949 9.85189819 C205.75628522 13.2239989 207.62227107 16.6605585 209.390625 20.20703125 C209.96994026 21.34495872 209.96994026 21.34495872 210.56095886 22.50587463 C211.79749849 24.9380068 213.02368045 27.37520151 214.25 29.8125 C215.10596631 31.49931052 215.96282277 33.18566962 216.82055664 34.87158203 C218.08473609 37.35659659 219.34844527 39.84183277 220.60926819 42.32855225 C223.50350394 48.03669262 226.43862456 53.72101642 229.4375 59.375 C230.18883958 60.79425098 230.94014202 62.21352163 231.69140625 63.6328125 C232.06023926 64.32922852 232.42907227 65.02564453 232.80908203 65.74316406 C235.18046362 70.23702453 237.52623197 74.74429185 239.875 79.25 C240.37684814 80.21244629 240.87869629 81.17489258 241.39575195 82.16650391 C243.44462954 86.09644189 245.49280268 90.02674684 247.54101562 93.95703125 C252.65644141 103.77188886 257.77444593 113.58509545 262.9375 123.375 C267.38662885 131.81119807 271.7856276 140.273079 276.18115234 148.73730469 C279.45725499 155.04262087 282.74781958 161.33988184 286.0625 167.625 C292.26254041 179.38118209 298.39869289 191.17062235 304.54101562 202.95703125 C309.65644141 212.77188886 314.77444593 222.58509545 319.9375 232.375 C324.38662885 240.81119807 328.7856276 249.273079 333.18115234 257.73730469 C336.45725499 264.04262087 339.74781958 270.33988184 343.0625 276.625 C349.26254041 288.38118209 355.39869289 300.17062235 361.54101562 311.95703125 C366.65644141 321.77188886 371.77444593 331.58509545 376.9375 341.375 C381.38739255 349.81264615 385.78724471 358.2759297 390.18334961 366.74169922 C393.43712984 373.00430519 396.70635562 379.25827393 400 385.5 C403.86188765 392.81859364 407.6862353 400.15622134 411.5 407.5 C419.04703471 422.03315911 419.04703471 422.03315911 426.68603516 436.51806641 C427.62871808 438.29868971 428.56517172 440.08261619 429.49755859 441.86865234 C431.06937235 444.8774417 432.65828544 447.87669983 434.25 450.875 C434.733479 451.80916748 435.21695801 452.74333496 435.71508789 453.70581055 C439.03637764 459.9064236 442.11662305 463.79592119 448.3125 467.3125 C454.58642266 468.91745696 460.36133172 468.73028909 466.03594971 465.42253113 C471.84861811 461.21250566 475.25469154 454.08215237 478.390625 447.79296875 C478.77683517 447.03435043 479.16304535 446.27573212 479.56095886 445.49412537 C480.79749849 443.0619932 482.02368045 440.62479849 483.25 438.1875 C484.10596631 436.50068948 484.96282277 434.81433038 485.82055664 433.12841797 C487.08473609 430.64340341 488.34844527 428.15816723 489.60926819 425.67144775 C492.50350394 419.96330738 495.43862456 414.27898358 498.4375 408.625 C499.18883958 407.20574902 499.94014202 405.78647837 500.69140625 404.3671875 C501.06023926 403.67077148 501.42907227 402.97435547 501.80908203 402.25683594 C504.18046362 397.76297547 506.52623197 393.25570815 508.875 388.75 C509.37684814 387.78755371 509.87869629 386.82510742 510.39575195 385.83349609 C511.930791 382.88914829 513.46545891 379.94460736 515 377 C521.02616005 365.43649389 527.05833431 353.87661073 533.14111328 342.34277344 C536.61859342 335.74122123 540.06125894 329.12179879 543.5 322.5 C547.73155101 314.3515297 551.98297369 306.21423163 556.26611328 298.09277344 C561.54442871 288.07946736 566.76883919 278.03799425 572 268 C578.02616005 256.43649389 584.05833431 244.87661073 590.14111328 233.34277344 C594.18604962 225.66397806 598.18363704 217.96072042 602.18334961 210.25830078 C605.829483 203.24052604 609.50060934 196.23655016 613.19140625 189.2421875 C616.65323342 182.67473402 620.0786608 176.08862102 623.5 169.5 C627.7315323 161.35152006 631.98297375 153.21423151 636.26611328 145.09277344 C641.54442871 135.07946736 646.76883919 125.03799425 652 115 C658.02616005 103.43649389 664.05833431 91.87661073 670.14111328 80.34277344 C673.61859412 73.7412199 677.06105425 67.12169354 680.5 60.5 C690.8630687 40.55794026 690.8630687 40.55794026 695.69482422 31.47753906 C697.15192922 28.71160162 698.57689025 25.93000915 700.00390625 23.1484375 C701.04352532 21.16106817 702.08387791 19.17408236 703.125 17.1875 C703.59172119 16.26171143 704.05844238 15.33592285 704.53930664 14.38208008 C708.17905802 7.51780855 712.45892153 2.51369282 720 0 C722.54659927 -0.09348084 725.06537063 -0.13035419 727.61186218 -0.12025452 C728.39438396 -0.12110894 729.17690573 -0.12196337 729.98314029 -0.12284368 C732.61337635 -0.12449488 735.24354908 -0.11898298 737.8737793 -0.11352539 C739.75597126 -0.11324342 741.63816333 -0.11340146 743.52035522 -0.1139679 C748.63779255 -0.11425547 753.75520657 -0.10836522 758.87263846 -0.10139394 C764.21781023 -0.09515371 769.5629825 -0.09455607 774.90815735 -0.09336853 C785.03348766 -0.0902572 795.15880721 -0.08204646 805.28413278 -0.07201904 C816.80997919 -0.06085178 828.3358261 -0.05534591 839.86167657 -0.05032361 C863.57445702 -0.03986369 887.28722791 -0.02226806 911 0 C910.46047699 1.07863815 909.92095398 2.15727631 909.36508179 3.26860046 C908.64491399 4.70860608 907.92475022 6.14861372 907.20458984 7.58862305 C906.85045517 8.29659782 906.4963205 9.0045726 906.13145447 9.73400116 C903.99110118 14.01401567 901.8559542 18.29655256 899.7265625 22.58203125 C894.61356675 32.86064224 889.47110098 43.11517964 884.0859375 53.25415039 C879.86339317 61.21735455 875.74616718 69.23403551 871.625 77.25 C866.77559713 86.68019952 861.91735528 96.10498311 857 105.5 C852.12635262 114.81272362 847.30821259 124.15339123 842.5 133.5 C837.23055927 143.74318291 831.93873502 153.97361498 826.59765625 164.1796875 C822.19593993 172.60139949 817.84703616 181.04998519 813.5 189.5 C808.18017184 199.8405894 802.83928886 210.1692742 797.45043945 220.47412109 C793.50929034 228.01400148 789.59433976 235.56730178 785.6875 243.125 C785.21568802 244.03768646 785.21568802 244.03768646 784.73434448 244.96881104 C783.13187286 248.06891252 781.52971788 251.16917751 779.92773438 254.26953125 C776.76577925 260.38877385 773.60174132 266.50693935 770.4375 272.625 C770.12678558 273.22580383 769.81607117 273.82660767 769.49594116 274.44561768 C764.42727397 284.24612638 759.34991666 294.04211298 754.26928711 303.83642578 C750.00694313 312.05456505 745.75198966 320.27650107 741.5 328.5 C733.76926938 343.45111292 726.02102636 358.39312027 718.27050781 373.33398438 C711.35657146 386.66271221 704.44889024 399.99463513 697.55252075 413.3324585 C692.46548001 423.17073791 687.36951758 433.00436114 682.26953125 442.8359375 C678.0071211 451.05424741 673.75207324 459.27633944 669.5 467.5 C661.76926938 482.45111292 654.02102636 497.39312027 646.27050781 512.33398438 C639.67320348 525.05230712 633.08083363 537.77314843 626.5 550.5 C620.46412472 562.17232338 614.42745589 573.8442231 608.3671875 585.50390625 C606.10569339 589.85751131 603.86293029 594.22008872 601.6328125 598.58984375 C601.09422607 599.63865723 600.55563965 600.6874707 600.00073242 601.76806641 C598.99225492 603.73210114 597.98938606 605.69903074 596.9934082 607.66943359 C592.49618803 616.39504883 588.64063075 621.8495557 579 625 C575.52090274 625.52497611 572.11502107 625.54169481 568.60119629 625.50793457 C567.59121912 625.51417453 566.58124196 625.5204145 565.54065943 625.52684355 C562.17595325 625.54272453 558.81197643 625.53018805 555.44726562 625.51757812 C553.0270699 625.52300139 550.60687747 625.5301252 548.18669128 625.53881836 C542.30733844 625.55514078 536.42817316 625.55278433 530.54882562 625.5411678 C525.76839866 625.53211547 520.98802891 625.53091722 516.20759583 625.53526306 C515.52589951 625.53587599 514.8442032 625.53648893 514.14184943 625.53712043 C512.7567758 625.5383994 511.37170219 625.53969625 509.98662859 625.5410108 C497.01430557 625.55240307 484.04209582 625.5393242 471.06979138 625.51780933 C459.95125604 625.49993954 448.83288779 625.50304403 437.71435547 625.52148438 C424.78684348 625.54291507 411.85943064 625.55130456 398.93190336 625.53903532 C397.55207032 625.53776119 396.17223725 625.53650371 394.79240417 625.53526306 C394.11359024 625.53464596 393.4347763 625.53402886 392.73539224 625.53339306 C387.96352921 625.52994674 383.19172934 625.53575295 378.4198761 625.54518127 C371.99132291 625.55760435 365.56301051 625.54869512 359.13448524 625.52560425 C356.7774794 625.52032258 354.42044698 625.5218216 352.06345177 625.53065491 C348.84154648 625.54161489 345.62064534 625.52784014 342.39880371 625.50793457 C341.47009413 625.51685746 340.54138455 625.52578034 339.58453226 625.53497362 C332.6095775 625.45161162 326.25564389 623.95093002 320.96817017 619.15834045 C320.55666718 618.53898117 320.14516418 617.91962189 319.72119141 617.28149414 C319.25255676 616.5833963 318.78392212 615.88529846 318.30108643 615.16604614 C316.20446039 611.67558721 314.27792991 608.13968966 312.4609375 604.49609375 C312.05809036 603.70420151 311.65524323 602.91230927 311.2401886 602.09642029 C309.94489315 599.54687743 308.66002115 596.99223411 307.375 594.4375 C306.47458897 592.66182828 305.57329703 590.88660299 304.67114258 589.11181641 C302.90117788 585.62933665 301.13396915 582.14548235 299.36865234 578.66064453 C296.51837956 573.04245557 293.61521777 567.45324604 290.6875 561.875 C286.32973555 553.55423781 282.00039351 545.21909274 277.6875 536.875 C277.37268677 536.26599854 277.05787354 535.65699707 276.73352051 535.02954102 C275.13132677 531.92998718 273.52943398 528.83027796 271.92773438 525.73046875 C268.76577926 519.61122616 265.60176642 513.49304766 262.4375 507.375 C261.97192688 506.47479126 261.97192688 506.47479126 261.49694824 505.55639648 C254.67465102 492.36573526 247.83830521 479.18236814 241 466 C233.50968129 451.56072948 226.02478045 437.11869903 218.55352783 422.66955566 C211.71309218 409.44079862 204.85772418 396.21980257 198 383 C190.5093358 368.56006349 183.02390412 354.11746213 175.55252075 339.6675415 C171.04083943 330.94200072 166.52316307 322.21959653 162 313.5 C157.16019985 304.17000151 152.32742231 294.83640609 147.5 285.5 C140.34429507 271.66097785 133.17402136 257.82953638 126 244 C118.5093358 229.56006349 111.02390412 215.11746213 103.55252075 200.6675415 C99.04083943 191.94200072 94.52316307 183.21959653 90 174.5 C85.16019985 165.17000151 80.32742231 155.83640609 75.5 146.5 C68.34429507 132.66097785 61.17402136 118.82953638 54 105 C47.14199302 91.77965226 40.28634807 78.55810819 33.44564819 65.32879639 C28.21718321 55.21742735 22.98721919 45.10683835 17.75 35 C16.89317627 33.34605225 16.89317627 33.34605225 16.01904297 31.65869141 C13.25319322 26.3249501 10.47710761 20.99694652 7.6796875 15.6796875 C7.1630957 14.69742187 6.64650391 13.71515625 6.11425781 12.703125 C5.14419302 10.86095606 4.17227995 9.01975884 3.19824219 7.1796875 C2.77446289 6.3753125 2.35068359 5.5709375 1.9140625 4.7421875 C1.5423291 4.0394873 1.1705957 3.33678711 0.78759766 2.61279297 C0 1 0 1 0 0 Z " fill="#000000" transform="translate(0,1)"/>
<path d="M0 0 C58.41 0 116.82 0 177 0 C177 153.78 177 307.56 177 466 C318.10829345 465.88117555 318.10829345 465.88117555 459.21655273 465.72973633 C486.4708252 465.71618652 486.4708252 465.71618652 499.21839905 465.71366882 C508.14636088 465.71086708 517.07426662 465.6998451 526.00221252 465.68327332 C536.29516445 465.66419605 546.58806243 465.65548779 556.88103217 465.65966515 C562.1478929 465.66147478 567.41463302 465.65857746 572.68147171 465.64235461 C577.44393222 465.62777432 582.20618663 465.62701774 586.96865654 465.63729668 C588.69039762 465.63856918 590.41215154 465.63476123 592.13386738 465.62535226 C613.23083071 465.5168352 613.23083071 465.5168352 620.62255859 472.36083984 C623.64650692 475.95934908 625.6712406 480.15316008 627.8125 484.3125 C628.36309082 485.3550293 628.91368164 486.39755859 629.48095703 487.47167969 C630.68640505 489.75586197 631.88636202 492.04294837 633.08154297 494.33251953 C635.06769075 498.13690497 637.08030659 501.92693113 639.09765625 505.71484375 C639.80493978 507.04320856 640.5122151 508.37157773 641.21948242 509.69995117 C641.75102432 510.69821426 641.75102432 510.69821426 642.29330444 511.71664429 C643.74885419 514.45276572 645.20059801 517.19089832 646.65235901 519.92903137 C650.91308603 527.9644775 655.19939522 535.98580981 659.5 544 C664.85834726 553.98685313 670.18738116 563.98877378 675.5 574 C680.78390305 583.95487576 686.07365506 593.90656634 691.3894043 603.84448242 C692.0387699 605.05876555 692.68770633 606.2732783 693.33618164 607.48803711 C694.2306597 609.16327846 695.12700855 610.83752052 696.0234375 612.51171875 C696.78019775 613.92650513 696.78019775 613.92650513 697.55224609 615.36987305 C698.54862052 617.17998126 699.59686006 618.96218405 700.68603516 620.71801758 C702 623 702 623 702 625 C640.16151576 625.08571533 578.32302466 625.1652103 516.48449707 625.2117157 C515.11120173 625.21275113 515.11120173 625.21275113 513.71016305 625.21380747 C493.81223854 625.22877273 473.9143134 625.24262354 454.01638731 625.25532665 C444.25815781 625.26156322 434.49992848 625.268046 424.74169922 625.2746582 C423.28512355 625.2756389 423.28512355 625.2756389 421.7991221 625.2766394 C390.33625658 625.29793829 358.87343602 625.33548898 327.41059772 625.3814861 C295.07288097 625.42867628 262.73518909 625.45943353 230.39743849 625.46957495 C225.82779971 625.47101568 221.25816101 625.47264386 216.68852234 625.47438622 C215.33949405 625.47489189 215.33949405 625.47489189 213.96321266 625.47540778 C199.49813291 625.48131163 185.03313017 625.50448911 170.5680818 625.53416017 C156.01853472 625.56363469 141.46906383 625.57483032 126.91948795 625.56750689 C118.27999881 625.56370997 109.64078895 625.57378881 101.00135035 625.60398772 C95.22210444 625.62280478 89.4430404 625.62327116 83.6637817 625.60915907 C80.37587344 625.6016457 77.08859394 625.60458899 73.80072194 625.62441591 C50.78495372 625.75510341 33.65811918 622.67419819 16.28515625 606.375 C5.11316444 594.76376749 -0.33923874 580.0042327 -0.24609566 564.05124664 C-0.24840335 563.07288939 -0.25071103 562.09453214 -0.25308865 561.08652771 C-0.25838457 557.80651777 -0.24940781 554.52670398 -0.24050903 551.2467041 C-0.24138118 548.87216378 -0.24313233 546.49762365 -0.24568737 544.12308455 C-0.24922832 538.95966346 -0.24655937 533.79628399 -0.23841095 528.63286972 C-0.2263283 520.95509695 -0.22574051 513.27735322 -0.22749493 505.59957268 C-0.23012137 492.68360625 -0.22344507 479.7676603 -0.21146011 466.85169983 C-0.19962456 454.0639689 -0.19192792 441.2762465 -0.18975449 428.48851013 C-0.18954827 427.29569043 -0.18954827 427.29569043 -0.18933788 426.07877336 C-0.18866121 422.04025926 -0.18805845 418.00174515 -0.18748413 413.96323103 C-0.18328373 385.36122373 -0.16981017 356.75922758 -0.15087891 328.15722656 C-0.1325091 300.37141987 -0.11834233 272.58561623 -0.10986328 244.79980469 C-0.10960023 243.9432688 -0.10933718 243.08673292 -0.10906615 242.2042414 C-0.1064291 233.60252683 -0.10387748 225.00081223 -0.10138843 216.39909761 C-0.09631606 198.87653854 -0.09067355 181.35397967 -0.08468628 163.8314209 C-0.0844117 163.02576858 -0.08413712 162.22011625 -0.08385422 161.39005022 C-0.07540833 136.69675904 -0.06454604 112.00346974 -0.05130005 87.31018066 C-0.05092493 86.60913442 -0.05054982 85.90808817 -0.05016333 85.1857981 C-0.03493296 56.7905312 -0.01714499 28.39526579 0 0 Z " fill="#000000" transform="translate(1948,0)"/>
<path d="M0 0 C58.74 0 117.48 0 178 0 C178 206.25 178 412.5 178 625 C119.26 625 60.52 625 0 625 C0 418.75 0 212.5 0 0 Z " fill="#000000" transform="translate(1690,0)"/>
</svg>
