<svg width="2500" height="1247" viewBox="0 0 2500 1247" fill="none" xmlns="http://www.w3.org/2000/svg">
<g clip-path="url(#clip0_4594_2046)">
<path d="M1879.25 893.588C1729.84 893.588 1609.16 772.91 1609.16 620.627C1609.16 471.217 1729.84 347.666 1879.25 347.666C2028.66 347.666 2149.33 468.343 2149.33 620.627C2149.33 772.91 2028.66 893.588 1879.25 893.588ZM1882.12 0C1540.2 0 1264.37 278.707 1264.37 623.5C1264.37 968.293 1540.2 1247 1882.12 1247C2224.04 1247 2499.87 968.293 2499.87 623.5C2497 278.707 2221.17 0 1882.12 0ZM718.445 28.7327H520.189L0.126953 1221.14H385.145L620.754 603.387L853.489 1221.14H1238.51L718.445 28.7327Z" fill="black"/>
</g>
<defs>
<clipPath id="clip0_4594_2046">
<rect width="2500" height="1247" fill="white"/>
</clipPath>
</defs>
</svg>
