<svg width="100" height="25" viewBox="0 0 100 25" fill="none" xmlns="http://www.w3.org/2000/svg">
<g clip-path="url(#clip0_4594_2049)">
<path d="M58.02 21.83C58.02 22.02 58.08 22.13 58.19 22.13C58.28 22.12 58.36 22.08 58.43 22.03L89.6 1.8C90.1267 1.43187 90.7577 1.24258 91.4 1.26H98.25C99.3 1.26 100.01 1.96 100.01 3.01V16.09C100.01 17.67 99.66 18.59 98.26 19.43L89.95 24.43C89.8672 24.4875 89.7705 24.522 89.67 24.53C89.57 24.53 89.47 24.45 89.47 24.16V8.9C89.47 8.72 89.42 8.6 89.3 8.6C89.2122 8.6101 89.129 8.64476 89.06 8.7L66.28 23.5C65.76 23.85 65.15 24.04 64.53 24.03H49.43C48.37 24.03 47.67 23.33 47.67 22.27V3.42C47.67 3.28 47.61 3.15 47.49 3.15C47.4025 3.16111 47.3195 3.19566 47.25 3.25L32.22 12.27C32.07 12.37 32.03 12.44 32.03 12.51C32.03 12.57 32.06 12.63 32.16 12.74L42.9 23.47C43.04 23.61 43.14 23.72 43.14 23.84C43.14 23.94 42.98 24.02 42.79 24.02H33.09C32.33 24.02 31.74 23.91 31.33 23.5L24.82 17C24.7953 16.9705 24.7648 16.9464 24.7304 16.9292C24.696 16.912 24.6584 16.902 24.62 16.9C24.5494 16.9033 24.4807 16.9239 24.42 16.96L13.54 23.5C12.88 23.9 12.43 24.01 11.78 24.01H1.77C0.7 24.02 0 23.31 0 22.26V9.43C0 7.84 0.35 6.93 1.76 6.09L10.12 1.07C10.1856 1.02705 10.2617 1.00284 10.34 1C10.47 1 10.54 1.13 10.54 1.42V18.6C10.54 18.78 10.58 18.86 10.71 18.86C10.8 18.85 10.88 18.81 10.96 18.76L39.2 1.77C39.74 1.4 40.4 1.22 41.06 1.25H56.26C57.31 1.25 58.02 1.95 58.02 3L58.01 21.83H58.02Z" fill="black"/>
</g>
<defs>
<clipPath id="clip0_4594_2049">
<rect width="100" height="25" fill="white"/>
</clipPath>
</defs>
</svg>
