<svg width="49" height="48" viewBox="0 0 49 48" fill="none" xmlns="http://www.w3.org/2000/svg">
<g clip-path="url(#clip0_4749_415)">
<path d="M39.5 28.5V23.25C39.5 21.4598 38.7888 19.7429 37.523 18.477C36.2571 17.2112 34.5402 16.5 32.75 16.5H29.75C29.1533 16.5 28.581 16.2629 28.159 15.841C27.7371 15.419 27.5 14.8467 27.5 14.25V11.25C27.5 9.45979 26.7888 7.7429 25.523 6.47703C24.2571 5.21116 22.5402 4.5 20.75 4.5H17M27.462 31.462L30.5 34.5M27.462 31.462C27.9495 30.9745 28.3365 30.396 28.6004 29.7591C28.8642 29.1221 29 28.4394 29 27.75C29 26.3576 28.4469 25.0223 27.4623 24.0377C26.4777 23.0531 25.1424 22.5 23.75 22.5C22.3576 22.5 21.0223 23.0531 20.0377 24.0377C19.0531 25.0223 18.5 26.3576 18.5 27.75C18.5 28.4394 18.6358 29.1221 18.8996 29.7591C19.1635 30.396 19.5502 30.9748 20.0377 31.4623C20.5252 31.9498 21.104 32.3365 21.7409 32.6004C22.3779 32.8642 23.0606 33 23.75 33C24.4394 33 25.1221 32.8642 25.7591 32.6004C26.396 32.3365 26.9745 31.9495 27.462 31.462ZM21.5 4.5H11.75C10.508 4.5 9.5 5.508 9.5 6.75V39.75C9.5 40.992 10.508 42 11.75 42H37.25C38.492 42 39.5 40.992 39.5 39.75V22.5C39.5 17.7261 37.6036 13.1477 34.2279 9.77208C30.8523 6.39642 26.2739 4.5 21.5 4.5Z" stroke="url(#paint0_linear_4749_415)" stroke-width="1.5" stroke-linecap="round" stroke-linejoin="round"/>
</g>
<defs>
<linearGradient id="paint0_linear_4749_415" x1="9.5" y1="23.25" x2="39.5" y2="23.25" gradientUnits="userSpaceOnUse">
<stop stop-color="#3461FF"/>
<stop offset="1" stop-color="#0505E5"/>
</linearGradient>
<clipPath id="clip0_4749_415">
<rect width="48" height="48" fill="white" transform="translate(0.5)"/>
</clipPath>
</defs>
</svg>
