<svg width="49" height="48" viewBox="0 0 49 48" fill="none" xmlns="http://www.w3.org/2000/svg">
<g clip-path="url(#clip0_4749_413)">
<path d="M17.75 24C17.75 24.1989 17.671 24.3897 17.5303 24.5303C17.3897 24.671 17.1989 24.75 17 24.75C16.8011 24.75 16.6103 24.671 16.4697 24.5303C16.329 24.3897 16.25 24.1989 16.25 24C16.25 23.8011 16.329 23.6103 16.4697 23.4697C16.6103 23.329 16.8011 23.25 17 23.25C17.1989 23.25 17.3897 23.329 17.5303 23.4697C17.671 23.6103 17.75 23.8011 17.75 24ZM17.75 24H17M25.25 24C25.25 24.1989 25.171 24.3897 25.0303 24.5303C24.8897 24.671 24.6989 24.75 24.5 24.75C24.3011 24.75 24.1103 24.671 23.9697 24.5303C23.829 24.3897 23.75 24.1989 23.75 24C23.75 23.8011 23.829 23.6103 23.9697 23.4697C24.1103 23.329 24.3011 23.25 24.5 23.25C24.6989 23.25 24.8897 23.329 25.0303 23.4697C25.171 23.6103 25.25 23.8011 25.25 24ZM25.25 24H24.5M32.75 24C32.75 24.1989 32.671 24.3897 32.5303 24.5303C32.3897 24.671 32.1989 24.75 32 24.75C31.8011 24.75 31.6103 24.671 31.4697 24.5303C31.329 24.3897 31.25 24.1989 31.25 24C31.25 23.8011 31.329 23.6103 31.4697 23.4697C31.6103 23.329 31.8011 23.25 32 23.25C32.1989 23.25 32.3897 23.329 32.5303 23.4697C32.671 23.6103 32.75 23.8011 32.75 24ZM32.75 24H32M42.5 24C42.5 33.112 34.44 40.5 24.5 40.5C22.7744 40.5021 21.0561 40.2755 19.39 39.826C17.0415 41.4777 14.1767 42.2282 11.32 41.94C11.0024 41.9094 10.6861 41.866 10.372 41.81C11.3577 40.6483 12.0309 39.2543 12.328 37.76C12.508 36.846 12.062 35.958 11.394 35.308C8.36 32.356 6.5 28.378 6.5 24C6.5 14.888 14.56 7.5 24.5 7.5C34.44 7.5 42.5 14.888 42.5 24Z" stroke="url(#paint0_linear_4749_413)" stroke-width="1.5" stroke-linecap="round" stroke-linejoin="round"/>
</g>
<defs>
<linearGradient id="paint0_linear_4749_413" x1="6.5" y1="24.7502" x2="42.5" y2="24.7502" gradientUnits="userSpaceOnUse">
<stop stop-color="#3461FF"/>
<stop offset="1" stop-color="#0505E5"/>
</linearGradient>
<clipPath id="clip0_4749_413">
<rect width="48" height="48" fill="white" transform="translate(0.5)"/>
</clipPath>
</defs>
</svg>
