<svg width="49" height="48" viewBox="0 0 49 48" fill="none" xmlns="http://www.w3.org/2000/svg">
<g clip-path="url(#clip0_4749_419)">
<path d="M18.5 25.5L23 30L30.5 19.5M42.5 24C42.5 26.3638 42.0344 28.7044 41.1298 30.8883C40.2252 33.0722 38.8994 35.0565 37.2279 36.7279C35.5565 38.3994 33.5722 39.7252 31.3883 40.6298C29.2044 41.5344 26.8638 42 24.5 42C22.1362 42 19.7956 41.5344 17.6117 40.6298C15.4278 39.7252 13.4435 38.3994 11.7721 36.7279C10.1006 35.0565 8.77475 33.0722 7.87017 30.8883C6.96558 28.7044 6.5 26.3638 6.5 24C6.5 19.2261 8.39642 14.6477 11.7721 11.2721C15.1477 7.89642 19.7261 6 24.5 6C29.2739 6 33.8523 7.89642 37.2279 11.2721C40.6036 14.6477 42.5 19.2261 42.5 24Z" stroke="url(#paint0_linear_4749_419)" stroke-width="1.5" stroke-linecap="round" stroke-linejoin="round"/>
</g>
<defs>
<linearGradient id="paint0_linear_4749_419" x1="6.5" y1="24" x2="42.5" y2="24" gradientUnits="userSpaceOnUse">
<stop stop-color="#3461FF"/>
<stop offset="1" stop-color="#0505E5"/>
</linearGradient>
<clipPath id="clip0_4749_419">
<rect width="48" height="48" fill="white" transform="translate(0.5)"/>
</clipPath>
</defs>
</svg>
