<svg width="49" height="48" viewBox="0 0 49 48" fill="none" xmlns="http://www.w3.org/2000/svg">
<g clip-path="url(#clip0_4436_2551)">
<path d="M34.6185 31.042C35.554 30.4031 36.6514 30.0421 37.7836 30.0009C38.9158 29.9596 40.0365 30.2397 41.0161 30.8088C41.9957 31.3779 42.7942 32.2128 43.3191 33.2167C43.8441 34.2207 44.0741 35.3528 43.9825 36.482C41.5828 37.3207 39.034 37.647 36.5005 37.44C36.4927 35.1732 35.8399 32.9535 34.6185 31.044C33.5343 29.3436 32.0387 27.9441 30.2701 26.975C28.5015 26.0059 26.5171 25.4986 24.5005 25.5C22.4841 25.499 20.5001 26.0064 18.7319 26.9755C16.9637 27.9445 15.4685 29.3439 14.3845 31.044M36.4985 37.438L36.5005 37.5C36.5005 37.95 36.4765 38.394 36.4265 38.832C32.7972 40.9142 28.6846 42.0067 24.5005 42C20.1605 42 16.0865 40.848 12.5745 38.832C12.523 38.3691 12.4983 37.9037 12.5005 37.438M12.5005 37.438C9.96772 37.6525 7.42027 37.3274 5.02246 36.484C4.93116 35.3551 5.16125 34.2234 5.68612 33.2198C6.21098 32.2162 7.0092 31.3816 7.98846 30.8126C8.96773 30.2435 10.0881 29.9633 11.2199 30.0043C12.3517 30.0452 13.4489 30.4057 14.3845 31.044M12.5005 37.438C12.5076 35.1714 13.1637 32.9537 14.3845 31.044M30.5005 13.5C30.5005 15.0913 29.8683 16.6174 28.7431 17.7426C27.6179 18.8679 26.0918 19.5 24.5005 19.5C22.9092 19.5 21.383 18.8679 20.2578 17.7426C19.1326 16.6174 18.5005 15.0913 18.5005 13.5C18.5005 11.9087 19.1326 10.3826 20.2578 9.25736C21.383 8.13214 22.9092 7.5 24.5005 7.5C26.0918 7.5 27.6179 8.13214 28.7431 9.25736C29.8683 10.3826 30.5005 11.9087 30.5005 13.5ZM42.5005 19.5C42.5005 20.0909 42.3841 20.6761 42.1579 21.2221C41.9318 21.768 41.6003 22.2641 41.1824 22.682C40.7646 23.0998 40.2685 23.4313 39.7225 23.6575C39.1766 23.8836 38.5914 24 38.0005 24C37.4095 24 36.8243 23.8836 36.2784 23.6575C35.7324 23.4313 35.2363 23.0998 34.8185 22.682C34.4006 22.2641 34.0691 21.768 33.843 21.2221C33.6169 20.6761 33.5005 20.0909 33.5005 19.5C33.5005 18.3065 33.9746 17.1619 34.8185 16.318C35.6624 15.4741 36.807 15 38.0005 15C39.1939 15 40.3385 15.4741 41.1824 16.318C42.0264 17.1619 42.5005 18.3065 42.5005 19.5ZM15.5005 19.5C15.5005 20.0909 15.3841 20.6761 15.1579 21.2221C14.9318 21.768 14.6003 22.2641 14.1824 22.682C13.7646 23.0998 13.2685 23.4313 12.7225 23.6575C12.1766 23.8836 11.5914 24 11.0005 24C10.4095 24 9.82435 23.8836 9.27838 23.6575C8.73242 23.4313 8.23634 23.0998 7.81848 22.682C7.40061 22.2641 7.06915 21.768 6.843 21.2221C6.61685 20.6761 6.50046 20.0909 6.50046 19.5C6.50046 18.3065 6.97456 17.1619 7.81848 16.318C8.66239 15.4741 9.80698 15 11.0005 15C12.1939 15 13.3385 15.4741 14.1824 16.318C15.0264 17.1619 15.5005 18.3065 15.5005 19.5Z" stroke="url(#paint0_linear_4436_2551)" stroke-width="1.5" stroke-linecap="round" stroke-linejoin="round"/>
</g>
<defs>
<linearGradient id="paint0_linear_4436_2551" x1="5.00293" y1="24.75" x2="44.0021" y2="24.75" gradientUnits="userSpaceOnUse">
<stop stop-color="#3461FF"/>
<stop offset="1" stop-color="#0505E5"/>
</linearGradient>
<clipPath id="clip0_4436_2551">
<rect width="48" height="48" fill="white" transform="translate(0.5)"/>
</clipPath>
</defs>
</svg>
