<svg width="49" height="48" viewBox="0 0 49 48" fill="none" xmlns="http://www.w3.org/2000/svg">
<g clip-path="url(#clip0_4436_2547)">
<path d="M42.2861 26.7861L40.0161 24.5161C39.6744 24.1738 39.3901 23.7788 39.1741 23.3461L37.0141 19.0261C36.9553 18.9089 36.8695 18.8073 36.7638 18.7297C36.658 18.6521 36.5353 18.6007 36.4059 18.5798C36.2764 18.5589 36.1438 18.5691 36.019 18.6095C35.8942 18.6498 35.7808 18.7193 35.6881 18.8121C35.4794 19.0205 35.2188 19.1694 34.9333 19.2432C34.6478 19.3171 34.3477 19.3132 34.0641 19.2321L31.5181 18.5061C31.1108 18.3916 30.6759 18.4259 30.2916 18.603C29.9073 18.78 29.5986 19.0882 29.4209 19.4722C29.2432 19.8562 29.2082 20.291 29.322 20.6985C29.4358 21.1061 29.6911 21.4597 30.0421 21.6961L31.2161 22.4761C32.3961 23.2661 32.5641 24.9361 31.5601 25.9401L31.1601 26.3401C30.7361 26.7641 30.5001 27.3361 30.5001 27.9321V28.7521C30.5001 29.5701 30.2801 30.3701 29.8601 31.0681L27.2301 35.4501C26.8552 36.0754 26.3247 36.5929 25.6903 36.9522C25.0559 37.3114 24.3392 37.5002 23.6101 37.5001C23.0505 37.5001 22.5138 37.2778 22.1181 36.8821C21.7224 36.4864 21.5001 35.9497 21.5001 35.3901V33.0461C21.5001 31.2061 20.3801 29.5521 18.6721 28.8681L17.3621 28.3461C16.409 27.9646 15.615 27.2686 15.1119 26.3737C14.6087 25.4787 14.4268 24.4387 14.5961 23.4261L14.6101 23.3421C14.7031 22.7857 14.8998 22.2518 15.1901 21.7681L15.3701 21.4681C15.8477 20.6727 16.5595 20.0444 17.4081 19.6692C18.2566 19.294 19.2003 19.1902 20.1101 19.3721L22.4661 19.8441C23.0205 19.9547 23.5963 19.8525 24.0788 19.5579C24.5613 19.2633 24.9152 18.7978 25.0701 18.2541L25.4861 16.7941C25.6302 16.2897 25.5936 15.7508 25.3825 15.2706C25.1714 14.7904 24.7992 14.399 24.3301 14.1641L23.0001 13.5001L22.8181 13.6821C22.4002 14.1 21.9042 14.4314 21.3582 14.6576C20.8122 14.8837 20.2271 15.0001 19.6361 15.0001H19.2761C18.7781 15.0001 18.3021 15.2001 17.9521 15.5481C17.6313 15.8718 17.203 16.0666 16.7482 16.0956C16.2935 16.1247 15.8439 15.986 15.4845 15.7057C15.1252 15.4255 14.8811 15.0232 14.7984 14.5751C14.7158 14.127 14.8003 13.6641 15.0361 13.2741L17.8581 8.5681C18.1394 8.10032 18.3332 7.58527 18.4301 7.0481M42.2861 26.7861C42.7705 23.7004 42.4437 20.5417 41.3376 17.6206C40.2316 14.6994 38.3844 12.1164 35.9777 10.1253C33.5711 8.13428 30.6877 6.80377 27.6111 6.26459C24.5344 5.72541 21.3704 5.99612 18.4301 7.0501C15.4387 8.12238 12.7846 9.96745 10.7373 12.3978C8.69003 14.8282 7.32265 17.7572 6.77411 20.8872C6.22558 24.0173 6.51544 27.2367 7.61424 30.2185C8.71304 33.2002 10.5816 35.8379 13.0301 37.8635C15.4785 39.8891 18.4196 41.2304 21.5544 41.7511C24.6891 42.2718 27.9059 41.9534 30.8777 40.8281C33.8496 39.7029 36.4706 37.8109 38.4743 35.3446C40.4781 32.8782 41.7933 29.9254 42.2861 26.7861Z" stroke="url(#paint0_linear_4436_2547)" stroke-width="1.5" stroke-linecap="round" stroke-linejoin="round"/>
</g>
<defs>
<linearGradient id="paint0_linear_4436_2547" x1="6.50391" y1="23.9944" x2="42.5039" y2="23.9944" gradientUnits="userSpaceOnUse">
<stop stop-color="#3461FF"/>
<stop offset="1" stop-color="#0505E5"/>
</linearGradient>
<clipPath id="clip0_4436_2547">
<rect width="48" height="48" fill="white" transform="translate(0.5)"/>
</clipPath>
</defs>
</svg>
