<svg width="49" height="48" viewBox="0 0 49 48" fill="none" xmlns="http://www.w3.org/2000/svg">
<g clip-path="url(#clip0_4435_2535)">
<g clip-path="url(#clip1_4435_2535)">
<path d="M23.3659 13.2294L10.389 17.7273L24.5293 24.402L38.6696 17.9156L28.1115 14.1504V12.1171L41.5056 16.8911C41.9171 17.0648 42.1665 17.4531 42.1299 17.8853C42.1328 17.9058 42.1328 17.9302 42.1328 17.9536V35.5619L45.189 37.3972L44.5918 35.5229C44.2543 34.4262 46.5315 33.4154 46.9918 35.1414L48.4496 39.6237C48.6409 40.3779 48.2818 41.0443 47.5599 41.259L43.0693 42.2132C41.6012 42.6074 40.8053 40.3379 42.4346 39.7408L44.079 39.4344L33.1646 32.8778C32.6274 32.5539 32.4428 31.8377 32.7531 31.2777C33.0634 30.7176 33.7524 30.5264 34.2896 30.8493L40.2774 34.4467V19.2806L25.449 26.0811V45.4681L37.9384 38.8617L39.849 40.0091L25.0028 47.8605C24.8541 47.9535 24.6834 48.0014 24.51 47.9988C24.3365 47.9962 24.1672 47.9432 24.0212 47.8458L9.35775 39.8852L11.2524 38.7475L23.5965 45.4495V26.0724L8.7165 19.0513V34.4496L14.7109 30.8493C15.2481 30.5264 15.9371 30.7176 16.2474 31.2777C16.5578 31.8377 16.3731 32.5539 15.8359 32.8778L4.9215 39.4344L6.56588 39.7408C8.19525 40.3379 7.39932 42.6074 5.93119 42.2132L1.44057 41.259C0.718691 41.0443 0.359629 40.3779 0.550879 39.6237L2.00869 35.1414C2.469 33.4154 4.74619 34.4262 4.40869 35.5229L3.8115 37.3972L6.86775 35.5619L6.86494 17.6034C6.86494 17.0785 7.209 16.8423 7.65994 16.6482L23.3659 11.2068L23.3649 4.4706L22.1031 5.94584C21.3596 6.79762 19.3796 5.25115 20.5862 3.973L23.589 0.418561C24.1206 -0.131728 24.8546 -0.140509 25.3937 0.40295L28.4321 3.973C29.4943 5.09894 28.0046 6.9508 26.6931 5.78095L25.6159 4.45304L25.6168 17.5682C25.6159 18.2142 25.1124 18.7381 24.4909 18.7391C23.8693 18.7391 23.3659 18.2142 23.3659 17.5682V13.2294Z" fill="url(#paint0_linear_4435_2535)"/>
</g>
</g>
<defs>
<linearGradient id="paint0_linear_4435_2535" x1="0.5" y1="23.9997" x2="48.5005" y2="23.9997" gradientUnits="userSpaceOnUse">
<stop stop-color="#3461FF"/>
<stop offset="1" stop-color="#0505E5"/>
</linearGradient>
<clipPath id="clip0_4435_2535">
<rect width="48" height="48" fill="white" transform="translate(0.5)"/>
</clipPath>
<clipPath id="clip1_4435_2535">
<rect width="48" height="48" fill="white" transform="translate(0.5)"/>
</clipPath>
</defs>
</svg>
