<svg width="49" height="49" viewBox="0 0 49 49" fill="none" xmlns="http://www.w3.org/2000/svg">
<g clip-path="url(#clip0_4435_2541)">
<path d="M24.5 36.5V26M24.5 26C25.512 26.0008 26.5199 25.8737 27.5 25.622M24.5 26C23.4881 26.0008 22.4801 25.8737 21.5 25.622M29 40.578C26.0266 41.1426 22.9735 41.1426 20 40.578M27.5 45.344C25.5055 45.5528 23.4946 45.5528 21.5 45.344M29 36.5V36.116C29 34.15 30.316 32.47 32.016 31.484C34.872 29.8301 37.1029 27.2804 38.3629 24.2301C39.6228 21.1797 39.8417 17.799 38.9854 14.6116C38.1291 11.4243 36.2455 8.60839 33.6266 6.60013C31.0076 4.59187 27.7994 3.50342 24.499 3.50342C21.1987 3.50342 17.9905 4.59187 15.3715 6.60013C12.7525 8.60839 10.869 11.4243 10.0127 14.6116C9.15641 17.799 9.37522 21.1797 10.6352 24.2301C11.8952 27.2804 14.126 29.8301 16.982 31.484C18.682 32.47 20 34.15 20 36.116V36.5" stroke="#253AFF" stroke-width="1.5" stroke-linecap="round" stroke-linejoin="round"/>
</g>
<defs>
<clipPath id="clip0_4435_2541">
<rect width="48" height="48" fill="white" transform="translate(0.5 0.5)"/>
</clipPath>
</defs>
</svg>
