<svg width="49" height="49" viewBox="0 0 49 49" fill="none" xmlns="http://www.w3.org/2000/svg">
<g clip-path="url(#clip0_4435_2542)">
<g clip-path="url(#clip1_4435_2542)">
<path d="M47.0282 5.76566L43.2335 1.97054C41.2744 0.0124253 38.0863 0.0114487 36.1262 1.97054L23.7921 14.3052C22.8428 15.2535 22.3203 16.5162 22.3203 17.8581C22.3203 19.2009 22.8428 20.4627 23.7921 21.412L25.2062 19.9979C24.6349 19.4265 24.3204 18.6667 24.3204 17.8581C24.3204 17.0504 24.6349 16.2906 25.2062 15.7193L37.5404 3.38467C38.7201 2.20492 40.6396 2.20492 41.8194 3.38467L45.614 7.1798C46.1853 7.75112 46.5003 8.51092 46.5003 9.31956C46.5003 10.1272 46.1858 10.887 45.614 11.4583L33.2804 23.793C32.1367 24.9356 30.144 24.9356 29.0013 23.793L27.5872 25.2071C28.536 26.1564 29.7982 26.6799 31.1406 26.6799C32.483 26.6799 33.7452 26.1564 34.6945 25.2071L47.0282 12.8725C47.9774 11.9242 48.5004 10.6624 48.5004 9.31956C48.5004 7.97671 47.9774 6.71503 47.0282 5.76566Z" fill="url(#paint0_linear_4435_2542)"/>
<path d="M25.2058 27.5882L23.7916 29.0023C24.363 29.5736 24.6774 30.3334 24.6774 31.1421C24.6774 31.9497 24.363 32.7095 23.7916 33.2809L11.4575 45.6155C10.2777 46.7952 8.3582 46.7952 7.17845 45.6155L3.38382 41.8204C2.20407 40.6406 2.20407 38.7206 3.38382 37.5408L15.7175 25.2072C16.8611 24.0645 18.8539 24.0645 19.9965 25.2072L21.4107 23.793C20.4619 22.8438 19.1996 22.3203 17.8572 22.3203C16.5149 22.3203 15.2526 22.8438 14.3033 23.793L1.96968 36.1267C0.0101058 38.0868 0.0101058 41.2744 1.96968 43.2345L5.76432 47.0296C6.74435 48.0092 8.03104 48.4985 9.31822 48.4985C10.6049 48.4985 11.8921 48.0092 12.8716 47.0296L25.2058 34.695C26.155 33.7467 26.6775 32.4839 26.6775 31.1421C26.6775 29.7992 26.155 28.5374 25.2058 27.5882Z" fill="url(#paint1_linear_4435_2542)"/>
<path d="M30.432 17.1521L17.1484 30.4357L18.5627 31.8499L31.8463 18.5664L30.432 17.1521Z" fill="url(#paint2_linear_4435_2542)"/>
</g>
</g>
<defs>
<linearGradient id="paint0_linear_4435_2542" x1="22.3203" y1="13.5907" x2="48.5004" y2="13.5907" gradientUnits="userSpaceOnUse">
<stop stop-color="#3461FF"/>
<stop offset="1" stop-color="#0505E5"/>
</linearGradient>
<linearGradient id="paint1_linear_4435_2542" x1="0.5" y1="35.4094" x2="26.6775" y2="35.4094" gradientUnits="userSpaceOnUse">
<stop stop-color="#3461FF"/>
<stop offset="1" stop-color="#0505E5"/>
</linearGradient>
<linearGradient id="paint2_linear_4435_2542" x1="17.8556" y1="31.1428" x2="31.1391" y2="17.8593" gradientUnits="userSpaceOnUse">
<stop stop-color="#3461FF"/>
<stop offset="1" stop-color="#0505E5"/>
</linearGradient>
<clipPath id="clip0_4435_2542">
<rect width="48" height="48" fill="white" transform="translate(0.5 0.5)"/>
</clipPath>
<clipPath id="clip1_4435_2542">
<rect width="48" height="48" fill="white" transform="translate(0.5 0.5)"/>
</clipPath>
</defs>
</svg>
