<svg width="49" height="48" viewBox="0 0 49 48" fill="none" xmlns="http://www.w3.org/2000/svg">
<g clip-path="url(#clip0_4375_2105)">
<path d="M23.6174 11.5248C23.613 11.5293 23.6072 11.5318 23.6012 11.5317C23.5951 11.5315 23.5894 11.5288 23.5852 11.524C21.9398 9.69989 20.3002 7.87396 18.6666 6.04621C18.2507 5.58132 17.9159 5.23552 17.6624 5.00881C14.4918 2.18041 9.8427 2.76594 7.31709 6.28464C5.97534 8.15383 5.40832 10.6007 5.83288 12.989C6.12247 14.6156 6.80294 16.0295 7.87428 17.2308C9.55896 19.1196 11.3281 21.094 13.1817 23.1542C13.1884 23.162 13.1922 23.1723 13.1922 23.1831C13.1922 23.194 13.1884 23.2043 13.1817 23.2121C11.4076 25.2108 9.63148 27.2134 7.85323 29.2199C6.60598 30.6271 5.89674 32.3282 5.72551 34.3232C5.56762 36.1611 6.02797 38.078 6.93393 39.5712C7.7896 40.982 8.91639 42.0027 10.3143 42.6333C13.0631 43.8732 16.2609 43.1071 18.296 40.7946C20.0186 38.8371 21.7805 36.8298 23.5817 34.7727C23.5838 34.7702 23.5865 34.7682 23.5894 34.7668C23.5923 34.7654 23.5954 34.7647 23.5986 34.7647C23.6018 34.7647 23.605 34.7654 23.608 34.7668C23.611 34.7682 23.6137 34.7702 23.616 34.7727C25.5781 36.9684 27.3929 38.9895 29.0602 40.836C30.6385 42.5841 32.8146 43.4252 35.0294 43.1798C38.0006 42.8499 40.5395 40.4577 41.3395 37.254C41.8981 35.0158 41.609 32.6104 40.4722 30.6294C40.1737 30.1087 39.8518 29.6556 39.5066 29.2699C37.6946 27.2493 35.8829 25.2295 34.0715 23.2105C34.0677 23.2061 34.0657 23.2002 34.0657 23.1943C34.0657 23.1883 34.0677 23.1826 34.0715 23.1785C35.7112 21.3663 37.3721 19.5422 39.0539 17.7061C39.4712 17.2512 39.7896 16.871 40.009 16.5656C41.5031 14.4869 42.0132 11.6475 41.3087 9.08412C40.2666 5.29259 37.0111 2.87383 33.461 3.29676C31.7777 3.49689 30.3031 4.28204 29.0371 5.6522C27.2888 7.54353 25.4822 9.50106 23.6174 11.5248Z" stroke="#7C7C7C" stroke-width="2"/>
<path d="M12.7332 7.92635C13.4876 7.8255 14.3283 8.07566 14.9311 8.59553C15.1314 8.76856 15.3286 8.96322 15.5227 9.17951C19.2018 13.2801 22.8855 17.3848 26.5739 21.4938C26.5783 21.4983 26.584 21.5008 26.5899 21.5008C26.5958 21.5008 26.6014 21.4983 26.6055 21.4938L28.0588 19.8982C28.0813 19.8732 28.0813 19.8484 28.0588 19.8239C24.4588 15.8224 20.8502 11.8007 17.2329 7.75905C16.7922 7.26706 16.449 6.91918 16.2034 6.7154C14.1255 4.99319 11.2336 5.21677 9.38937 7.22042C7.53464 9.23579 7.25674 12.5223 8.81674 14.8684C9.02399 15.18 9.33955 15.5706 9.76341 16.0402C11.4238 17.8789 13.0577 19.6976 14.6652 21.4961C14.6678 21.4991 14.6709 21.5014 14.6743 21.503C14.6778 21.5046 14.6814 21.5054 14.6852 21.5054C14.6889 21.5054 14.6926 21.5046 14.696 21.503C14.6994 21.5014 14.7026 21.4991 14.7052 21.4961L16.1374 19.8787C16.1566 19.8573 16.1564 19.8357 16.1367 19.8138C14.5208 18.011 12.8862 16.1924 11.2329 14.3579C10.8062 13.8841 10.5166 13.5076 10.3641 13.2282C10.0675 12.6847 9.91546 12.0929 9.90797 11.4529C9.89768 10.5554 10.1744 9.75514 10.7381 9.05208C11.2528 8.40999 11.9178 8.03475 12.7332 7.92635Z" stroke="#7C7C7C" stroke-width="2"/>
<path d="M36.5312 6.1634C34.7867 5.22294 32.7144 5.45434 31.1705 6.70281C30.9179 6.90659 30.5825 7.23675 30.1642 7.6933C28.5558 9.44757 26.872 11.2725 25.113 13.168C25.0929 13.1893 25.0926 13.211 25.1123 13.2328L26.5516 14.8362C26.5574 14.8426 26.5653 14.8463 26.5734 14.8465C26.5815 14.8466 26.5893 14.8432 26.5951 14.837C28.328 12.9618 30.0608 11.0827 31.7937 9.19975C31.9135 9.06998 32.0346 8.94646 32.1572 8.8292C32.335 8.65981 32.4639 8.54802 32.5439 8.49382C33.2882 7.98828 34.0667 7.82594 34.8793 8.00678C36.346 8.332 37.4028 9.78372 37.4035 11.4309C37.404 11.9203 37.3233 12.3734 37.1614 12.7904C36.9818 13.2532 36.7434 13.648 36.4463 13.9747C32.6774 18.1186 28.8954 22.2744 25.1004 26.4422C25.098 26.4447 25.096 26.4478 25.0947 26.4512C25.0934 26.4545 25.0928 26.4582 25.0928 26.4619C25.0928 26.4656 25.0934 26.4693 25.0947 26.4728C25.096 26.4763 25.098 26.4794 25.1004 26.4821L26.5481 28.0941C26.5545 28.1013 26.5633 28.1055 26.5725 28.1056C26.5817 28.1058 26.5905 28.1019 26.5972 28.0949C30.1939 24.1366 33.8538 20.117 37.5768 16.0362C37.9455 15.6318 38.2285 15.2876 38.426 15.0035C40.4547 12.079 39.5509 7.7918 36.5312 6.1634Z" stroke="#7C7C7C" stroke-width="2"/>
<path d="M17.6662 18.1526L19.1118 16.5422C19.1176 16.5356 19.1209 16.5268 19.1209 16.5176C19.1209 16.5084 19.1176 16.4995 19.1118 16.493L13.8227 10.6008C13.6218 10.3771 13.3515 10.2488 13.0715 10.2443C12.7915 10.2397 12.5245 10.3593 12.3294 10.5766L12.3111 10.5969C12.116 10.8143 12.0087 11.1117 12.0128 11.4237C12.0169 11.7356 12.132 12.0366 12.3329 12.2605L17.622 18.1526C17.6279 18.1591 17.6358 18.1627 17.6441 18.1627C17.6524 18.1627 17.6603 18.1591 17.6662 18.1526Z" stroke="#7C7C7C" stroke-width="2"/>
<path d="M28.087 16.5327L29.5607 18.2096C29.5633 18.2125 29.5669 18.2141 29.5705 18.2141C29.5742 18.2141 29.5777 18.2125 29.5804 18.2096L34.9404 12.3628C35.0469 12.2466 35.1337 12.1101 35.1956 11.9611C35.2574 11.8121 35.2933 11.6535 35.301 11.4944C35.3088 11.3352 35.2883 11.1787 35.2408 11.0337C35.1932 10.8887 35.1195 10.758 35.0239 10.6492L34.986 10.607C34.7928 10.3875 34.5222 10.2702 34.2336 10.2809C33.945 10.2916 33.6621 10.4295 33.447 10.6641L28.087 16.5108C28.0844 16.5138 28.083 16.5177 28.083 16.5218C28.083 16.5259 28.0844 16.5298 28.087 16.5327Z" stroke="#7C7C7C" stroke-width="2"/>
<path d="M10.1468 33.6922C10.3358 33.2242 10.5662 32.8367 10.838 32.5298C14.5896 28.2957 18.3391 24.0688 22.0864 19.8488C22.091 19.8437 22.0934 19.8367 22.0933 19.8294C22.0932 19.822 22.0905 19.815 22.0857 19.8098L20.6317 18.1892C20.6209 18.1772 20.6102 18.1772 20.5994 18.1892C16.9503 22.3085 13.3463 26.3674 9.78749 30.3658C9.36691 30.8385 9.06047 31.2156 8.86819 31.497C8.16597 32.5243 7.81182 33.6959 7.80574 35.0118C7.79965 36.3528 8.17696 37.5687 8.93767 38.6595C10.6871 41.1682 13.9875 41.588 16.2142 39.7141C16.4677 39.5004 16.7987 39.1596 17.2071 38.6916C18.8413 36.818 20.4668 34.9639 22.0836 33.1294C22.0909 33.1211 22.0949 33.1099 22.0947 33.0983C22.0946 33.0867 22.0904 33.0757 22.0829 33.0676L20.6394 31.4642C20.6342 31.4585 20.6271 31.4553 20.6198 31.4553C20.6124 31.4553 20.6054 31.4585 20.6001 31.4642C18.9739 33.3118 17.3437 35.1721 15.7096 37.0452C15.3002 37.5142 14.9685 37.835 14.7145 38.0075C14.1873 38.3656 13.6284 38.5399 13.038 38.5305C12.1749 38.5159 11.4368 38.1683 10.824 37.4877C10.3323 36.941 10.0366 36.266 9.93696 35.4629C9.90001 35.1653 9.90164 34.8615 9.94188 34.5514C9.98679 34.2064 10.0551 33.92 10.1468 33.6922Z" stroke="#7C7C7C" stroke-width="2"/>
<path d="M23.6144 21.5119C23.6095 21.5065 23.6029 21.5034 23.596 21.5034C23.5891 21.5034 23.5825 21.5065 23.5777 21.5119L22.1267 23.1282C22.1219 23.1337 22.1191 23.141 22.1191 23.1487C22.1191 23.1564 22.1219 23.1637 22.1267 23.1691L23.5807 24.7888C23.5855 24.7942 23.5921 24.7973 23.599 24.7973C23.6059 24.7973 23.6125 24.7942 23.6174 24.7888L25.0683 23.1725C25.0732 23.167 25.0759 23.1597 25.0759 23.152C25.0759 23.1443 25.0732 23.137 25.0683 23.1316L23.6144 21.5119Z" stroke="#7C7C7C" stroke-width="2"/>
<path d="M32.6914 38.0654C32.4196 37.8893 32.1992 37.7071 32.0303 37.519C28.2404 33.2985 24.4504 29.0773 20.6605 24.8553C20.6408 24.8334 20.6214 24.8334 20.6022 24.8553L19.1735 26.4681C19.1708 26.471 19.1687 26.4746 19.1672 26.4785C19.1658 26.4823 19.165 26.4865 19.165 26.4907C19.165 26.4949 19.1658 26.4991 19.1672 26.503C19.1687 26.5069 19.1708 26.5104 19.1735 26.5134C22.9503 30.7224 26.7208 34.9233 30.4851 39.1161C31.8472 40.6335 33.7496 41.223 35.6114 40.6828C37.4128 40.1598 38.8696 38.5462 39.3356 36.5348C39.8184 34.4514 39.2914 32.3445 37.93 30.8264C36.1793 28.8735 34.3943 26.885 32.5749 24.8608C32.5721 24.8576 32.5689 24.8552 32.5652 24.8535C32.5616 24.8518 32.5577 24.8509 32.5538 24.8509C32.5499 24.8509 32.546 24.8518 32.5424 24.8535C32.5388 24.8552 32.5355 24.8576 32.5328 24.8608L31.0759 26.4649C31.0733 26.4678 31.0712 26.4713 31.0697 26.4751C31.0683 26.479 31.0676 26.4831 31.0676 26.4872C31.0676 26.4914 31.0683 26.4955 31.0697 26.4993C31.0712 26.5031 31.0733 26.5066 31.0759 26.5095C32.8687 28.503 34.6546 30.4939 36.4338 32.4821C36.9288 33.0351 37.2331 33.6644 37.3468 34.3701C37.4974 35.3077 37.3452 36.1639 36.89 36.9389C36.512 37.5821 35.9997 38.0389 35.3531 38.3094C34.4935 38.6697 33.4984 38.5908 32.6914 38.0654Z" stroke="#7C7C7C" stroke-width="2"/>
<path d="M29.5337 28.1459L28.0818 29.7633C28.0769 29.7689 28.0742 29.7763 28.0742 29.784C28.0742 29.7918 28.0769 29.7992 28.0818 29.8048L33.4965 35.8368C33.6973 36.0605 33.9675 36.1884 34.2478 36.1925C34.5281 36.1966 34.7955 36.0765 34.9912 35.8587L35.0053 35.8431C35.2008 35.625 35.3086 35.3271 35.3049 35.0149C35.3012 34.7026 35.1864 34.4016 34.9856 34.1779L29.5709 28.1459C29.5659 28.1405 29.5592 28.1375 29.5523 28.1375C29.5454 28.1375 29.5387 28.1405 29.5337 28.1459Z" stroke="#7C7C7C" stroke-width="2"/>
<path d="M19.1042 29.735L17.7028 28.2012C17.6912 28.1885 17.6756 28.1815 17.6595 28.1816C17.6433 28.1818 17.6278 28.1891 17.6164 28.2019L12.3161 34.2105C12.1212 34.4314 12.012 34.7284 12.0127 35.0363C12.0134 35.3442 12.1238 35.6377 12.3196 35.8522L12.3308 35.8647C12.4278 35.971 12.5429 36.0546 12.6695 36.1109C12.7961 36.1671 12.9316 36.1949 13.0685 36.1927C13.2053 36.1904 13.3408 36.1582 13.467 36.0977C13.5933 36.0373 13.708 35.9499 13.8045 35.8405L19.1056 29.8311C19.1168 29.8182 19.123 29.8008 19.1227 29.7827C19.1225 29.7647 19.1158 29.7475 19.1042 29.735Z" stroke="#7C7C7C" stroke-width="2"/>
<path d="M0.5 0H48.5V48H0.5V0ZM23.6172 11.5247C23.6128 11.5293 23.6069 11.5317 23.6009 11.5316C23.5949 11.5315 23.5891 11.5287 23.5849 11.5239C21.9395 9.6998 20.3 7.87388 18.6663 6.04612C18.2504 5.58124 17.9157 5.23544 17.6621 5.00873C14.4916 2.18033 9.84246 2.76586 7.31684 6.28456C5.97509 8.15375 5.40807 10.6007 5.83263 12.9889C6.12222 14.6155 6.80269 16.0294 7.87404 17.2307C9.55871 19.1195 11.3278 21.0939 13.1814 23.1541C13.1882 23.1619 13.192 23.1723 13.192 23.1831C13.192 23.1939 13.1882 23.2043 13.1814 23.212C11.4074 25.2107 9.63123 27.2133 7.85298 29.2198C6.60573 30.627 5.89649 32.3281 5.72526 34.3231C5.56737 36.161 6.02772 38.0779 6.93368 39.5711C7.78936 40.9819 8.91614 42.0026 10.314 42.6332C13.0628 43.8731 16.2607 43.107 18.2958 40.7945C20.0184 38.837 21.7802 36.8297 23.5814 34.7726C23.5836 34.7701 23.5862 34.7681 23.5891 34.7667C23.592 34.7654 23.5952 34.7647 23.5984 34.7647C23.6016 34.7647 23.6048 34.7654 23.6078 34.7667C23.6107 34.7681 23.6135 34.7701 23.6158 34.7726C25.5779 36.9683 27.3926 38.9894 29.06 40.836C30.6382 42.584 32.8144 43.4251 35.0291 43.1797C38.0004 42.8498 40.5393 40.4576 41.3393 37.2539C41.8979 35.0158 41.6088 32.6103 40.4719 30.6293C40.1735 30.1087 39.8516 29.6555 39.5063 29.2698C37.6944 27.2493 35.8827 25.2294 34.0712 23.2104C34.0675 23.206 34.0654 23.2002 34.0654 23.1942C34.0654 23.1882 34.0675 23.1825 34.0712 23.1784C35.711 21.3663 37.3718 19.5422 39.0537 17.7061C39.471 17.2511 39.7894 16.8709 40.0088 16.5655C41.5028 14.4868 42.013 11.6474 41.3084 9.08404C40.2663 5.29251 37.0109 2.87375 33.4607 3.29668C31.7774 3.49681 30.3028 4.28195 29.0368 5.65212C27.2885 7.54345 25.482 9.50098 23.6172 11.5247Z" fill="#F7F7F7"/>
<path d="M23.6174 11.5248C25.4822 9.50106 27.2888 7.54353 29.0371 5.6522C30.3031 4.28204 31.7777 3.49689 33.461 3.29676C37.0111 2.87383 40.2666 5.29259 41.3087 9.08412C42.0132 11.6475 41.5031 14.4869 40.009 16.5656C39.7896 16.871 39.4712 17.2512 39.0539 17.7061C37.3721 19.5422 35.7112 21.3663 34.0715 23.1785C34.0677 23.1826 34.0657 23.1883 34.0657 23.1943C34.0657 23.2002 34.0677 23.2061 34.0715 23.2105C35.8829 25.2295 37.6946 27.2493 39.5066 29.2699C39.8518 29.6556 40.1737 30.1087 40.4722 30.6294C41.609 32.6104 41.8981 35.0158 41.3396 37.254C40.5395 40.4577 38.0006 42.8499 35.0294 43.1798C32.8146 43.4252 30.6385 42.5841 29.0602 40.836C27.3929 38.9895 25.5781 36.9684 23.616 34.7727C23.6137 34.7702 23.611 34.7682 23.608 34.7668C23.605 34.7654 23.6018 34.7647 23.5986 34.7647C23.5954 34.7647 23.5923 34.7654 23.5894 34.7668C23.5865 34.7682 23.5838 34.7702 23.5817 34.7727C21.7805 36.8298 20.0186 38.8371 18.296 40.7946C16.261 43.1071 13.0631 43.8732 10.3143 42.6333C8.91639 42.0027 7.7896 40.982 6.93393 39.5712C6.02797 38.078 5.56762 36.1611 5.72551 34.3232C5.89674 32.3282 6.60598 30.6271 7.85323 29.2199C9.63148 27.2134 11.4076 25.2108 13.1817 23.2121C13.1884 23.2043 13.1922 23.194 13.1922 23.1831C13.1922 23.1723 13.1884 23.162 13.1817 23.1542C11.3281 21.094 9.55896 19.1196 7.87428 17.2308C6.80294 16.0295 6.12247 14.6156 5.83288 12.989C5.40832 10.6007 5.97534 8.15383 7.31709 6.28464C9.8427 2.76594 14.4918 2.18041 17.6624 5.00881C17.9159 5.23552 18.2507 5.58132 18.6666 6.04621C20.3002 7.87396 21.9398 9.69989 23.5852 11.524C23.5894 11.5288 23.5951 11.5315 23.6012 11.5317C23.6072 11.5318 23.613 11.5293 23.6174 11.5248ZM12.7332 7.92634C13.4876 7.82549 14.3283 8.07565 14.9311 8.59552C15.1314 8.76855 15.3286 8.96321 15.5227 9.17949C19.2018 13.2801 22.8855 17.3848 26.5739 21.4938C26.5783 21.4983 26.584 21.5008 26.5899 21.5008C26.5958 21.5008 26.6014 21.4983 26.6055 21.4938L28.0588 19.8982C28.0813 19.8732 28.0813 19.8484 28.0588 19.8239C24.4588 15.8224 20.8502 11.8007 17.2329 7.75904C16.7922 7.26705 16.449 6.91917 16.2034 6.71539C14.1255 4.99318 11.2336 5.21676 9.38937 7.22041C7.53463 9.23578 7.25674 12.5223 8.81674 14.8684C9.02399 15.18 9.33955 15.5706 9.76341 16.0402C11.4238 17.8789 13.0577 19.6975 14.6652 21.4961C14.6678 21.4991 14.6709 21.5014 14.6743 21.503C14.6778 21.5046 14.6814 21.5054 14.6852 21.5054C14.6889 21.5054 14.6926 21.5046 14.696 21.503C14.6994 21.5014 14.7025 21.4991 14.7052 21.4961L16.1374 19.8786C16.1566 19.8573 16.1564 19.8357 16.1367 19.8138C14.5208 18.011 12.8862 16.1924 11.2329 14.3579C10.8062 13.8841 10.5166 13.5076 10.3641 13.2282C10.0675 12.6846 9.91545 12.0928 9.90797 11.4529C9.89767 10.5554 10.1744 9.75513 10.7381 9.05207C11.2528 8.40998 11.9178 8.03474 12.7332 7.92634ZM36.5311 6.16347C34.7866 5.22301 32.7143 5.45441 31.1704 6.70288C30.9178 6.90666 30.5824 7.23682 30.1641 7.69337C28.5557 9.44764 26.8719 11.2725 25.1129 13.168C25.0928 13.1894 25.0925 13.211 25.1122 13.2329L26.5515 14.8363C26.5573 14.8427 26.5652 14.8464 26.5733 14.8465C26.5814 14.8467 26.5892 14.8433 26.595 14.8371C28.3279 12.9619 30.0607 11.0828 31.7936 9.19982C31.9133 9.07005 32.0345 8.94653 32.1571 8.82927C32.3349 8.65989 32.4638 8.54809 32.5438 8.49389C33.2881 7.98836 34.0666 7.82601 34.8792 8.00686C36.3459 8.33207 37.4027 9.78379 37.4034 11.431C37.4039 11.9203 37.3232 12.3735 37.1613 12.7904C36.9817 13.2532 36.7433 13.648 36.4462 13.9748C32.6773 18.1186 28.8953 22.2745 25.1002 26.4423C25.0979 26.4448 25.0959 26.4478 25.0946 26.4512C25.0933 26.4546 25.0927 26.4583 25.0927 26.462C25.0927 26.4657 25.0933 26.4694 25.0946 26.4729C25.0959 26.4763 25.0979 26.4795 25.1002 26.4822L26.548 28.0942C26.5544 28.1014 26.5632 28.1056 26.5724 28.1057C26.5816 28.1059 26.5904 28.102 26.5971 28.0949C30.1938 24.1366 33.8537 20.1171 37.5767 16.0363C37.9454 15.6319 38.2284 15.2876 38.4259 15.0036C40.4546 12.079 39.5508 7.79187 36.5311 6.16347ZM17.6659 18.1525L19.1115 16.5421C19.1173 16.5355 19.1205 16.5267 19.1205 16.5175C19.1205 16.5083 19.1173 16.4994 19.1115 16.4929L13.8224 10.6007C13.6214 10.377 13.3512 10.2487 13.0712 10.2442C12.7911 10.2396 12.5242 10.3592 12.329 10.5765L12.3108 10.5968C12.1157 10.8142 12.0084 11.1116 12.0125 11.4236C12.0165 11.7355 12.1317 12.0365 12.3325 12.2604L17.6217 18.1525C17.6276 18.159 17.6355 18.1626 17.6438 18.1626C17.652 18.1626 17.66 18.159 17.6659 18.1525ZM28.0869 16.5327L29.5606 18.2096C29.5632 18.2125 29.5667 18.2141 29.5704 18.2141C29.5741 18.2141 29.5776 18.2125 29.5802 18.2096L34.9402 12.3628C35.0468 12.2466 35.1336 12.1101 35.1955 11.9611C35.2573 11.8121 35.2932 11.6535 35.3009 11.4944C35.3087 11.3352 35.2882 11.1787 35.2407 11.0337C35.1931 10.8887 35.1194 10.758 35.0238 10.6492L34.9859 10.607C34.7927 10.3875 34.5221 10.2702 34.2335 10.2809C33.9449 10.2916 33.662 10.4294 33.4469 10.6641L28.0869 16.5108C28.0843 16.5138 28.0829 16.5177 28.0829 16.5218C28.0829 16.5259 28.0843 16.5298 28.0869 16.5327ZM10.1466 33.6923C10.3356 33.2243 10.566 32.8368 10.8378 32.5299C14.5894 28.2958 18.3388 24.0689 22.0862 19.8489C22.0908 19.8438 22.0932 19.8368 22.0931 19.8295C22.093 19.8221 22.0902 19.8151 22.0855 19.8099L20.6315 18.1893C20.6207 18.1773 20.61 18.1773 20.5992 18.1893C16.9501 22.3086 13.3461 26.3675 9.78727 30.3659C9.36668 30.8386 9.06025 31.2157 8.86797 31.4972C8.16574 32.5244 7.81159 33.696 7.80551 35.0119C7.79943 36.3529 8.17674 37.5688 8.93744 38.6596C10.6869 41.1683 13.9873 41.5881 16.2139 39.7142C16.4675 39.5005 16.7985 39.1597 17.2069 38.6917C18.8411 36.8181 20.4666 34.964 22.0834 33.1295C22.0906 33.1212 22.0946 33.11 22.0945 33.0984C22.0944 33.0868 22.0901 33.0758 22.0827 33.0677L20.6392 31.4643C20.6339 31.4586 20.6269 31.4554 20.6195 31.4554C20.6122 31.4554 20.6051 31.4586 20.5999 31.4643C18.9737 33.3119 17.3435 35.1722 15.7094 37.0453C15.3 37.5143 14.9683 37.8351 14.7143 38.0076C14.187 38.3657 13.6282 38.54 13.0378 38.5306C12.1746 38.516 11.4366 38.1684 10.8238 37.4878C10.3321 36.9411 10.0364 36.2661 9.93674 35.463C9.89978 35.1654 9.90142 34.8616 9.94165 34.5515C9.98656 34.2065 10.0549 33.9201 10.1466 33.6923ZM23.614 21.5119C23.6091 21.5064 23.6025 21.5034 23.5956 21.5034C23.5887 21.5034 23.5821 21.5064 23.5772 21.5119L22.1263 23.1282C22.1214 23.1336 22.1187 23.141 22.1187 23.1487C22.1187 23.1563 22.1214 23.1637 22.1263 23.1691L23.5802 24.7888C23.5851 24.7942 23.5917 24.7972 23.5986 24.7972C23.6055 24.7972 23.6121 24.7942 23.6169 24.7888L25.0679 23.1724C25.0727 23.167 25.0755 23.1596 25.0755 23.152C25.0755 23.1443 25.0727 23.1369 25.0679 23.1315L23.614 21.5119ZM32.6918 38.0655C32.42 37.8893 32.1997 37.7072 32.0308 37.519C28.2408 33.2986 24.4509 29.0773 20.661 24.8553C20.6413 24.8334 20.6219 24.8334 20.6027 24.8553L19.1739 26.4681C19.1713 26.4711 19.1691 26.4746 19.1677 26.4785C19.1662 26.4824 19.1655 26.4866 19.1655 26.4908C19.1655 26.495 19.1662 26.4991 19.1677 26.503C19.1691 26.5069 19.1713 26.5105 19.1739 26.5134C22.9508 30.7224 26.7213 34.9233 30.4855 39.1162C31.8476 40.6336 33.7501 41.223 35.6118 40.6828C37.4132 40.1598 38.8701 38.5463 39.336 36.5348C39.8188 34.4514 39.2918 32.3446 37.9304 30.8264C36.1798 28.8736 34.3948 26.885 32.5753 24.8608C32.5726 24.8577 32.5693 24.8552 32.5657 24.8535C32.5621 24.8518 32.5582 24.8509 32.5543 24.8509C32.5504 24.8509 32.5465 24.8518 32.5429 24.8535C32.5393 24.8552 32.536 24.8577 32.5332 24.8608L31.0764 26.465C31.0737 26.4679 31.0716 26.4713 31.0702 26.4752C31.0688 26.479 31.068 26.4831 31.068 26.4872C31.068 26.4914 31.0688 26.4955 31.0702 26.4993C31.0716 26.5031 31.0737 26.5066 31.0764 26.5095C32.8691 28.503 34.6551 30.4939 36.4343 32.4822C36.9293 33.0351 37.2336 33.6644 37.3473 34.3701C37.4979 35.3077 37.3456 36.164 36.8904 36.939C36.5124 37.5821 36.0001 38.0389 35.3536 38.3094C34.4939 38.6698 33.4988 38.5908 32.6918 38.0655ZM29.5332 28.1458L28.0813 29.7632C28.0765 29.7688 28.0737 29.7762 28.0737 29.7839C28.0737 29.7917 28.0765 29.7991 28.0813 29.8046L33.496 35.8367C33.6968 36.0603 33.9671 36.1883 34.2473 36.1924C34.5276 36.1965 34.7951 36.0764 34.9908 35.8586L35.0048 35.8429C35.2004 35.6249 35.3081 35.327 35.3044 35.0148C35.3008 34.7025 35.1859 34.4015 34.9852 34.1778L29.5704 28.1458C29.5654 28.1404 29.5588 28.1373 29.5518 28.1373C29.5449 28.1373 29.5382 28.1404 29.5332 28.1458ZM19.1045 29.7351L17.7031 28.2013C17.6915 28.1886 17.6759 28.1816 17.6598 28.1817C17.6436 28.1819 17.6281 28.1892 17.6167 28.202L12.3164 34.2106C12.1215 34.4315 12.0123 34.7285 12.013 35.0364C12.0137 35.3443 12.124 35.6378 12.3199 35.8523L12.3311 35.8648C12.4281 35.9711 12.5432 36.0547 12.6698 36.111C12.7964 36.1672 12.9319 36.195 13.0688 36.1928C13.2056 36.1905 13.3411 36.1583 13.4673 36.0978C13.5936 36.0374 13.7083 35.95 13.8048 35.8406L19.1059 29.8312C19.1171 29.8183 19.1233 29.8009 19.123 29.7828C19.1228 29.7648 19.1161 29.7476 19.1045 29.7351Z" fill="url(#paint0_linear_4375_2105)"/>
<path d="M14.9311 8.59553C14.3283 8.07566 13.4876 7.8255 12.7332 7.92635C11.9178 8.03475 11.2528 8.40999 10.7381 9.05208C10.1744 9.75514 9.89768 10.5554 9.90797 11.4529C9.91546 12.0929 10.0675 12.6847 10.3641 13.2282C10.5166 13.5076 10.8062 13.8841 11.2329 14.3579C12.8862 16.1924 14.5208 18.011 16.1367 19.8138C16.1564 19.8357 16.1566 19.8573 16.1374 19.8787L14.7052 21.4961C14.7026 21.4991 14.6994 21.5014 14.696 21.503C14.6926 21.5046 14.6889 21.5054 14.6852 21.5054C14.6814 21.5054 14.6778 21.5046 14.6743 21.503C14.6709 21.5014 14.6678 21.4991 14.6652 21.4961C13.0577 19.6976 11.4238 17.8789 9.76341 16.0402C9.33955 15.5706 9.02399 15.18 8.81674 14.8684C7.25674 12.5223 7.53464 9.23579 9.38937 7.22042C11.2336 5.21677 14.1255 4.99319 16.2034 6.7154C16.449 6.91918 16.7922 7.26706 17.2329 7.75905C20.8502 11.8007 24.4588 15.8224 28.0588 19.8239C28.0813 19.8484 28.0813 19.8732 28.0588 19.8982L26.6055 21.4938C26.6014 21.4983 26.5958 21.5008 26.5899 21.5008C26.584 21.5008 26.5783 21.4983 26.5739 21.4938C22.8855 17.3848 19.2018 13.2801 15.5227 9.17951C15.3286 8.96322 15.1314 8.76856 14.9311 8.59553Z" fill="#F7F7F7"/>
<path d="M36.5312 6.1634C39.5509 7.7918 40.4547 12.079 38.426 15.0035C38.2285 15.2876 37.9455 15.6318 37.5768 16.0362C33.8538 20.117 30.1939 24.1366 26.5972 28.0949C26.5905 28.1019 26.5817 28.1058 26.5725 28.1056C26.5633 28.1055 26.5545 28.1013 26.5481 28.0941L25.1004 26.4821C25.098 26.4794 25.096 26.4763 25.0947 26.4728C25.0934 26.4693 25.0928 26.4656 25.0928 26.4619C25.0928 26.4582 25.0934 26.4545 25.0947 26.4512C25.096 26.4478 25.098 26.4447 25.1004 26.4422C28.8954 22.2744 32.6774 18.1186 36.4463 13.9747C36.7434 13.648 36.9818 13.2532 37.1614 12.7904C37.3233 12.3734 37.404 11.9203 37.4035 11.4309C37.4028 9.78372 36.346 8.332 34.8793 8.00678C34.0667 7.82594 33.2882 7.98828 32.5439 8.49382C32.4639 8.54802 32.335 8.65981 32.1572 8.8292C32.0346 8.94646 31.9135 9.06998 31.7937 9.19975C30.0608 11.0827 28.328 12.9618 26.5951 14.837C26.5893 14.8432 26.5815 14.8466 26.5734 14.8465C26.5653 14.8463 26.5574 14.8426 26.5516 14.8362L25.1123 13.2328C25.0926 13.211 25.0929 13.1893 25.113 13.168C26.872 11.2725 28.5558 9.44757 30.1642 7.6933C30.5825 7.23675 30.9179 6.90659 31.1705 6.70281C32.7144 5.45434 34.7867 5.22294 36.5312 6.1634Z" fill="#F7F7F7"/>
<path d="M17.6652 18.1524C17.6593 18.1588 17.6514 18.1624 17.6431 18.1624C17.6349 18.1624 17.6269 18.1588 17.621 18.1524L12.3319 12.2603C12.131 12.0364 12.0159 11.7354 12.0118 11.4234C12.0078 11.1115 12.1151 10.8141 12.3102 10.5967L12.3284 10.5764C12.5235 10.359 12.7905 10.2395 13.0705 10.244C13.3506 10.2486 13.6208 10.3768 13.8217 10.6006L19.1109 16.4927C19.1166 16.4993 19.1199 16.5081 19.1199 16.5173C19.1199 16.5265 19.1166 16.5354 19.1109 16.542L17.6652 18.1524Z" fill="#F7F7F7"/>
<path d="M28.087 16.5327C28.0844 16.5298 28.083 16.5259 28.083 16.5218C28.083 16.5177 28.0844 16.5138 28.087 16.5108L33.447 10.6641C33.6621 10.4295 33.945 10.2916 34.2336 10.2809C34.5222 10.2702 34.7928 10.3875 34.986 10.607L35.0239 10.6492C35.1195 10.758 35.1932 10.8887 35.2408 11.0337C35.2883 11.1787 35.3088 11.3352 35.301 11.4944C35.2933 11.6535 35.2574 11.8121 35.1956 11.9611C35.1337 12.1101 35.0469 12.2466 34.9404 12.3628L29.5804 18.2096C29.5777 18.2125 29.5742 18.2141 29.5705 18.2141C29.5669 18.2141 29.5633 18.2125 29.5607 18.2096L28.087 16.5327Z" fill="#F7F7F7"/>
<path d="M10.1468 33.6922C10.0551 33.92 9.98679 34.2064 9.94188 34.5514C9.90164 34.8615 9.90001 35.1653 9.93696 35.4629C10.0366 36.266 10.3323 36.941 10.824 37.4877C11.4368 38.1683 12.1749 38.5159 13.038 38.5305C13.6284 38.5399 14.1873 38.3656 14.7145 38.0075C14.9685 37.835 15.3002 37.5142 15.7096 37.0452C17.3437 35.1721 18.9739 33.3118 20.6001 31.4642C20.6054 31.4585 20.6124 31.4553 20.6198 31.4553C20.6271 31.4553 20.6342 31.4585 20.6394 31.4642L22.0829 33.0676C22.0904 33.0757 22.0946 33.0867 22.0947 33.0983C22.0949 33.1099 22.0909 33.1211 22.0836 33.1294C20.4668 34.9639 18.8413 36.818 17.2071 38.6916C16.7987 39.1596 16.4677 39.5004 16.2142 39.7141C13.9875 41.588 10.6871 41.1682 8.93767 38.6595C8.17696 37.5687 7.79965 36.3528 7.80574 35.0118C7.81182 33.6959 8.16597 32.5243 8.86819 31.497C9.06047 31.2156 9.36691 30.8385 9.78749 30.3658C13.3463 26.3674 16.9503 22.3085 20.5994 18.1892C20.6102 18.1772 20.6209 18.1772 20.6317 18.1892L22.0857 19.8098C22.0905 19.815 22.0932 19.822 22.0933 19.8294C22.0934 19.8367 22.091 19.8437 22.0864 19.8488C18.3391 24.0688 14.5896 28.2957 10.838 32.5298C10.5662 32.8367 10.3358 33.2242 10.1468 33.6922Z" fill="#F7F7F7"/>
<path d="M23.5767 21.5119L22.1258 23.1282C22.1156 23.1395 22.1156 23.1578 22.1258 23.1691L23.5797 24.7888C23.5898 24.8001 23.6063 24.8001 23.6164 24.7888L25.0673 23.1725C25.0775 23.1612 25.0775 23.1428 25.0673 23.1315L23.6134 21.5119C23.6033 21.5006 23.5869 21.5006 23.5767 21.5119Z" fill="#F7F7F7"/>
<path d="M32.6914 38.0654C33.4984 38.5908 34.4935 38.6697 35.3531 38.3094C35.9997 38.0389 36.512 37.5821 36.89 36.9389C37.3452 36.1639 37.4974 35.3077 37.3468 34.3701C37.2331 33.6644 36.9288 33.0351 36.4338 32.4821C34.6546 30.4939 32.8687 28.503 31.0759 26.5095C31.0733 26.5066 31.0712 26.5031 31.0697 26.4993C31.0683 26.4955 31.0676 26.4914 31.0676 26.4872C31.0676 26.4831 31.0683 26.479 31.0697 26.4751C31.0712 26.4713 31.0733 26.4678 31.0759 26.4649L32.5328 24.8608C32.5355 24.8576 32.5388 24.8552 32.5424 24.8535C32.546 24.8518 32.5499 24.8509 32.5538 24.8509C32.5577 24.8509 32.5616 24.8518 32.5652 24.8535C32.5689 24.8552 32.5721 24.8576 32.5749 24.8608C34.3943 26.885 36.1793 28.8735 37.93 30.8264C39.2914 32.3445 39.8184 34.4514 39.3356 36.5348C38.8696 38.5462 37.4128 40.1598 35.6114 40.6828C33.7496 41.223 31.8472 40.6335 30.4851 39.1161C26.7208 34.9233 22.9503 30.7224 19.1735 26.5134C19.1708 26.5104 19.1687 26.5069 19.1672 26.503C19.1658 26.4991 19.165 26.4949 19.165 26.4907C19.165 26.4865 19.1658 26.4823 19.1672 26.4785C19.1687 26.4746 19.1708 26.471 19.1735 26.4681L20.6022 24.8553C20.6214 24.8334 20.6408 24.8334 20.6605 24.8553C24.4504 29.0773 28.2404 33.2985 32.0303 37.519C32.1992 37.7071 32.4196 37.8893 32.6914 38.0654Z" fill="#F7F7F7"/>
<path d="M29.5327 28.1456C29.5377 28.1402 29.5444 28.1372 29.5513 28.1372C29.5583 28.1372 29.5649 28.1402 29.5699 28.1456L34.9847 34.1777C35.1854 34.4013 35.3003 34.7024 35.3039 35.0146C35.3076 35.3269 35.1998 35.6248 35.0043 35.8428L34.9903 35.8585C34.7945 36.0763 34.5271 36.1964 34.2468 36.1923C33.9665 36.1881 33.6963 36.0602 33.4955 35.8366L28.0808 29.8045C28.076 29.799 28.0732 29.7915 28.0732 29.7838C28.0732 29.7761 28.076 29.7686 28.0808 29.7631L29.5327 28.1456Z" fill="#F7F7F7"/>
<path d="M19.1042 29.735C19.1158 29.7475 19.1225 29.7647 19.1227 29.7827C19.123 29.8008 19.1168 29.8182 19.1056 29.8311L13.8045 35.8405C13.708 35.9499 13.5933 36.0373 13.467 36.0977C13.3408 36.1582 13.2053 36.1904 13.0685 36.1927C12.9316 36.1949 12.7961 36.1671 12.6695 36.1109C12.5429 36.0546 12.4278 35.971 12.3308 35.8647L12.3196 35.8522C12.1238 35.6377 12.0134 35.3442 12.0127 35.0363C12.012 34.7284 12.1212 34.4314 12.3161 34.2105L17.6164 28.2019C17.6278 28.1891 17.6433 28.1818 17.6595 28.1816C17.6756 28.1815 17.6912 28.1885 17.7028 28.2012L19.1042 29.735Z" fill="#F7F7F7"/>
</g>
<defs>
<linearGradient id="paint0_linear_4375_2105" x1="5.69434" y1="23.219" x2="41.621" y2="23.219" gradientUnits="userSpaceOnUse">
<stop stop-color="#4834FF"/>
<stop offset="1" stop-color="#0505E5"/>
</linearGradient>
<clipPath id="clip0_4375_2105">
<rect width="48" height="48" fill="white" transform="translate(0.5)"/>
</clipPath>
</defs>
</svg>
