<svg width="48" height="49" viewBox="0 0 48 49" fill="none" xmlns="http://www.w3.org/2000/svg">
<g clip-path="url(#clip0_4749_426)">
<g clip-path="url(#clip1_4749_426)">
<path d="M47.8067 17.1025C47.5493 16.8449 47.1317 16.8449 46.8741 17.1025L42.7662 21.2105C42.6592 21.3175 42.5924 21.4579 42.5766 21.6084C42.2496 24.7375 40.8445 27.686 38.6197 29.9106L37.6435 30.8868L30.5505 23.7938C30.9992 23.8997 31.4383 23.9533 31.8647 23.9533C32.4903 23.9533 33.0889 23.8389 33.6512 23.6088C33.9884 23.4709 34.1498 23.0858 34.0119 22.7487C33.874 22.4114 33.4888 22.2502 33.1518 22.388C30.4358 23.4991 27.3047 20.5419 26.9103 20.1536L25.0257 18.2689C25.2596 17.2766 25.0576 16.2117 24.4559 15.3465C23.7757 14.3686 22.6944 13.8078 21.4844 13.8078L16.9195 13.8405C16.9155 13.8405 16.9114 13.8405 16.9074 13.8405C16.4704 13.8405 16.0595 13.6712 15.7491 13.3629C15.4359 13.0518 15.2634 12.6373 15.2635 12.1957V12.127C15.2637 11.2409 15.9575 10.5194 16.843 10.4845L25.1561 10.157C28.1563 10.0389 31.1467 10.95 33.5721 12.7225C33.8346 12.9142 34.1977 12.8862 34.4275 12.6563L38.7936 8.29019C39.0512 8.03267 39.0512 7.61505 38.7937 7.35754C38.5361 7.09993 38.1186 7.09993 37.861 7.35754L33.8864 11.3322C31.3094 9.59936 28.2127 8.71673 25.1042 8.839L16.7911 9.16652C16.7715 9.16733 16.7523 9.16905 16.7329 9.17027L13.5788 6.01621C13.3212 5.75859 12.9036 5.75859 12.6461 6.01621C12.3885 6.27372 12.3885 6.69134 12.6461 6.94885L15.3199 9.62259C14.4901 10.1476 13.9448 11.0724 13.9445 12.1269V12.1956C13.9443 12.9913 14.2552 13.7382 14.8196 14.2989C15.3842 14.8596 16.1327 15.1653 16.9289 15.1595L21.4891 15.1268C22.5395 15.1268 23.1203 15.7363 23.3729 16.0997C23.5654 16.3763 23.6944 16.6838 23.7572 17.0005L23.5311 16.7745C23.2736 16.5169 22.856 16.5169 22.5985 16.7745C22.3409 17.032 22.3409 17.4496 22.5985 17.7071L37.4796 32.5882C38.1222 33.2308 38.1222 34.2765 37.4796 34.919C36.8373 35.5614 35.7923 35.5615 35.1498 34.9198L25.6712 25.4413C25.4138 25.1837 24.996 25.1837 24.7386 25.4413C24.481 25.6988 24.481 26.1164 24.7386 26.374L34.948 36.5834C35.5906 37.226 35.5906 38.2717 34.948 38.9142C34.6368 39.2255 34.2229 39.397 33.7826 39.397C33.3423 39.397 32.9285 39.2255 32.6173 38.9142L22.9391 29.236C22.6815 28.9785 22.264 28.9785 22.0064 29.236C21.7489 29.4935 21.7488 29.9111 22.0064 30.1687L29.9369 38.0992C30.5789 38.7418 30.5787 39.7869 29.9363 40.4293C29.2936 41.0719 28.248 41.0718 27.6054 40.4293L18.9925 31.8163C18.735 31.5587 18.3174 31.5587 18.0598 31.8163C17.8022 32.0738 17.8022 32.4914 18.0598 32.7489L24.4486 39.1377L24.4487 39.1378C25.0914 39.7804 25.0914 40.826 24.4487 41.4686C23.8063 42.1112 22.7606 42.1112 22.118 41.4686L10.5595 29.9106C8.33487 27.686 6.92961 24.7375 6.6027 21.6084C6.58697 21.4579 6.52011 21.3175 6.41307 21.2105L1.12585 15.9232C0.868342 15.6656 0.450722 15.6656 0.19321 15.9232C-0.0644033 16.1807 -0.0644033 16.5983 0.19321 16.8559L5.31727 21.9799C5.71987 25.3215 7.24465 28.4609 9.62689 30.8432L10.5995 31.8158C10.2374 32.3171 10.0415 32.9173 10.0415 33.5479C10.0415 34.3404 10.3501 35.0855 10.9105 35.6459C11.4889 36.2243 12.2487 36.5136 13.0085 36.5136C13.0833 36.5136 13.158 36.51 13.2326 36.5044C13.2071 36.6618 13.1934 36.8224 13.1934 36.985C13.1934 37.7775 13.5021 38.5227 14.0624 39.083C14.6409 39.6615 15.4006 39.9508 16.1605 39.9508C16.3083 39.9508 16.4561 39.9395 16.6026 39.9176C16.4682 40.817 16.7461 41.7668 17.4371 42.4578C17.9974 43.0182 18.7426 43.3268 19.5351 43.3268C20.2415 43.3268 20.9098 43.0811 21.4437 42.6309C21.9809 43.0561 22.6319 43.2694 23.2833 43.2694C24.0431 43.2694 24.8031 42.9801 25.3815 42.4017C25.8124 41.9708 26.0825 41.4391 26.1924 40.8819L26.6726 41.3621C27.2511 41.9406 28.0108 42.2298 28.7707 42.2298C29.5305 42.2298 30.2906 41.9405 30.869 41.3621C31.2999 40.9312 31.57 40.3996 31.6799 39.8424L31.6844 39.847C32.2448 40.4073 32.99 40.716 33.7826 40.716C34.5753 40.716 35.3204 40.4073 35.8808 39.847C36.7279 38.9999 36.9539 37.7639 36.5604 36.7085C37.2362 36.6527 37.8965 36.3676 38.4123 35.8517C39.514 34.75 39.5657 32.9909 38.5692 31.8265L39.5524 30.8432C41.9346 28.4609 43.4594 25.3214 43.8621 21.9798L47.8068 18.0351C48.0644 17.7775 48.0644 17.36 47.8067 17.1025ZM11.8432 34.7133C11.532 34.402 11.3605 33.9881 11.3605 33.5479C11.3605 33.2722 11.4278 33.007 11.5544 32.7707L13.7857 35.002C13.5495 35.1287 13.2842 35.1959 13.0085 35.1959C12.5684 35.1961 12.1545 35.0247 11.8432 34.7133ZM14.9952 38.1505C14.6839 37.8392 14.5124 37.4254 14.5124 36.9851C14.5124 36.6388 14.6199 36.3098 14.8167 36.0332L17.1122 38.3287C16.4692 38.7844 15.5709 38.7261 14.9952 38.1505ZM18.3698 41.5252C17.7941 40.9495 17.7359 40.0512 18.1917 39.4081L20.4871 41.7036C20.2106 41.9004 19.8814 42.0079 19.5351 42.0079C19.095 42.0079 18.6811 41.8364 18.3698 41.5252Z" fill="url(#paint0_linear_4749_426)"/>
</g>
</g>
<defs>
<linearGradient id="paint0_linear_4749_426" x1="0" y1="24.5749" x2="48" y2="24.5749" gradientUnits="userSpaceOnUse">
<stop stop-color="#3461FF"/>
<stop offset="1" stop-color="#0505E5"/>
</linearGradient>
<clipPath id="clip0_4749_426">
<rect width="48" height="48" fill="white" transform="translate(0 0.574951)"/>
</clipPath>
<clipPath id="clip1_4749_426">
<rect width="48" height="48" fill="white" transform="translate(0 0.574951)"/>
</clipPath>
</defs>
</svg>
