<svg width="49" height="49" viewBox="0 0 49 49" fill="none" xmlns="http://www.w3.org/2000/svg">
<g clip-path="url(#clip0_4749_423)">
<path d="M24.5 36.5749V26.0749M24.5 26.0749C25.512 26.0757 26.5199 25.9487 27.5 25.6969M24.5 26.0749C23.4881 26.0757 22.4801 25.9487 21.5 25.6969M29 40.6529C26.0266 41.2176 22.9735 41.2176 20 40.6529M27.5 45.4189C25.5055 45.6277 23.4946 45.6277 21.5 45.4189M29 36.5749V36.1909C29 34.2249 30.316 32.5449 32.016 31.5589C34.872 29.905 37.1029 27.3554 38.3629 24.305C39.6228 21.2547 39.8417 17.8739 38.9854 14.6866C38.1291 11.4993 36.2455 8.68334 33.6266 6.67508C31.0076 4.66682 27.7994 3.57837 24.499 3.57837C21.1987 3.57837 17.9905 4.66682 15.3715 6.67508C12.7525 8.68334 10.869 11.4993 10.0127 14.6866C9.15641 17.8739 9.37522 21.2547 10.6352 24.305C11.8952 27.3554 14.126 29.905 16.982 31.5589C18.682 32.5449 20 34.2249 20 36.1909V36.5749" stroke="url(#paint0_linear_4749_423)" stroke-width="1.5" stroke-linecap="round" stroke-linejoin="round"/>
</g>
<defs>
<linearGradient id="paint0_linear_4749_423" x1="9.49902" y1="24.577" x2="39.499" y2="24.577" gradientUnits="userSpaceOnUse">
<stop stop-color="#3461FF"/>
<stop offset="1" stop-color="#0505E5"/>
</linearGradient>
<clipPath id="clip0_4749_423">
<rect width="48" height="48" fill="white" transform="translate(0.5 0.574951)"/>
</clipPath>
</defs>
</svg>
