<svg width="97" height="96" viewBox="0 0 97 96" fill="none" xmlns="http://www.w3.org/2000/svg">
<g clip-path="url(#clip0_4729_168)">
<path d="M84.322 53.572L79.782 49.032C79.0986 48.3474 78.53 47.5573 78.098 46.692L73.778 38.052C73.6604 37.8175 73.4888 37.6143 73.2773 37.4591C73.0658 37.3039 72.8204 37.2012 72.5615 37.1594C72.3025 37.1176 72.0373 37.1379 71.7877 37.2187C71.5382 37.2995 71.3113 37.4384 71.126 37.624C70.7086 38.0408 70.1874 38.3386 69.6163 38.4863C69.0453 38.6339 68.4451 38.6263 67.878 38.464L62.786 37.012C61.9713 36.7829 61.1016 36.8516 60.333 37.2057C59.5643 37.5598 58.947 38.1761 58.5916 38.9442C58.2362 39.7122 58.1661 40.5818 58.3937 41.3968C58.6214 42.2119 59.132 42.9192 59.834 43.392L62.182 44.952C64.542 46.532 64.878 49.872 62.87 51.88L62.07 52.68C61.222 53.528 60.75 54.672 60.75 55.864V57.504C60.75 59.14 60.31 60.74 59.47 62.136L54.21 70.9C53.4602 72.1506 52.3991 73.1856 51.1303 73.9041C49.8615 74.6226 48.4281 75.0002 46.97 75C45.8507 75 44.7774 74.5554 43.986 73.764C43.1946 72.9725 42.75 71.8992 42.75 70.78V66.092C42.75 62.412 40.51 59.104 37.094 57.736L34.474 56.692C32.5677 55.9289 30.9797 54.5369 29.9735 52.7471C28.9672 50.9572 28.6033 48.8771 28.942 46.852L28.97 46.684C29.1559 45.5712 29.5494 44.5033 30.13 43.536L30.49 42.936C31.4452 41.3452 32.8688 40.0886 34.5659 39.3382C36.2629 38.5877 38.1504 38.3802 39.97 38.744L44.682 39.688C45.7908 39.9091 46.9423 39.7048 47.9073 39.1155C48.8723 38.5263 49.5801 37.5954 49.89 36.508L50.722 33.588C51.0102 32.5792 50.9369 31.5014 50.5147 30.5409C50.0926 29.5805 49.3481 28.7977 48.41 28.328L45.75 27L45.386 27.364C44.5502 28.1997 43.5581 28.8626 42.4661 29.3149C41.3742 29.7672 40.2039 30 39.022 30H38.302C37.306 30 36.354 30.4 35.654 31.096C35.0124 31.7433 34.1558 32.1329 33.2462 32.191C32.3367 32.2491 31.4375 31.9717 30.7188 31.4112C30.0001 30.8508 29.5119 30.0462 29.3466 29.1499C29.1813 28.2537 29.3505 27.3279 29.822 26.548L35.466 17.136C36.0285 16.2004 36.4162 15.1703 36.61 14.096M84.322 53.572C85.2908 47.4005 84.6371 41.0831 82.425 35.2409C80.2129 29.3986 76.5186 24.2325 71.7053 20.2504C66.8919 16.2683 61.1251 13.6073 54.9719 12.5289C48.8186 11.4506 42.4906 11.992 36.61 14.1C30.6272 16.2445 25.3189 19.9347 21.2244 24.7954C17.1298 29.6561 14.3951 35.5142 13.298 41.7743C12.2009 48.0343 12.7806 54.4732 14.9782 60.4367C17.1758 66.4001 20.913 71.6755 25.8099 75.7267C30.7068 79.7779 36.5889 82.4605 42.8585 83.5019C49.128 84.5434 55.5616 83.9065 61.5052 81.656C67.4489 79.4055 72.6909 75.6216 76.6984 70.6889C80.706 65.7562 83.3363 59.8505 84.322 53.572Z" stroke="url(#paint0_linear_4729_168)" stroke-width="1.5" stroke-linecap="round" stroke-linejoin="round"/>
</g>
<defs>
<linearGradient id="paint0_linear_4729_168" x1="12.7576" y1="47.9885" x2="84.7576" y2="47.9885" gradientUnits="userSpaceOnUse">
<stop stop-color="#3461FF"/>
<stop offset="1" stop-color="#0505E5"/>
</linearGradient>
<clipPath id="clip0_4729_168">
<rect width="96" height="96" fill="white" transform="translate(0.75)"/>
</clipPath>
</defs>
</svg>
