<svg width="49" height="48" viewBox="0 0 49 48" fill="none" xmlns="http://www.w3.org/2000/svg">
<g clip-path="url(#clip0_4436_2559)">
<g clip-path="url(#clip1_4436_2559)">
<path fill-rule="evenodd" clip-rule="evenodd" d="M26.2069 7.95703C25.9579 7.86907 25.6992 7.8062 25.4353 7.76953C25.2101 7.73373 24.9819 7.71544 24.7533 7.71484H24.6382C24.3957 7.72372 24.1546 7.75248 23.9177 7.80078C23.679 7.84766 23.8922 7.80078 23.8709 7.80078C23.6183 7.86249 23.3728 7.94621 23.1376 8.05078C22.9122 8.14421 22.6967 8.25667 22.4939 8.38672C22.2904 8.51874 22.1032 8.67068 21.9355 8.83984C21.7592 9.01309 21.6035 9.20295 21.4709 9.40625C21.3349 9.60726 21.222 9.82064 21.1341 10.043C21.0395 10.2713 20.9723 10.5084 20.9337 10.75C20.8929 10.9523 20.8715 11.1575 20.8698 11.3633V11.4844C20.8816 11.7064 20.913 11.9272 20.9636 12.1445C21.0105 12.3633 20.9636 12.168 20.9636 12.1875C21.0263 12.4194 21.1119 12.6456 21.2193 12.8633C21.3213 13.0699 21.444 13.2674 21.586 13.4531C21.729 13.6392 21.8949 13.8096 22.0804 13.9609C22.6542 14.463 23.3814 14.7927 24.165 14.9062C24.375 14.9375 24.5874 14.9532 24.8002 14.9531H24.9621C25.2059 14.9453 25.4484 14.9179 25.6868 14.8711C25.9213 14.8281 25.6868 14.8711 25.7295 14.8711C25.9841 14.809 26.2322 14.7267 26.4712 14.625C26.6962 14.5307 26.9116 14.4183 27.1149 14.2891C27.3111 14.1561 27.4924 14.0056 27.6563 13.8398C28.0096 13.4883 28.2873 13.0788 28.4748 12.6328C28.5689 12.4044 28.636 12.1673 28.6751 11.9258C28.7147 11.7286 28.7361 11.5286 28.7391 11.3281V11.207C28.7252 10.9852 28.6938 10.7646 28.6453 10.5469C28.5941 10.3281 28.6453 10.5234 28.6453 10.5039C28.5819 10.2709 28.4963 10.0435 28.3895 9.82422C28.2858 9.61762 28.1617 9.42017 28.0186 9.23438C27.8762 9.04906 27.7117 8.87875 27.5284 8.72656C27.3368 8.56433 27.13 8.41793 26.9103 8.28906C26.689 8.16877 26.4565 8.06681 26.2154 7.98438L26.2069 7.95703ZM43.9277 36.8633C43.6241 36.638 43.4307 36.3113 43.3899 35.9553C43.3491 35.5993 43.4644 35.243 43.7103 34.9648C43.9562 34.6867 44.3126 34.5094 44.7011 34.4721C45.0897 34.4347 45.4785 34.5403 45.782 34.7656L48.2886 36.625C48.4894 36.7756 48.6432 36.9722 48.7343 37.1949C48.8254 37.4175 48.8506 37.6583 48.8073 37.8928C48.764 38.1272 48.6537 38.347 48.4878 38.5298C48.3218 38.7126 48.106 38.8519 47.8623 38.9336L25.414 47.8906C25.2302 47.9632 25.0322 48.0006 24.8321 48.0006C24.632 48.0006 24.434 47.9632 24.2502 47.8906L1.72094 38.9062C1.36336 38.7646 1.08173 38.4987 0.937867 38.1669C0.794008 37.8352 0.799675 37.4646 0.953624 37.1367C1.0511 36.9418 1.19711 36.7705 1.37991 36.6367L3.71171 34.8633C4.01131 34.6354 4.39745 34.5258 4.78518 34.5588C5.17291 34.5918 5.53047 34.7645 5.7792 35.0391C6.02793 35.3136 6.14745 35.6674 6.11148 36.0227C6.0755 36.378 5.88698 36.7057 5.58737 36.9336L5.09288 37.3242L24.8343 45.1875L44.5543 37.3398L43.9277 36.875V36.8633ZM39.3877 19.4258C39.2167 19.3434 39.0651 19.2311 38.9414 19.095C38.8178 18.959 38.7246 18.802 38.6673 18.6329C38.6099 18.4639 38.5893 18.2862 38.6069 18.1099C38.6245 17.9336 38.6798 17.7622 38.7696 17.6055C38.8595 17.4488 38.9821 17.3098 39.1306 17.1965C39.279 17.0832 39.4504 16.9979 39.6348 16.9453C39.8193 16.8927 40.0133 16.8739 40.2057 16.89C40.398 16.9061 40.5851 16.9567 40.7561 17.0391L48.0456 20.5547C48.2982 20.6765 48.5066 20.8629 48.6455 21.0914C48.7844 21.3198 48.8478 21.5804 48.8279 21.8412C48.8081 22.1021 48.7058 22.352 48.5336 22.5606C48.3613 22.7691 48.1266 22.9272 47.8581 23.0156L25.414 31.9648C25.2305 32.0383 25.0324 32.0762 24.8321 32.0762C24.6319 32.0762 24.4338 32.0383 24.2502 31.9648L1.72094 23C1.46598 22.8999 1.24723 22.7356 1.09009 22.5262C0.932938 22.3167 0.843837 22.0707 0.833125 21.8167C0.822414 21.5628 0.89053 21.3112 1.02957 21.0913C1.16861 20.8713 1.37287 20.692 1.61863 20.5742L8.69927 17.1484C9.04291 16.9925 9.43945 16.9656 9.80436 17.0737C10.1693 17.1818 10.4737 17.4162 10.6527 17.7269C10.8317 18.0377 10.8712 18.4003 10.7627 18.7373C10.6542 19.0744 10.4063 19.3593 10.0719 19.5312L5.69394 21.6484L24.8343 29.2656L43.9703 21.6445L39.3877 19.4258ZM44.2602 28.9062C43.964 28.6737 43.7807 28.3428 43.7507 27.9864C43.7208 27.63 43.8465 27.2773 44.1003 27.0059C44.3542 26.7344 44.7152 26.5665 45.1042 26.539C45.4931 26.5116 45.878 26.6268 46.1742 26.8594L48.3057 28.543C48.4528 28.658 48.5737 28.7985 48.6615 28.9565C48.7494 29.1144 48.8023 29.2866 48.8173 29.4633C48.8324 29.6401 48.8092 29.8177 48.7492 29.9862C48.6892 30.1547 48.5935 30.3107 48.4677 30.4453C48.3007 30.621 48.0881 30.7554 47.8495 30.8359L25.414 39.7695C25.2302 39.8421 25.0322 39.8795 24.8321 39.8795C24.632 39.8795 24.434 39.8421 24.2502 39.7695L1.72094 30.7852C1.36336 30.6435 1.08173 30.3776 0.937867 30.0458C0.794008 29.7141 0.799675 29.3436 0.953624 29.0156C1.05083 28.8206 1.19688 28.6493 1.37991 28.5156L3.68187 26.7539C3.98147 26.5244 4.36829 26.4134 4.75722 26.4453C5.14615 26.4772 5.50533 26.6493 5.75576 26.9238C6.00618 27.1984 6.12733 27.5528 6.09256 27.9092C6.05778 28.2656 5.86993 28.5947 5.57032 28.8242L5.09714 29.2031L24.8343 37.0703L44.6225 29.1914L44.2602 28.9062ZM33.8034 3.625C34.009 3.74438 34.1883 3.89809 34.332 4.07812L35.7046 5.82031C35.8456 5.99795 35.9497 6.19791 36.0115 6.41016C36.0456 6.53802 36.0627 6.66917 36.0627 6.80078C36.0626 6.89243 36.0541 6.9839 36.0371 7.07422C35.9947 7.29035 35.9079 7.49714 35.7813 7.68359C35.6518 7.86862 35.4802 8.02585 35.2783 8.14453L34.1572 8.90625C34.1637 8.93922 34.1722 8.97182 34.1828 9.00391C34.2424 9.18359 34.2851 9.37109 34.3277 9.55078V9.58203C34.3736 9.77169 34.4092 9.96333 34.4343 10.1562V10.2266L35.6193 10.4062C35.8577 10.4389 36.0858 10.5174 36.2886 10.6367C36.5007 10.7525 36.6849 10.9067 36.83 11.0898C36.9723 11.2692 37.0751 11.4722 37.1327 11.6875C37.1658 11.8155 37.1829 11.9466 37.1838 12.0781C37.1903 12.1627 37.1903 12.2475 37.1838 12.332L36.8002 14.4766C36.766 14.6966 36.6829 14.9079 36.5561 15.0974C36.4292 15.2869 36.2613 15.4505 36.0627 15.5781C35.8623 15.711 35.6346 15.8053 35.3934 15.8555C35.2753 15.8755 35.1555 15.886 35.0353 15.8867C34.9152 15.8862 34.7953 15.8757 34.6772 15.8555L33.3046 15.6523C33.3046 15.6797 33.262 15.7188 33.2449 15.7461C33.1383 15.9141 33.019 16.0742 32.9081 16.2422C32.7964 16.4085 32.6725 16.5677 32.5373 16.7188L32.4904 16.7773L33.1767 17.6719L33.2023 17.707C33.3417 17.8898 33.4375 18.0974 33.4836 18.3164C33.5596 18.6365 33.5341 18.9698 33.4103 19.2771C33.2864 19.5843 33.0693 19.8528 32.7845 20.0508H32.7632L30.8492 21.3008C30.6572 21.4369 30.4366 21.5354 30.2012 21.5898C30.0618 21.6216 29.9186 21.6373 29.7749 21.6367C29.6721 21.6367 29.5694 21.6288 29.468 21.6133C29.2244 21.5713 28.9908 21.4906 28.7774 21.375C28.5732 21.2563 28.3988 21.0992 28.2659 20.9141L27.4815 19.9219C27.4445 19.934 27.4057 19.9406 27.3664 19.9414C27.1703 19.9844 26.9401 20.0352 26.744 20.0742C26.5479 20.1133 26.3177 20.1406 26.1089 20.168H26.0193L25.8105 21.25C25.7766 21.4725 25.6908 21.6857 25.559 21.875C25.4318 22.0624 25.2634 22.2233 25.0645 22.3477C24.8709 22.4747 24.6523 22.5662 24.4208 22.6172C24.2808 22.6454 24.1378 22.6598 23.9945 22.6602C23.9003 22.6595 23.8063 22.653 23.7131 22.6406L21.3728 22.2656C21.009 22.2157 20.6704 22.0657 20.4016 21.8355C20.1329 21.6053 19.9468 21.3058 19.868 20.9766C19.8441 20.8686 19.8326 20.7586 19.8339 20.6484C19.8324 20.5383 19.8438 20.4282 19.868 20.3203L20.0897 19.0547L19.9916 18.9961C19.8083 18.8984 19.6293 18.793 19.4502 18.6914C19.2683 18.5905 19.0932 18.4796 18.9259 18.3594L18.8662 18.3203L17.8858 18.9766L17.8517 19C17.6559 19.126 17.4339 19.2138 17.1994 19.2578C17.0679 19.2845 16.9335 19.2976 16.7987 19.2969C16.4599 19.2957 16.1274 19.2121 15.8353 19.0547C15.6282 18.9422 15.4472 18.7935 15.3025 18.6172L13.9341 16.8438C13.7935 16.665 13.6908 16.4636 13.6314 16.25C13.5968 16.1222 13.5796 15.991 13.5803 15.8594C13.5803 15.7677 13.5889 15.6763 13.6058 15.5859C13.6447 15.3665 13.732 15.1567 13.8625 14.9693C13.993 14.7819 14.1639 14.6209 14.3646 14.4961L15.4986 13.7617C15.4815 13.7301 15.4728 13.6954 15.473 13.6602C15.4261 13.4805 15.3707 13.2695 15.3323 13.0898C15.2708 12.8962 15.2224 12.6992 15.1874 12.5V12.418L14.0151 12.2461C13.7755 12.2121 13.546 12.1336 13.3407 12.0154C13.1355 11.8972 12.9587 11.7417 12.8215 11.5586C12.6815 11.3838 12.5828 11.1843 12.5316 10.9727C12.4985 10.8446 12.4813 10.7136 12.4804 10.582C12.4812 10.4983 12.4883 10.4148 12.5018 10.332L12.8854 8.19141C12.9245 7.97501 13.0069 7.7671 13.1284 7.57812C13.2578 7.3836 13.4255 7.21275 13.6229 7.07422C13.8225 6.94097 14.0506 6.84779 14.2922 6.80078C14.5302 6.75909 14.7746 6.75909 15.0126 6.80078L16.3895 7.00391L16.4492 6.91406C16.5558 6.74609 16.6709 6.58203 16.7817 6.41797C16.8959 6.25191 17.0197 6.09153 17.1526 5.9375L17.1952 5.88672L16.479 4.96484C16.3322 4.78265 16.2304 4.57339 16.1806 4.35156C16.1463 4.22374 16.1292 4.09257 16.1295 3.96094C16.1295 3.87059 16.138 3.7804 16.155 3.69141C16.1928 3.4729 16.2799 3.26402 16.4108 3.07812C16.5401 2.89012 16.7081 2.72694 16.9053 2.59766L18.8023 1.32422C18.9963 1.19612 19.2146 1.10209 19.446 1.04688C19.5856 1.01589 19.7287 1.00016 19.8723 1C19.9723 0.999777 20.0722 1.00762 20.1707 1.02344C20.4081 1.06152 20.6353 1.14109 20.8399 1.25781C21.0391 1.37664 21.209 1.53231 21.3387 1.71484L22.1487 2.73438H22.251C22.4471 2.68359 22.6559 2.64453 22.8733 2.59375C23.0907 2.54297 23.2996 2.52344 23.5085 2.49609H23.598L23.8069 1.41016C23.8395 1.18557 23.9269 0.970615 24.0627 0.78125C24.1874 0.593421 24.3545 0.432252 24.5529 0.308594C24.7457 0.181137 24.9647 0.0907787 25.1966 0.0429688C25.3366 0.0147411 25.4795 0.000336046 25.6229 0C25.7185 0.000817913 25.8139 0.00734216 25.9085 0.0195312L28.2446 0.367188C28.48 0.407714 28.7062 0.484307 28.9138 0.59375C29.1228 0.70774 29.3018 0.862435 29.4382 1.04688C29.5832 1.2305 29.6861 1.43911 29.7408 1.66016C29.7629 1.76969 29.7744 1.8808 29.7749 1.99219C29.7741 2.10227 29.7627 2.21207 29.7408 2.32031L29.5149 3.58203L29.6129 3.63672C29.7963 3.73438 29.9753 3.83984 30.1543 3.94141C30.3345 4.05129 30.5081 4.16995 30.6744 4.29688L30.7341 4.33594L31.7103 3.70312C31.9082 3.5639 32.1364 3.46532 32.3796 3.41406C32.5191 3.38308 32.6622 3.36735 32.8058 3.36719C32.9057 3.36786 33.0053 3.37438 33.1042 3.38672C33.3411 3.42442 33.5673 3.50546 33.7693 3.625H33.8034ZM24.8087 5.14453C26.1429 5.14221 27.4478 5.50258 28.5584 6.18003C29.669 6.85747 30.5354 7.82157 31.0479 8.95032C31.5604 10.0791 31.6961 11.3218 31.4376 12.5212C31.1792 13.7206 30.5383 14.8228 29.5961 15.6884C28.6539 16.5539 27.4527 17.144 26.1445 17.3838C24.8362 17.6237 23.4797 17.5025 22.2466 17.0357C21.0135 16.569 19.9592 15.7775 19.2171 14.7615C18.475 13.7455 18.0784 12.5507 18.0776 11.3281C18.0776 9.69192 18.7866 8.12267 20.0488 6.96533C21.311 5.80799 23.0231 5.15729 24.8087 5.15625V5.14453Z" fill="url(#paint0_linear_4436_2559)"/>
</g>
</g>
<defs>
<linearGradient id="paint0_linear_4436_2559" x1="0.832031" y1="24.0003" x2="48.8315" y2="24.0003" gradientUnits="userSpaceOnUse">
<stop stop-color="#3461FF"/>
<stop offset="1" stop-color="#0505E5"/>
</linearGradient>
<clipPath id="clip0_4436_2559">
<rect width="48" height="48" fill="white" transform="translate(0.833984)"/>
</clipPath>
<clipPath id="clip1_4436_2559">
<rect width="48" height="48" fill="white" transform="translate(0.833984)"/>
</clipPath>
</defs>
</svg>
