<svg width="49" height="48" viewBox="0 0 49 48" fill="none" xmlns="http://www.w3.org/2000/svg">
<g clip-path="url(#clip0_4436_2555)">
<g clip-path="url(#clip1_4436_2555)">
<path fill-rule="evenodd" clip-rule="evenodd" d="M7.53388 8.88673C7.63248 8.82348 7.74331 8.77936 7.85998 8.7569C7.97665 8.73445 8.09686 8.7341 8.21367 8.75589C8.33048 8.77767 8.44159 8.82116 8.5406 8.88384C8.6396 8.94652 8.72455 9.02716 8.79053 9.1211L9.23139 9.63282L10.8135 7.73048C10.8859 7.63536 10.9779 7.55527 11.0841 7.49516C11.1903 7.43504 11.3084 7.39616 11.431 7.38091C11.5536 7.36566 11.6782 7.37437 11.7972 7.40649C11.9161 7.43861 12.0269 7.49347 12.1226 7.56769C12.2184 7.64192 12.2971 7.73393 12.3539 7.83807C12.4108 7.94221 12.4445 8.05628 12.4531 8.17325C12.4617 8.29023 12.445 8.40763 12.4039 8.51824C12.3629 8.62885 12.2984 8.73032 12.2144 8.81641L9.89062 11.5859C9.82859 11.6597 9.75655 11.7254 9.67637 11.7813C9.57672 11.8451 9.46471 11.8897 9.34681 11.9123C9.22892 11.9349 9.10746 11.9351 8.98947 11.9129C8.87148 11.8908 8.75928 11.8467 8.65937 11.7832C8.55946 11.7197 8.4738 11.638 8.40736 11.543L7.28667 10.0781C7.15411 9.88869 7.10572 9.65732 7.152 9.43426C7.19829 9.2112 7.33551 9.01445 7.53388 8.88673ZM33.594 23.0469C35.6622 23.0477 37.6918 23.5784 39.4682 24.5827C41.2446 25.587 42.7018 27.0278 43.6857 28.7526C44.6696 30.4773 45.1437 32.4221 45.0579 34.3813C44.972 36.3405 44.3295 38.2413 43.1981 39.8828L48.167 45.0156L44.7431 47.9844L39.9514 43.0039C38.4593 43.9405 36.7569 44.5334 34.98 44.7352C33.2032 44.937 31.4013 44.7422 29.718 44.1663C28.0348 43.5904 26.5169 42.6493 25.2855 41.4183C24.0541 40.1872 23.1434 38.7002 22.626 37.0761C22.1086 35.452 21.9989 33.7356 22.3057 32.0641C22.6124 30.3927 23.3271 28.8123 24.3927 27.4493C25.4583 26.0863 26.8453 24.9784 28.4429 24.214C30.0405 23.4496 31.8045 23.0499 33.594 23.0469ZM16.0173 27.9453C15.6869 27.9281 15.3767 27.7889 15.1533 27.5574C14.93 27.3259 14.8112 27.0206 14.8225 26.707C14.813 26.5509 14.8367 26.3945 14.892 26.2472C14.9473 26.0998 15.0331 25.9644 15.1445 25.849C15.2559 25.7336 15.3904 25.6405 15.5403 25.5752C15.6902 25.5099 15.8524 25.4737 16.0173 25.4688H19.7255C20.0559 25.4859 20.3661 25.6252 20.5894 25.8567C20.8128 26.0882 20.9316 26.3935 20.9203 26.707C20.9297 26.8632 20.9061 27.0196 20.8508 27.1669C20.7955 27.3143 20.7096 27.4496 20.5983 27.565C20.4869 27.6804 20.3523 27.7735 20.2024 27.8389C20.0525 27.9042 19.8904 27.9404 19.7255 27.9453H16.0173ZM38.4846 17.5352C38.2539 18.3594 36.2968 18.4844 35.8559 17.5352V2.90235C35.8571 2.84758 35.8467 2.79313 35.8255 2.74217C35.8043 2.69121 35.7726 2.64475 35.7323 2.60548C35.6492 2.52999 35.5384 2.48799 35.4233 2.48829H3.21182C3.15557 2.48819 3.09989 2.49902 3.04822 2.5201C2.99655 2.54118 2.94998 2.57207 2.91138 2.61086C2.87278 2.64965 2.84296 2.69553 2.82377 2.74566C2.80459 2.79579 2.79643 2.84912 2.7998 2.90235V37.3984C2.79701 37.4514 2.8056 37.5043 2.82505 37.5539C2.8445 37.6036 2.87441 37.649 2.91295 37.6874C2.95149 37.7257 2.99786 37.7563 3.04924 37.7771C3.10062 37.798 3.15593 37.8087 3.21182 37.8086H15.7083C17.0309 37.9414 17.068 40.1055 15.7083 40.3008H3.2283C2.41806 40.2957 1.64254 39.9882 1.06961 39.4451C0.496671 38.9019 0.17241 38.1666 0.167012 37.3984V2.90235C0.165542 2.52132 0.244632 2.14388 0.399611 1.79231C0.55459 1.44075 0.782313 1.1222 1.06933 0.855478C1.35136 0.584247 1.68749 0.368928 2.05814 0.22206C2.4288 0.075191 2.82657 -0.000291208 3.2283 8.97527e-06H35.4357C35.8375 -0.00094551 36.2355 0.0742386 36.6062 0.221145C36.977 0.368052 37.313 0.583718 37.5947 0.855478C37.8778 1.12435 38.1021 1.44356 38.2548 1.79481C38.4076 2.14606 38.4856 2.52243 38.4846 2.90235C38.4846 17.1836 38.4846 -4.1289 38.4846 17.5352ZM16.005 10.7305C15.6738 10.7143 15.3626 10.5754 15.1383 10.3438C14.9141 10.1122 14.7947 9.8064 14.806 9.4922C14.7965 9.33573 14.8203 9.17905 14.8759 9.03144C14.9314 8.88383 15.0177 8.74829 15.1295 8.63284C15.2412 8.51738 15.3763 8.42436 15.5267 8.35927C15.6771 8.29419 15.8397 8.25836 16.005 8.25391H28.2707C28.6019 8.27012 28.9131 8.40897 29.1373 8.64057C29.3616 8.87217 29.4809 9.17799 29.4697 9.4922C29.4791 9.64867 29.4553 9.80534 29.3998 9.95295C29.3442 10.1006 29.258 10.2361 29.1462 10.3516C29.0344 10.467 28.8993 10.56 28.7489 10.6251C28.5986 10.6902 28.4359 10.726 28.2707 10.7305H16.005ZM16.005 19.3242C15.6742 19.309 15.363 19.171 15.1386 18.94C14.9143 18.7091 14.7948 18.4037 14.806 18.0899C14.7965 17.9334 14.8203 17.7767 14.8759 17.6291C14.9314 17.4815 15.0177 17.3459 15.1295 17.2305C15.2412 17.115 15.3763 17.022 15.5267 16.9569C15.6771 16.8918 15.8397 16.856 16.005 16.8516H28.2707C28.6019 16.8678 28.9131 17.0066 29.1373 17.2382C29.3616 17.4698 29.4809 17.7756 29.4697 18.0899C29.4785 18.246 29.4543 18.4023 29.3985 18.5494C29.3427 18.6966 29.2564 18.8316 29.1447 18.9467C29.0329 19.0617 28.898 19.1544 28.7479 19.2192C28.5978 19.2841 28.4356 19.3198 28.2707 19.3242H16.005ZM29.2678 34.9492C29.2096 34.8901 29.1571 34.826 29.1112 34.7578C29.0649 34.6883 29.0249 34.6151 28.9917 34.5391C28.8702 34.2698 28.8419 33.971 28.911 33.6855C28.9801 33.4001 29.143 33.1428 29.3763 32.9508C29.6095 32.7588 29.901 32.6419 30.2088 32.6171C30.5166 32.5922 30.8248 32.6606 31.0889 32.8125C31.1726 32.8565 31.2501 32.9104 31.3196 32.9727C31.7316 33.3359 31.847 33.4102 32.292 33.7852L32.671 34.1094L35.7941 30.9336C37.1167 29.6445 39.2221 31.5313 37.9037 32.8477L34.0142 36.8203L33.8206 37.0156C33.5582 37.2841 33.1948 37.4437 32.8091 37.4597C32.4235 37.4758 32.0467 37.3471 31.7605 37.1016L31.4803 36.8281C31.2413 36.625 30.9941 36.4375 30.7428 36.2149C30.166 35.7383 29.8281 35.4766 29.2843 34.9609L29.2678 34.9492ZM33.6022 25.332C35.4095 25.3305 37.1767 25.8373 38.6801 26.7883C40.1835 27.7393 41.3556 29.0917 42.048 30.6745C42.7404 32.2572 42.9219 33.9992 42.5697 35.6798C42.2176 37.3604 41.3474 38.9042 40.0695 40.1158C38.7915 41.3275 37.1631 42.1524 35.3905 42.4863C33.6178 42.8202 31.7805 42.6481 30.111 41.9916C28.4416 41.3352 27.0151 40.224 26.012 38.7986C25.0089 37.3733 24.4744 35.6979 24.476 33.9844C24.4782 31.6903 25.4404 29.4907 27.1514 27.8685C28.8624 26.2464 31.1825 25.3341 33.6022 25.332ZM9.8659 24.8399C10.2818 24.8391 10.6887 24.9554 11.0349 25.174C11.381 25.3926 11.651 25.7037 11.8106 26.0679C11.9701 26.432 12.0121 26.8329 11.9311 27.2197C11.8502 27.6065 11.65 27.9619 11.3558 28.2407C11.0617 28.5196 10.6869 28.7094 10.2789 28.7861C9.87095 28.8629 9.44811 28.8231 9.06398 28.6718C8.67986 28.5206 8.35172 28.2646 8.12114 27.9364C7.89056 27.6082 7.76791 27.2225 7.76873 26.8281C7.76873 26.567 7.82297 26.3085 7.92837 26.0673C8.03376 25.826 8.18824 25.6068 8.38298 25.4222C8.57772 25.2376 8.80891 25.0911 9.06335 24.9912C9.31779 24.8913 9.59049 24.8399 9.8659 24.8399ZM10.7394 16.4063C10.8196 16.3278 10.9157 16.2655 11.0219 16.2229C11.128 16.1803 11.2421 16.1584 11.3574 16.1584C11.4727 16.1584 11.5868 16.1803 11.6929 16.2229C11.7991 16.2655 11.8952 16.3278 11.9754 16.4063C12.0566 16.4832 12.1211 16.5745 12.1651 16.675C12.209 16.7756 12.2316 16.8834 12.2316 16.9922C12.2316 17.101 12.209 17.2088 12.1651 17.3093C12.1211 17.4099 12.0566 17.5012 11.9754 17.5781L11.1225 18.4102L11.9754 19.2422C12.1393 19.3976 12.2314 19.6084 12.2314 19.8281C12.2314 20.0479 12.1393 20.2587 11.9754 20.4141C11.8115 20.5695 11.5892 20.6568 11.3574 20.6568C11.1256 20.6568 10.9033 20.5695 10.7394 20.4141L9.89474 19.5938L9.04186 20.418C8.9622 20.4974 8.86633 20.5606 8.76009 20.6039C8.65384 20.6471 8.53944 20.6693 8.42384 20.6693C8.30823 20.6693 8.19383 20.6471 8.08759 20.6039C7.98135 20.5606 7.88548 20.4974 7.80581 20.418C7.64277 20.2621 7.55129 20.0515 7.55129 19.832C7.55129 19.6125 7.64277 19.4019 7.80581 19.2461L8.66281 18.4141L7.81817 17.5781C7.73595 17.5018 7.67063 17.4106 7.62604 17.31C7.58144 17.2094 7.55847 17.1013 7.55847 16.9922C7.55847 16.8831 7.58144 16.775 7.62604 16.6744C7.67063 16.5738 7.73595 16.4826 7.81817 16.4063C7.89746 16.3304 7.99181 16.2703 8.09576 16.2292C8.19971 16.1881 8.31122 16.167 8.42384 16.167C8.53646 16.167 8.64796 16.1881 8.75191 16.2292C8.85587 16.2703 8.95021 16.3304 9.0295 16.4063L9.87826 17.2305L10.7394 16.4063Z" fill="url(#paint0_linear_4436_2555)"/>
</g>
</g>
<defs>
<linearGradient id="paint0_linear_4436_2555" x1="0.166992" y1="23.9922" x2="48.167" y2="23.9922" gradientUnits="userSpaceOnUse">
<stop stop-color="#3461FF"/>
<stop offset="1" stop-color="#0505E5"/>
</linearGradient>
<clipPath id="clip0_4436_2555">
<rect width="48" height="48" fill="white" transform="translate(0.166992)"/>
</clipPath>
<clipPath id="clip1_4436_2555">
<rect width="48" height="48" fill="white" transform="translate(0.166992)"/>
</clipPath>
</defs>
</svg>
