<svg width="49" height="48" viewBox="0 0 49 48" fill="none" xmlns="http://www.w3.org/2000/svg">
<g clip-path="url(#clip0_4436_2557)">
<g clip-path="url(#clip1_4436_2557)">
<path d="M14.961 33.9648C14.1632 33.9648 13.5121 33.4062 13.5121 32.7188C13.5121 32.0312 14.1586 31.4727 14.961 31.4727H24.3602C25.1579 31.4727 25.809 32.0312 25.809 32.7188C25.809 33.4062 25.1625 33.9648 24.3602 33.9648H14.961ZM14.961 16.5117C14.1632 16.5117 13.5167 15.9609 13.5167 15.2812C13.5167 14.6016 14.1632 14.0508 14.961 14.0508H34.039C34.8368 14.0508 35.4833 14.6016 35.4833 15.2812C35.4833 15.9609 34.8368 16.5117 34.039 16.5117H14.961ZM31.0221 42.4453C30.3986 42.0234 30.2931 41.25 30.7929 40.7188C31.288 40.1875 32.1959 40.0977 32.8194 40.5234L37.2072 43.4883L45.5564 34.7891C46.0608 34.2617 46.9732 34.1875 47.5876 34.6172C48.2066 35.0469 48.2937 35.8242 47.7893 36.3477L38.5415 45.9844C38.0417 46.5039 37.1476 46.5859 36.5287 46.168L31.0221 42.4453ZM26.5655 45.5391C27.3633 45.5391 28.0098 46.0898 28.0098 46.7695C28.0098 47.4492 27.3633 48 26.5655 48H3.86078C2.93462 48 2.09557 47.6797 1.48577 47.1602C0.875967 46.6406 0.5 45.9258 0.5 45.1367V2.86328C0.5 2.07422 0.875967 1.35938 1.48577 0.839844C2.09557 0.320313 2.93462 0 3.86078 0H45.1346C46.0608 0 46.8998 0.320313 47.5096 0.839844C48.1194 1.35938 48.4954 2.07422 48.4954 2.86328V28.3594C48.4954 29.0391 47.8489 29.5898 47.0512 29.5898C46.2534 29.5898 45.6069 29.0391 45.6069 28.3594V2.86328C45.6069 2.75391 45.5519 2.65234 45.4693 2.57812C45.3822 2.50391 45.263 2.46094 45.1346 2.46094H3.86078C3.7324 2.46094 3.61319 2.50781 3.52608 2.57812C3.44355 2.65625 3.38853 2.75391 3.38853 2.86328V45.1328C3.38853 45.2422 3.44355 45.3438 3.52608 45.418C3.61319 45.4922 3.7324 45.5352 3.86078 45.5352H26.5655V45.5391ZM14.961 25.2305C14.1632 25.2305 13.5167 24.6797 13.5167 24C13.5167 23.3203 14.1632 22.7695 14.961 22.7695H34.039C34.8368 22.7695 35.4833 23.3203 35.4833 24C35.4833 24.6797 34.8368 25.2305 34.039 25.2305H14.961Z" fill="url(#paint0_linear_4436_2557)"/>
</g>
</g>
<defs>
<linearGradient id="paint0_linear_4436_2557" x1="0.5" y1="24" x2="48.4954" y2="24" gradientUnits="userSpaceOnUse">
<stop stop-color="#3461FF"/>
<stop offset="1" stop-color="#0505E5"/>
</linearGradient>
<clipPath id="clip0_4436_2557">
<rect width="48" height="48" fill="white" transform="translate(0.5)"/>
</clipPath>
<clipPath id="clip1_4436_2557">
<rect width="48" height="48" fill="white" transform="translate(0.5)"/>
</clipPath>
</defs>
</svg>
