<svg width="122" height="122" viewBox="0 0 122 122" fill="none" xmlns="http://www.w3.org/2000/svg">
<g clip-path="url(#clip0_4729_170)">
<path d="M58.1193 40.0622L50.3159 32.8254C50.3071 32.8173 50.2964 32.8129 50.2854 32.8129C50.2744 32.8129 50.2637 32.8173 50.2549 32.8254C49.4497 33.5623 48.6211 34.3325 47.7691 35.136C46.4592 36.3689 45.044 34.1508 46.3539 32.9437C47.4509 31.932 48.5169 30.9455 49.5519 29.9843C50.0856 29.487 50.624 29.6072 51.112 30.0619C54.2829 33.0121 57.3578 35.8668 60.3367 38.6259C60.3946 38.6802 60.4241 38.6629 60.4251 38.5742C60.4363 35.38 60.4338 32.2043 60.4175 29.0471C60.4114 27.8259 60.4856 26.8369 60.6402 26.0803C61.3508 22.6051 63.7084 19.9174 66.6502 19.2575C66.703 19.2464 66.7295 19.2082 66.7295 19.1429C66.7396 18.0104 66.7386 16.6284 66.7264 14.9968C66.7234 14.648 66.7579 14.3572 66.8301 14.1243C67.2205 12.8507 69.017 13.1132 69.02 14.6215C69.0251 16.1471 69.0261 17.6678 69.0231 19.1836C69.0231 19.2242 69.0398 19.2483 69.0734 19.2557C72.1203 19.8731 74.5161 22.7604 75.1658 26.352C75.3051 27.121 75.3655 28.3317 75.3472 29.9843C75.3228 32.1285 75.3223 34.3097 75.3457 36.5279C75.3461 36.5344 75.3479 36.5407 75.3509 36.5461C75.3539 36.5515 75.358 36.5558 75.3628 36.5585C75.3675 36.5611 75.3727 36.5621 75.3778 36.5613C75.3829 36.5605 75.3876 36.5579 75.3915 36.5538C78.2046 33.6048 81.1092 30.5702 84.1053 27.45C84.5796 26.9565 85.1896 26.9657 85.6639 27.4629C89.149 31.1106 92.6728 34.7947 96.2352 38.515C96.5442 38.8391 96.6988 39.2477 96.6988 39.7406C96.6917 47.3662 96.6871 55.5168 96.6851 64.1923C96.6851 65.9743 94.5607 66.0131 94.4326 64.416C94.4123 64.1511 94.4021 63.8867 94.4021 63.623C94.4021 56.0294 94.4036 48.5338 94.4067 41.1362C94.4067 41.0647 94.3772 41.029 94.3182 41.029H75.396C75.3799 41.029 75.3644 41.0366 75.3529 41.0501C75.3415 41.0636 75.335 41.0819 75.335 41.1011V51.0589C75.335 51.0824 75.3426 51.105 75.356 51.1216C75.3695 51.1382 75.3877 51.1476 75.4067 51.1476L80.8571 51.1457C81.081 51.1457 81.299 51.2325 81.4793 51.3934C83.6966 53.3602 85.9297 55.3412 88.1786 57.3363C88.479 57.6043 88.6834 58.0535 88.6834 58.4972C88.6834 63.6101 88.6818 68.7643 88.6788 73.9597C88.6788 73.9749 88.6838 73.9895 88.6926 74.0002C88.7015 74.011 88.7135 74.017 88.7261 74.017H94.3182C94.3409 74.017 94.3626 74.0059 94.3786 73.9862C94.3947 73.9664 94.4036 73.9396 94.4036 73.9117C94.4057 72.9233 94.4042 71.8364 94.3991 70.6509C94.394 69.5899 94.8032 69.0637 95.6267 69.0723C96.3358 69.0816 96.7079 69.7544 96.6988 70.5751C96.6866 71.7939 96.6851 72.9067 96.6942 73.9135C96.6952 73.9838 96.7247 74.0189 96.7827 74.0189C97.0734 74.0201 97.3652 74.0183 97.658 74.0133C99.2028 73.9838 99.1967 76.7861 97.6641 76.7879C80.3086 76.8101 62.3202 76.8347 43.6989 76.8618C43.6278 76.8631 43.5998 76.9062 43.6151 76.9912C43.8377 78.1841 43.9887 79.3857 44.068 80.5958C44.2693 83.7049 42.726 86.3797 40.228 87.1838C40.1741 87.201 40.1472 87.2436 40.1472 87.3113C40.1442 88.5905 40.1457 89.9879 40.1518 91.5037C40.1538 91.8672 40.1009 92.1587 39.9932 92.378C39.5708 93.2413 38.424 93.2487 38.0076 92.3595C37.9039 92.1377 37.8526 91.8734 37.8536 91.5665C37.8597 90.0298 37.8607 88.617 37.8567 87.328C37.8567 87.2602 37.8297 87.2164 37.7758 87.1967C35.8004 86.4746 34.5601 84.952 34.0548 82.6291C33.823 81.5681 33.9328 80.337 34.0609 79.2427C34.1504 78.4725 34.2607 77.7189 34.3919 76.982C34.4061 76.9031 34.3802 76.8637 34.3141 76.8637C30.2708 76.8378 26.1848 76.8138 22.0561 76.7916C21.3379 76.7879 20.8041 76.3794 20.7858 75.4367C20.769 74.542 21.2814 73.9671 21.9997 74.0096C22.2244 74.0232 22.4486 74.0244 22.6722 74.0133C22.7302 74.0096 22.7592 73.9727 22.7592 73.9024C22.7592 68.6996 22.7597 63.5491 22.7607 58.4509C22.7607 58.0628 22.9376 57.7171 23.1648 57.438C25.742 54.2463 28.2126 51.1772 30.5763 48.2307C31.2077 47.4432 31.9122 47.6891 32.4719 48.3933C34.2541 50.6386 36.0155 52.8383 37.756 54.9924C37.8079 55.0565 37.8338 55.0436 37.8338 54.9536C37.8297 50.516 37.8292 46.0655 37.8323 41.602C37.8323 41.1066 37.9878 40.7135 38.2989 40.4227C39.5891 39.2162 40.9204 37.9821 42.2929 36.7202C43.4198 35.685 44.8488 37.8514 43.5754 39.0197C43.2043 39.3598 42.8297 39.7055 42.4515 40.0567C42.3823 40.1208 42.3915 40.1528 42.4789 40.1528H58.0934C58.1768 40.1528 58.1854 40.1226 58.1193 40.0622ZM70.5145 22.7955C67.5347 20.6272 63.8015 22.5811 62.9063 26.6071C62.903 26.6209 62.9024 26.6354 62.9045 26.6495C62.9066 26.6636 62.9114 26.677 62.9185 26.6884C62.9256 26.6999 62.9348 26.7092 62.9454 26.7156C62.956 26.7221 62.9677 26.7254 62.9795 26.7254H72.8005C72.8108 26.7253 72.821 26.7223 72.8302 26.7167C72.8395 26.711 72.8475 26.7029 72.8537 26.6929C72.8599 26.6828 72.8641 26.6712 72.866 26.6589C72.8679 26.6466 72.8674 26.6339 72.8645 26.6219C72.4599 24.9151 71.6766 23.6397 70.5145 22.7955ZM67.6658 51.2345C67.7329 51.203 67.8336 51.1568 67.9037 51.155C69.5934 51.1439 71.2948 51.142 73.0079 51.1494C73.0184 51.1494 73.0285 51.1444 73.0359 51.1354C73.0434 51.1263 73.0476 51.1141 73.0476 51.1014V29.5776C73.0476 29.5663 73.0437 29.5555 73.0368 29.5475C73.03 29.5396 73.0207 29.5351 73.011 29.5351H62.7873C62.7365 29.5351 62.7111 29.5659 62.7111 29.6275L62.7355 55.6006C62.7357 55.6097 62.738 55.6186 62.742 55.6262C62.7461 55.6339 62.7518 55.6401 62.7586 55.6441C62.7653 55.6481 62.7729 55.6497 62.7804 55.6489C62.7879 55.6481 62.795 55.6448 62.8011 55.6394L67.3761 51.4286C67.4655 51.3472 67.5621 51.2825 67.6658 51.2345ZM77.3587 38.1564C77.3517 38.1641 77.3468 38.1742 77.3445 38.1853C77.3422 38.1964 77.3428 38.2081 77.3461 38.2189C77.3494 38.2296 77.3552 38.2389 77.3629 38.2456C77.3706 38.2522 77.3798 38.256 77.3892 38.2563H92.3556C92.365 38.256 92.3742 38.2522 92.3819 38.2456C92.3896 38.2389 92.3954 38.2296 92.3987 38.2189C92.402 38.2081 92.4026 38.1964 92.4003 38.1853C92.398 38.1742 92.3931 38.1641 92.3861 38.1564L84.9029 30.3355C84.8944 30.3268 84.8836 30.322 84.8724 30.322C84.8612 30.322 84.8504 30.3268 84.8419 30.3355L77.3587 38.1564ZM42.0016 70.577C42.4144 71.7785 42.7499 72.8932 43.0081 73.9209C43.0233 73.985 43.0584 74.017 43.1133 74.017H60.4038C60.4143 74.017 60.4244 74.012 60.4318 74.003C60.4392 73.9939 60.4434 73.9817 60.4434 73.969L60.4343 42.9791C60.4343 42.9434 60.4195 42.9255 60.39 42.9255H40.1686C40.1299 42.9255 40.1106 42.9489 40.1106 42.9958L40.1381 67.4494C40.1381 67.5134 40.1584 67.5652 40.1991 67.6046C40.99 68.3884 41.5909 69.3792 42.0016 70.577ZM26.6967 57.0313C26.6903 57.0392 26.6861 57.0492 26.6844 57.06C26.6827 57.0708 26.6838 57.082 26.6874 57.0921C26.691 57.1022 26.697 57.1108 26.7046 57.1168C26.7122 57.1227 26.7212 57.1258 26.7302 57.1256H36.1639C36.173 57.1258 36.1819 57.1227 36.1896 57.1168C36.1972 57.1108 36.2032 57.1022 36.2068 57.0921C36.2104 57.082 36.2114 57.0708 36.2098 57.06C36.2081 57.0492 36.2038 57.0392 36.1975 57.0313L31.4791 51.1587C31.4705 51.1485 31.4591 51.1428 31.4471 51.1428C31.4351 51.1428 31.4236 51.1485 31.4151 51.1587L26.6967 57.0313ZM83.8842 57.1108C83.8954 57.1108 83.9063 57.1065 83.9154 57.0986C83.9245 57.0906 83.9313 57.0794 83.9348 57.0666C83.9384 57.0537 83.9385 57.0398 83.9352 57.0268C83.9318 57.0138 83.9252 57.0025 83.9162 56.9943L80.4682 53.9332C80.4594 53.9252 80.4487 53.9207 80.4377 53.9203H71.6461C71.6349 53.9203 71.624 53.9246 71.6149 53.9325C71.6058 53.9405 71.599 53.9517 71.5954 53.9645C71.5919 53.9774 71.5918 53.9913 71.5951 54.0043C71.5985 54.0173 71.6051 54.0286 71.6141 54.0368L74.9431 57.0979C74.9524 57.1063 74.9636 57.1108 74.9752 57.1108H83.8842ZM64.8797 68.0058C66.2445 64.6249 70.3315 64.9132 71.3182 68.479C71.4758 69.0495 71.5444 69.8542 71.5241 70.8931C71.5037 71.9578 71.5022 72.9665 71.5195 73.9191C71.5205 73.9844 71.548 74.017 71.6018 74.017H73.3373C73.3952 74.017 73.4242 73.9819 73.4242 73.9117V59.2957C73.4242 59.223 73.3998 59.1645 73.351 59.1201L68.1508 54.3288C68.104 54.2857 68.0572 54.2857 68.0105 54.3288L62.7995 59.1219C62.7528 59.1651 62.7294 59.2224 62.7294 59.2938L62.7309 73.895C62.7309 73.9764 62.7645 74.017 62.8316 74.017H64.4328C64.4969 74.017 64.5289 73.9782 64.5289 73.9006C64.532 72.5943 64.5304 71.3035 64.5243 70.028C64.5213 69.2738 64.6397 68.5997 64.8797 68.0058ZM35.0217 73.9172C35.5127 71.7545 36.2905 69.0372 37.7591 67.6509C37.8068 67.6065 37.8307 67.5486 37.8307 67.4771V59.9482C37.8307 59.935 37.8265 59.9223 37.8191 59.9129C37.8117 59.9036 37.8016 59.8983 37.7911 59.8983H25.0832C25.0735 59.8983 25.0642 59.903 25.0574 59.9113C25.0505 59.9196 25.0467 59.9309 25.0467 59.9427V73.908C25.0467 73.9807 25.0766 74.017 25.1366 74.017H34.9149C34.9708 74.017 35.0064 73.9838 35.0217 73.9172ZM86.3928 59.9334C86.3928 59.9202 86.3885 59.9075 86.3808 59.8981C86.373 59.8888 86.3626 59.8835 86.3516 59.8835H75.7529C75.742 59.8835 75.7315 59.8888 75.7238 59.8981C75.7161 59.9075 75.7117 59.9202 75.7117 59.9334V73.9671C75.7117 73.9737 75.7128 73.9802 75.7149 73.9862C75.7169 73.9923 75.72 73.9978 75.7238 74.0024C75.7276 74.007 75.7321 74.0107 75.7371 74.0132C75.7421 74.0157 75.7475 74.017 75.7529 74.017H86.3516C86.3571 74.017 86.3624 74.0157 86.3674 74.0132C86.3724 74.0107 86.3769 74.007 86.3808 74.0024C86.3846 73.9978 86.3876 73.9923 86.3897 73.9862C86.3918 73.9802 86.3928 73.9737 86.3928 73.9671V59.9334ZM66.8683 74.017H69.171C69.186 74.017 69.2003 74.0098 69.2109 73.997C69.2215 73.9842 69.2274 73.9668 69.2274 73.9486V69.9042C69.2274 69.5036 69.1018 69.1195 68.8781 68.8363C68.6545 68.5531 68.3512 68.3939 68.0349 68.3939H68.0044C67.6881 68.3939 67.3848 68.5531 67.1611 68.8363C66.9375 69.1195 66.8118 69.5036 66.8118 69.9042V73.9486C66.8118 73.9668 66.8178 73.9842 66.8284 73.997C66.8389 74.0098 66.8533 74.017 66.8683 74.017ZM37.8536 80.1928C37.8384 78.1281 40.164 78.1096 40.1518 80.1614C40.1436 81.5736 40.1416 82.9052 40.1457 84.156C40.1457 84.2619 40.1838 84.2891 40.26 84.2373C41.0256 83.7222 41.508 82.9957 41.7073 82.0579C41.8313 81.4763 41.8227 80.65 41.6814 79.5791C41.2991 76.6819 40.7475 74.1606 40.0267 72.0151C39.7827 71.2893 39.4681 70.638 39.0828 70.0613C39.0737 70.0479 39.0624 70.0372 39.0495 70.0297C39.0367 70.0223 39.0226 70.0183 39.0084 70.0181C38.9941 70.018 38.98 70.0216 38.9671 70.0287C38.9541 70.0358 38.9426 70.0463 38.9333 70.0594C38.3111 70.9282 37.9116 72.1371 37.605 73.2092C37.1252 74.8975 36.7332 76.7651 36.4293 78.812C36.23 80.1528 36.171 81.1349 36.2524 81.7585C36.3916 82.8331 36.8944 83.6618 37.7606 84.2447C37.8236 84.2878 37.8556 84.265 37.8567 84.1763C37.8638 82.8799 37.8628 81.5521 37.8536 80.1928Z" fill="url(#paint0_linear_4729_170)"/>
<path d="M66.249 45.2915C65.9375 45.2915 65.6389 45.1416 65.4186 44.8747C65.1984 44.6077 65.0747 44.2457 65.0747 43.8682V38.4004C65.0747 37.4905 65.3686 36.6179 65.8917 35.9745C66.4147 35.3311 67.1242 34.9696 67.8639 34.9696H67.8975C68.6372 34.9696 69.3467 35.3311 69.8698 35.9745C70.3928 36.6179 70.6867 37.4905 70.6867 38.4004V43.8682C70.6867 44.2457 70.563 44.6077 70.3428 44.8747C70.1226 45.1416 69.8239 45.2915 69.5125 45.2915H66.249ZM67.4339 42.5151H68.3275C68.3453 42.5151 68.3624 42.5066 68.375 42.4913C68.3876 42.476 68.3946 42.4554 68.3946 42.4338V38.4041C68.3946 38.2305 68.3427 38.0641 68.2504 37.9414C68.158 37.8187 68.0327 37.7497 67.9021 37.7497H67.8594C67.7287 37.7497 67.6034 37.8187 67.5111 37.9414C67.4187 38.0641 67.3668 38.2305 67.3668 38.4041V42.4338C67.3668 42.4554 67.3739 42.476 67.3864 42.4913C67.399 42.5066 67.4161 42.5151 67.4339 42.5151Z" fill="url(#paint1_linear_4729_170)"/>
<path d="M79.0926 43.493H78.9828C78.3857 43.493 77.9016 44.0798 77.9016 44.8036V48.0163C77.9016 48.7401 78.3857 49.3269 78.9828 49.3269H79.0926C79.6898 49.3269 80.1739 48.7401 80.1739 48.0163V44.8036C80.1739 44.0798 79.6898 43.493 79.0926 43.493Z" fill="url(#paint2_linear_4729_170)"/>
<path d="M84.8342 43.493H84.7244C84.1264 43.493 83.6416 44.0806 83.6416 44.8055V48.0107C83.6416 48.7356 84.1264 49.3232 84.7244 49.3232H84.8342C85.4321 49.3232 85.9169 48.7356 85.9169 48.0107V44.8055C85.9169 44.0806 85.4321 43.493 84.8342 43.493Z" fill="url(#paint3_linear_4729_170)"/>
<path d="M90.6822 43.4931L90.5754 43.4929C89.9774 43.4916 89.4918 44.0782 89.4908 44.803L89.4862 48.0083C89.4851 48.7331 89.969 49.3217 90.567 49.323L90.6738 49.3232C91.2718 49.3245 91.7574 48.7379 91.7584 48.0131L91.763 44.8078C91.7641 44.083 91.2802 43.4944 90.6822 43.4931Z" fill="url(#paint4_linear_4729_170)"/>
<path d="M44.6866 46.7243L44.6164 46.7241C44.005 46.7229 43.5084 47.3226 43.5073 48.0638L43.497 55.2655C43.4959 56.0067 43.9907 56.6085 44.6022 56.6098L44.6723 56.61C45.2838 56.6113 45.7804 56.0115 45.7814 55.2703L45.7918 48.0686C45.7929 47.3275 45.298 46.7256 44.6866 46.7243Z" fill="url(#paint5_linear_4729_170)"/>
<path d="M50.326 46.7223L50.2558 46.7222C49.6444 46.7209 49.1478 47.3207 49.1467 48.0618L49.1364 55.2672C49.1353 56.0084 49.6301 56.6103 50.2416 56.6116L50.3117 56.6117C50.9232 56.613 51.4198 56.0132 51.4208 55.2721L51.4312 48.0667C51.4323 47.3255 50.9374 46.7236 50.326 46.7223Z" fill="url(#paint6_linear_4729_170)"/>
<path d="M55.9654 46.7223L55.8952 46.7222C55.2838 46.7209 54.7872 47.3207 54.7862 48.0618L54.7758 55.2672C54.7747 56.0084 55.2695 56.6103 55.881 56.6116L55.9511 56.6117C56.5626 56.613 57.0592 56.0132 57.0602 55.2721L57.0706 48.0667C57.0717 47.3255 56.5768 46.7236 55.9654 46.7223Z" fill="url(#paint7_linear_4729_170)"/>
<path d="M66.9063 60.5295C66.9041 61.3013 67.4 61.9291 68.014 61.9317C68.628 61.9343 69.1275 61.3107 69.1298 60.5389C69.132 59.7671 68.6361 59.1394 68.0221 59.1368C67.4081 59.1342 66.9086 59.7577 66.9063 60.5295Z" fill="url(#paint8_linear_4729_170)"/>
<path d="M44.6724 60.3991L44.6023 60.3993C43.9908 60.4006 43.496 61.0024 43.497 61.7436L43.5074 68.949C43.5085 69.6902 44.005 70.2899 44.6165 70.2886L44.6867 70.2885C45.2981 70.2872 45.7929 69.6853 45.7919 68.9442L45.7815 61.7388C45.7804 60.9976 45.2839 60.3978 44.6724 60.3991Z" fill="url(#paint9_linear_4729_170)"/>
<path d="M50.3118 60.4011L50.2417 60.4012C49.6302 60.4025 49.1354 61.0044 49.1365 61.7456L49.1468 68.9472C49.1479 69.6884 49.6444 70.2882 50.2559 70.2869L50.3261 70.2868C50.9375 70.2855 51.4323 69.6836 51.4313 68.9424L51.4209 61.7407C51.4198 60.9996 50.9233 60.3998 50.3118 60.4011Z" fill="url(#paint10_linear_4729_170)"/>
<path d="M55.9583 60.3993H55.8882C55.2767 60.3993 54.781 61.0001 54.781 61.7413V68.9467C54.781 69.6878 55.2767 70.2887 55.8882 70.2887H55.9583C56.5698 70.2887 57.0655 69.6878 57.0655 68.9467V61.7413C57.0655 61.0001 56.5698 60.3993 55.9583 60.3993Z" fill="url(#paint11_linear_4729_170)"/>
<path d="M78.8746 62.5398H78.7526C78.1596 62.5398 77.679 63.1224 77.679 63.8411V66.2959C77.679 67.0146 78.1596 67.5973 78.7526 67.5973H78.8746C79.4675 67.5973 79.9482 67.0146 79.9482 66.2959V63.8411C79.9482 63.1224 79.4675 62.5398 78.8746 62.5398Z" fill="url(#paint12_linear_4729_170)"/>
<path d="M83.3335 62.5416H83.2115C82.6186 62.5416 82.1379 63.1243 82.1379 63.843V66.2941C82.1379 67.0128 82.6186 67.5954 83.2115 67.5954H83.3335C83.9265 67.5954 84.4071 67.0128 84.4071 66.2941V63.843C84.4071 63.1243 83.9265 62.5416 83.3335 62.5416Z" fill="url(#paint13_linear_4729_170)"/>
<path d="M28.7344 63.8135L28.6368 63.8133C28.0346 63.8121 27.5455 64.4028 27.5445 65.1327L27.5388 69.1143C27.5377 69.8443 28.025 70.437 28.6272 70.4383L28.7248 70.4385C29.327 70.4398 29.816 69.8491 29.8171 69.1192L29.8228 65.1375C29.8239 64.4076 29.3366 63.8148 28.7344 63.8135Z" fill="url(#paint14_linear_4729_170)"/>
<path d="M34.2775 63.8117L34.1799 63.8115C33.5786 63.8102 33.0902 64.4001 33.0892 65.129L33.0834 69.118C33.0824 69.847 33.569 70.4389 34.1704 70.4402L34.268 70.4404C34.8693 70.4416 35.3577 69.8518 35.3587 69.1229L35.3645 65.1338C35.3655 64.4049 34.8789 63.813 34.2775 63.8117Z" fill="url(#paint15_linear_4729_170)"/>
<path d="M83.7027 84.6753C79.5995 85.2065 75.3554 86.1837 70.9705 87.607C64.9162 89.5738 59.1716 92.4039 53.7365 96.0971C52.9846 96.6092 52.2298 95.9289 52.0956 95.0121C51.9797 94.2357 52.3426 93.8697 52.8901 93.5C62.6486 86.9065 73.4623 83.13 84.6314 81.751C84.7006 81.7424 84.7499 81.6999 84.7794 81.6235C85.1774 80.629 85.763 79.5661 86.5743 79.0375C88.1328 78.0208 89.4672 79.5865 90.1443 81.1262C90.1571 81.1561 90.1767 81.1808 90.2008 81.1975C90.2248 81.2142 90.2523 81.2222 90.28 81.2205C92.532 81.0948 94.8484 81.0517 97.2295 81.0911C98.0789 81.1059 98.5562 81.8934 98.3473 82.8934C98.175 83.7178 97.6031 83.899 96.984 83.8842C95.1611 83.8386 93.2426 83.862 91.2286 83.9544C91.221 83.9547 91.2137 83.9572 91.2071 83.9617C91.2005 83.9662 91.1948 83.9725 91.1905 83.9802C91.1862 83.9879 91.1834 83.9968 91.1824 84.0061C91.1813 84.0154 91.182 84.0249 91.1844 84.0339C91.4894 85.1159 91.7501 86.2231 91.9667 87.3556C91.9725 87.3866 91.9876 87.4139 92.0089 87.4323C92.0303 87.4508 92.0565 87.459 92.0826 87.4555C93.6564 87.2349 95.3761 87.1166 97.2417 87.1006C98.7758 87.0858 98.8384 89.877 97.1654 89.8844C95.4798 89.8905 93.9243 89.9928 92.4989 90.1912C92.4919 90.1921 92.4852 90.1947 92.479 90.1989C92.4729 90.2032 92.4675 90.2089 92.4632 90.2158C92.459 90.2227 92.4559 90.2307 92.4541 90.2392C92.4524 90.2476 92.4521 90.2565 92.4532 90.2652C92.9183 93.8253 92.0887 97.7774 88.7993 98.7275C88.7474 98.7423 88.7215 98.7817 88.7215 98.8458C88.7113 100.116 88.7129 101.484 88.7261 102.949C88.7301 103.393 88.6681 103.73 88.54 103.961C87.9117 105.09 86.437 104.611 86.4325 103.156C86.4274 101.84 86.4274 100.418 86.4325 98.8902C86.4335 98.8236 86.4076 98.7805 86.3547 98.7608C84.0377 97.8846 82.7425 95.9831 82.469 93.0564C82.467 93.0293 82.4553 93.0206 82.4339 93.0305C78.3022 94.9049 74.5034 97.5205 71.0376 100.877C68.8741 102.972 67.0253 105.188 65.4912 107.524C65.0306 108.225 64.169 107.983 63.7725 107.332C63.4228 106.758 63.4594 106.153 63.8823 105.517C65.5323 103.033 67.4889 100.705 69.752 98.5334C73.6611 94.7835 77.9682 91.9362 82.6733 89.9916C82.6931 89.9837 82.7107 89.9693 82.7242 89.9501C82.7376 89.9308 82.7464 89.9075 82.7496 89.8825C82.9743 88.2177 83.3123 86.5121 83.7637 84.7659C83.781 84.6981 83.7607 84.6679 83.7027 84.6753ZM86.4264 91.7273C86.4203 89.9102 88.3646 89.5905 88.6971 91.28C88.7123 91.3588 88.719 91.7791 88.7169 92.5406C88.7139 93.5955 88.7179 94.6609 88.7291 95.7367C88.7301 95.8229 88.7611 95.8445 88.8221 95.8014C89.9771 94.9769 90.4854 93.776 90.3471 92.1987C90.1011 89.3828 89.5541 86.6162 88.7062 83.899C88.449 83.0709 88.1059 82.3154 87.6769 81.6327C87.6661 81.6158 87.6523 81.602 87.6367 81.5923C87.621 81.5825 87.6038 81.5771 87.5863 81.5764C87.5687 81.5757 87.5514 81.5797 87.5354 81.5882C87.5194 81.5966 87.5052 81.6093 87.4939 81.6253C87.1919 82.048 86.9408 82.5311 86.7405 83.0746C86.1681 84.626 85.7005 86.3741 85.3375 88.3187C85.0559 89.8283 84.8744 91.1512 84.7931 92.2874C84.6823 93.8253 85.1916 94.9954 86.3211 95.7977C86.3923 95.8482 86.4279 95.8235 86.4279 95.7237C86.432 94.3817 86.4314 93.0496 86.4264 91.7273Z" fill="url(#paint16_linear_4729_170)"/>
<path d="M26.9895 102.182C26.9722 103.205 26.9738 104.479 26.9941 106.005C27.0012 106.533 26.9539 106.924 26.8523 107.179C26.3597 108.408 24.6822 108.033 24.6898 106.471C24.6969 104.97 24.6964 103.543 24.6883 102.19C24.6883 102.118 24.6598 102.074 24.6029 102.057C22.657 101.454 21.193 99.5631 20.83 97.1823C20.703 96.3541 20.7324 95.2407 20.9185 93.8421C21.3302 90.7477 21.9418 88.0273 22.7531 85.681C23.1923 84.4129 23.9456 82.7918 25.0268 82.2576C29.0468 80.2686 30.6922 92.8513 30.9011 95.417C31.1589 98.5612 29.5332 101.214 27.0597 102.072C27.0139 102.088 26.9905 102.125 26.9895 102.182ZM24.6974 94.7848C24.699 94.0768 25.2388 93.5445 25.7649 93.5518C26.5742 93.5617 26.9799 94.0645 26.9819 95.0602C26.9839 96.4318 26.9829 97.7596 26.9789 99.0437C26.9789 99.1349 27.0119 99.1595 27.078 99.1176C28.3803 98.2895 28.7799 96.7996 28.577 95.0602C28.206 91.8549 27.6132 89.0816 26.7989 86.7402C26.5407 85.9983 26.2407 85.3957 25.8991 84.9324C25.8914 84.9222 25.8821 84.914 25.8718 84.9083C25.8615 84.9026 25.8504 84.8995 25.8391 84.8992C25.8278 84.8988 25.8167 84.9012 25.8063 84.9063C25.7959 84.9114 25.7865 84.919 25.7787 84.9287C25.2114 85.6311 24.8149 86.7993 24.5419 87.7217C23.8353 90.105 23.3443 92.635 23.0688 95.3116C22.8898 97.0479 23.4063 98.3246 24.6181 99.1417C24.626 99.1468 24.6349 99.1493 24.6439 99.149C24.6528 99.1488 24.6615 99.1457 24.6692 99.1401C24.6769 99.1345 24.6833 99.1266 24.6877 99.1172C24.6921 99.1077 24.6944 99.0971 24.6944 99.0862C24.6913 97.6752 24.6924 96.2414 24.6974 94.7848Z" fill="url(#paint17_linear_4729_170)"/>
<path d="M41.259 107.613C40.4126 108.685 38.8586 107.038 39.5525 105.863C39.9073 105.264 40.5128 104.491 41.3688 103.545C43.7732 100.889 45.9499 98.7892 47.8988 97.2451C49.1005 96.2932 50.409 98.5594 49.0456 99.674C46.1817 102.015 43.5861 104.662 41.259 107.613Z" fill="url(#paint18_linear_4729_170)"/>
</g>
<defs>
<linearGradient id="paint0_linear_4729_170" x1="20.7854" y1="53.1681" x2="98.8151" y2="53.1681" gradientUnits="userSpaceOnUse">
<stop stop-color="#3461FF"/>
<stop offset="1" stop-color="#0505E5"/>
</linearGradient>
<linearGradient id="paint1_linear_4729_170" x1="65.0747" y1="40.1306" x2="70.6867" y2="40.1306" gradientUnits="userSpaceOnUse">
<stop stop-color="#3461FF"/>
<stop offset="1" stop-color="#0505E5"/>
</linearGradient>
<linearGradient id="paint2_linear_4729_170" x1="77.9016" y1="46.41" x2="80.1739" y2="46.41" gradientUnits="userSpaceOnUse">
<stop stop-color="#3461FF"/>
<stop offset="1" stop-color="#0505E5"/>
</linearGradient>
<linearGradient id="paint3_linear_4729_170" x1="83.6416" y1="46.4081" x2="85.9169" y2="46.4081" gradientUnits="userSpaceOnUse">
<stop stop-color="#3461FF"/>
<stop offset="1" stop-color="#0505E5"/>
</linearGradient>
<linearGradient id="paint4_linear_4729_170" x1="89.4885" y1="46.4057" x2="91.7607" y2="46.4089" gradientUnits="userSpaceOnUse">
<stop stop-color="#3461FF"/>
<stop offset="1" stop-color="#0505E5"/>
</linearGradient>
<linearGradient id="paint5_linear_4729_170" x1="43.5022" y1="51.6646" x2="45.7866" y2="51.6679" gradientUnits="userSpaceOnUse">
<stop stop-color="#3461FF"/>
<stop offset="1" stop-color="#0505E5"/>
</linearGradient>
<linearGradient id="paint6_linear_4729_170" x1="49.1416" y1="51.6645" x2="51.426" y2="51.6678" gradientUnits="userSpaceOnUse">
<stop stop-color="#3461FF"/>
<stop offset="1" stop-color="#0505E5"/>
</linearGradient>
<linearGradient id="paint7_linear_4729_170" x1="54.781" y1="51.6645" x2="57.0654" y2="51.6678" gradientUnits="userSpaceOnUse">
<stop stop-color="#3461FF"/>
<stop offset="1" stop-color="#0505E5"/>
</linearGradient>
<linearGradient id="paint8_linear_4729_170" x1="68.0221" y1="59.1368" x2="68.0102" y2="61.9317" gradientUnits="userSpaceOnUse">
<stop stop-color="#3461FF"/>
<stop offset="1" stop-color="#0505E5"/>
</linearGradient>
<linearGradient id="paint9_linear_4729_170" x1="43.5022" y1="65.3463" x2="45.7867" y2="65.343" gradientUnits="userSpaceOnUse">
<stop stop-color="#3461FF"/>
<stop offset="1" stop-color="#0505E5"/>
</linearGradient>
<linearGradient id="paint10_linear_4729_170" x1="49.1416" y1="65.3464" x2="51.4261" y2="65.3431" gradientUnits="userSpaceOnUse">
<stop stop-color="#3461FF"/>
<stop offset="1" stop-color="#0505E5"/>
</linearGradient>
<linearGradient id="paint11_linear_4729_170" x1="54.781" y1="65.344" x2="57.0655" y2="65.344" gradientUnits="userSpaceOnUse">
<stop stop-color="#3461FF"/>
<stop offset="1" stop-color="#0505E5"/>
</linearGradient>
<linearGradient id="paint12_linear_4729_170" x1="77.679" y1="65.0685" x2="79.9482" y2="65.0685" gradientUnits="userSpaceOnUse">
<stop stop-color="#3461FF"/>
<stop offset="1" stop-color="#0505E5"/>
</linearGradient>
<linearGradient id="paint13_linear_4729_170" x1="82.1379" y1="65.0685" x2="84.4071" y2="65.0685" gradientUnits="userSpaceOnUse">
<stop stop-color="#3461FF"/>
<stop offset="1" stop-color="#0505E5"/>
</linearGradient>
<linearGradient id="paint14_linear_4729_170" x1="27.5416" y1="67.1235" x2="29.82" y2="67.1268" gradientUnits="userSpaceOnUse">
<stop stop-color="#3461FF"/>
<stop offset="1" stop-color="#0505E5"/>
</linearGradient>
<linearGradient id="paint15_linear_4729_170" x1="33.0863" y1="67.1235" x2="35.3616" y2="67.1268" gradientUnits="userSpaceOnUse">
<stop stop-color="#3461FF"/>
<stop offset="1" stop-color="#0505E5"/>
</linearGradient>
<linearGradient id="paint16_linear_4729_170" x1="52.074" y1="93.3308" x2="98.4062" y2="93.3308" gradientUnits="userSpaceOnUse">
<stop stop-color="#3461FF"/>
<stop offset="1" stop-color="#0505E5"/>
</linearGradient>
<linearGradient id="paint17_linear_4729_170" x1="20.7527" y1="94.978" x2="30.9279" y2="94.978" gradientUnits="userSpaceOnUse">
<stop stop-color="#3461FF"/>
<stop offset="1" stop-color="#0505E5"/>
</linearGradient>
<linearGradient id="paint18_linear_4729_170" x1="39.3789" y1="102.489" x2="49.6263" y2="102.489" gradientUnits="userSpaceOnUse">
<stop stop-color="#3461FF"/>
<stop offset="1" stop-color="#0505E5"/>
</linearGradient>
<clipPath id="clip0_4729_170">
<rect width="122" height="122" fill="white"/>
</clipPath>
</defs>
</svg>
