<svg width="97" height="97" viewBox="0 0 97 97" fill="none" xmlns="http://www.w3.org/2000/svg">
<g clip-path="url(#clip0_4729_167)">
<path d="M68.4859 62.584C70.3571 61.3062 72.5518 60.5843 74.8162 60.5017C77.0805 60.4192 79.322 60.9795 81.2812 62.1177C83.2404 63.2559 84.8374 64.9255 85.8873 66.9335C86.9372 68.9414 87.3971 71.2056 87.2139 73.464C82.4146 75.1413 77.317 75.794 72.2499 75.38C72.2344 70.8465 70.9289 66.407 68.4859 62.588C66.3176 59.1871 63.3264 56.3881 59.7893 54.45C56.2521 52.5119 52.2833 51.4973 48.2499 51.5C44.2173 51.4979 40.2492 52.5129 36.7129 54.451C33.1765 56.3891 30.186 59.1877 28.0179 62.588M72.2459 75.376L72.2499 75.5C72.2499 76.4 72.2019 77.288 72.1019 78.164C64.8434 82.3285 56.6183 84.5134 48.2499 84.5C39.5699 84.5 31.4219 82.196 24.3979 78.164C24.2951 77.2383 24.2457 76.3074 24.2499 75.376M24.2499 75.376C19.1845 75.8051 14.0896 75.1548 9.29394 73.468C9.11134 71.2102 9.57152 68.9468 10.6213 66.9396C11.671 64.9323 13.2674 63.2632 15.2259 62.1251C17.1845 60.9871 19.4251 60.4266 21.6888 60.5085C23.9525 60.5904 26.1468 61.3114 28.0179 62.588M24.2499 75.376C24.2643 70.8429 25.5764 66.4075 28.0179 62.588M60.2499 27.5C60.2499 30.6826 58.9857 33.7348 56.7352 35.9853C54.4848 38.2357 51.4325 39.5 48.2499 39.5C45.0673 39.5 42.0151 38.2357 39.7647 35.9853C37.5142 33.7348 36.2499 30.6826 36.2499 27.5C36.2499 24.3174 37.5142 21.2652 39.7647 19.0147C42.0151 16.7643 45.0673 15.5 48.2499 15.5C51.4325 15.5 54.4848 16.7643 56.7352 19.0147C58.9857 21.2652 60.2499 24.3174 60.2499 27.5ZM84.2499 39.5C84.2499 40.6819 84.0171 41.8522 83.5649 42.9442C83.1126 44.0361 82.4496 45.0282 81.6139 45.864C80.7782 46.6997 79.786 47.3626 78.6941 47.8149C77.6022 48.2672 76.4318 48.5 75.2499 48.5C74.068 48.5 72.8977 48.2672 71.8058 47.8149C70.7139 47.3626 69.7217 46.6997 68.886 45.864C68.0503 45.0282 67.3873 44.0361 66.935 42.9442C66.4827 41.8522 66.2499 40.6819 66.2499 39.5C66.2499 37.1131 67.1982 34.8239 68.886 33.136C70.5738 31.4482 72.863 30.5 75.2499 30.5C77.6369 30.5 79.9261 31.4482 81.6139 33.136C83.3017 34.8239 84.2499 37.1131 84.2499 39.5ZM30.2499 39.5C30.2499 40.6819 30.0171 41.8522 29.5649 42.9442C29.1126 44.0361 28.4496 45.0282 27.6139 45.864C26.7782 46.6997 25.786 47.3626 24.6941 47.8149C23.6022 48.2672 22.4318 48.5 21.2499 48.5C20.068 48.5 18.8977 48.2672 17.8058 47.8149C16.7139 47.3626 15.7217 46.6997 14.886 45.864C14.0503 45.0282 13.3873 44.0361 12.935 42.9442C12.4827 41.8522 12.2499 40.6819 12.2499 39.5C12.2499 37.1131 13.1982 34.8239 14.886 33.136C16.5738 31.4482 18.863 30.5 21.2499 30.5C23.6369 30.5 25.9261 31.4482 27.6139 33.136C29.3017 34.8239 30.2499 37.1131 30.2499 39.5Z" stroke="url(#paint0_linear_4729_167)" stroke-width="1.5" stroke-linecap="round" stroke-linejoin="round"/>
</g>
<defs>
<linearGradient id="paint0_linear_4729_167" x1="9.25488" y1="50" x2="87.2532" y2="50" gradientUnits="userSpaceOnUse">
<stop stop-color="#3461FF"/>
<stop offset="1" stop-color="#0505E5"/>
</linearGradient>
<clipPath id="clip0_4729_167">
<rect width="96" height="96" fill="white" transform="translate(0.25 0.5)"/>
</clipPath>
</defs>
</svg>
