<svg width="48" height="49" viewBox="0 0 48 49" fill="none" xmlns="http://www.w3.org/2000/svg">
<g clip-path="url(#clip0_4726_154)">
<path d="M16.5 42.5V32.75C16.5 31.508 17.508 30.5 18.75 30.5H23.25C24.492 30.5 25.5 31.508 25.5 32.75V42.5M25.5 42.5H34.5V7.59M25.5 42.5H40.5V22M34.5 7.59L37.5 6.5M34.5 7.59L13.5 15.228M40.5 22L34.5 20M40.5 22L43.5 23M4.5 42.5H7.5M7.5 42.5H43.5M7.5 42.5V6.5H13.5V15.228M4.5 18.5L13.5 15.228" stroke="url(#paint0_linear_4726_154)" stroke-width="1.5" stroke-linecap="round" stroke-linejoin="round"/>
</g>
<defs>
<linearGradient id="paint0_linear_4726_154" x1="4.5" y1="24.5" x2="43.5" y2="24.5" gradientUnits="userSpaceOnUse">
<stop stop-color="#3461FF"/>
<stop offset="1" stop-color="#0505E5"/>
</linearGradient>
<clipPath id="clip0_4726_154">
<rect width="48" height="48" fill="white" transform="translate(0 0.5)"/>
</clipPath>
</defs>
</svg>
