<svg width="48" height="49" viewBox="0 0 48 49" fill="none" xmlns="http://www.w3.org/2000/svg">
<g clip-path="url(#clip0_4726_156)">
<g clip-path="url(#clip1_4726_156)">
<path d="M13.2141 5.28125C12.6872 5.27747 12.2195 5.61781 12.0609 6.12031L0.0609452 42.1203C-0.445304 43.6391 1.83282 44.3984 2.33907 42.8797L14.3391 6.87969C14.6128 6.10188 14.0386 5.28611 13.2141 5.28125ZM16.8188 5.28125C16.2487 5.27516 15.7531 5.67089 15.6328 6.22812L7.23282 42.2281C6.76347 43.8489 9.27204 44.4332 9.5672 42.7719L17.9672 6.77187C18.1546 6.02092 17.5927 5.29154 16.8188 5.28125ZM22.7813 5.28125C22.1185 5.29159 21.5896 5.83725 21.6 6.5V8.9C21.5771 10.5228 24.023 10.5228 24 8.9V6.5C24.0106 5.82256 23.4587 5.27065 22.7813 5.28125ZM28.7438 5.28125C27.9698 5.29154 27.4079 6.02092 27.5953 6.77187L35.9953 42.7719C36.2905 44.4332 38.799 43.8489 38.3297 42.2281L29.9297 6.22812C29.8094 5.67089 29.3138 5.27515 28.7438 5.28125ZM32.3484 5.28125C31.5239 5.28611 30.9498 6.10188 31.2234 6.87969L43.2234 42.8797C43.7297 44.3984 46.0078 43.6391 45.5016 42.1203L33.5016 6.12031C33.3431 5.61781 32.8753 5.27748 32.3484 5.28125ZM22.7813 17.2812C22.1185 17.2916 21.5896 17.8373 21.6 18.5V25.7C21.5771 27.3228 24.023 27.3228 24 25.7V18.5C24.0106 17.8226 23.4587 17.2706 22.7813 17.2812ZM22.7813 34.0813C22.1185 34.0916 21.5896 34.6373 21.6 35.3V42.5C21.5771 44.1228 24.023 44.1228 24 42.5V35.3C24.0106 34.6226 23.4587 34.0707 22.7813 34.0813Z" fill="url(#paint0_linear_4726_156)"/>
</g>
</g>
<defs>
<linearGradient id="paint0_linear_4726_156" x1="-0.0119629" y1="24.5237" x2="45.5745" y2="24.5238" gradientUnits="userSpaceOnUse">
<stop stop-color="#3461FF"/>
<stop offset="1" stop-color="#0505E5"/>
</linearGradient>
<clipPath id="clip0_4726_156">
<rect width="48" height="48" fill="white" transform="translate(0 0.5)"/>
</clipPath>
<clipPath id="clip1_4726_156">
<rect width="48" height="48" fill="white" transform="translate(0 0.5)"/>
</clipPath>
</defs>
</svg>
