<svg width="48" height="49" viewBox="0 0 48 49" fill="none" xmlns="http://www.w3.org/2000/svg">
<g clip-path="url(#clip0_4726_152)">
<g clip-path="url(#clip1_4726_152)">
<path d="M23.18 27.1653C23.428 27.4278 23.4162 27.8418 23.1536 28.0898C23.0273 28.2091 22.8658 28.2684 22.7047 28.2684C22.531 28.2684 22.3578 28.1996 22.2292 28.0634L19.2687 24.9291C19.0207 24.6665 19.0325 24.2526 19.295 24.0046C19.5577 23.7566 19.9716 23.7685 20.2195 24.031L23.18 27.1653ZM47.9205 4.54224L45.9929 8.08014L46.1887 8.18678C46.341 8.26979 46.454 8.40983 46.5031 8.57621C46.5521 8.74258 46.533 8.9216 46.4501 9.07393L45.3342 11.122C45.2156 11.3399 44.9911 11.4633 44.7593 11.4633C44.6537 11.4633 44.5464 11.4376 44.447 11.3834L43.0027 10.5966L37.8852 43.0073C37.8362 44.2742 36.3788 45.2989 33.5495 46.0534C31.0117 46.7301 27.6487 47.1028 24.0799 47.1028C20.5112 47.1028 17.1481 46.7301 14.6103 46.0534C11.7809 45.2989 10.3235 44.2742 10.2745 43.0073L5.14449 10.5166L3.5533 11.3836C3.45642 11.4363 3.34873 11.4633 3.24043 11.4633C3.17843 11.4633 3.11618 11.4544 3.05557 11.4366C2.8892 11.3875 2.74907 11.2745 2.66615 11.1221L1.55036 9.07393C1.37753 8.75679 1.49455 8.35961 1.81178 8.18678L2.00754 8.08014L0.079933 4.54224C-0.00307969 4.38991 -0.0220889 4.21089 0.0269165 4.04452C0.0760091 3.87814 0.189018 3.73801 0.341353 3.65509L3.42154 1.97696C3.73886 1.80413 4.13596 1.92124 4.3087 2.23838L6.23621 5.77636L6.43197 5.66972C6.7492 5.49698 7.14639 5.61391 7.31913 5.93114L8.43501 7.97925C8.51802 8.13158 8.53703 8.3106 8.48802 8.47698C8.43893 8.64335 8.32592 8.78348 8.17358 8.8664L6.64291 9.70028L17.6826 21.3534C17.9311 21.6156 17.9198 22.0295 17.6576 22.2779C17.3953 22.5263 16.9814 22.515 16.733 22.2529L6.63951 11.5983L11.1983 40.471L23.1187 10.2726H21.4493C21.0881 10.2726 20.7953 9.97975 20.7953 9.61857V7.2862C20.7953 6.92502 21.0881 6.63221 21.4493 6.63221H21.6722V2.60322C21.6722 2.24204 21.965 1.94923 22.3262 1.94923H25.8338C26.195 1.94923 26.4878 2.24204 26.4878 2.60322V6.63221H26.7108C27.072 6.63221 27.3648 6.92502 27.3648 7.2862V9.61857C27.3648 9.97975 27.072 10.2726 26.7108 10.2726H25.0413L36.9617 40.471L41.5256 11.5663L31.1276 22.3493C30.8769 22.6092 30.4629 22.6168 30.2029 22.3661C29.943 22.1154 29.9354 21.7014 30.1861 21.4413L41.4561 9.75391L39.8268 8.86623C39.6745 8.78322 39.5615 8.64318 39.5124 8.4768C39.4634 8.31043 39.4825 8.13141 39.5654 7.97907L40.6813 5.93096C40.854 5.61382 41.2512 5.49672 41.5684 5.66954L41.7642 5.77619L43.6917 2.23821C43.8644 1.92107 44.2617 1.80396 44.5788 1.97678L47.659 3.65491C47.8114 3.73793 47.9245 3.87797 47.9735 4.04434C48.0226 4.2108 48.0035 4.38982 47.9205 4.54224ZM46.459 4.49071L44.5274 3.43831L42.9127 6.40201L43.4989 6.72133C43.816 6.89407 43.9331 7.29134 43.7603 7.60848C43.5876 7.92562 43.1904 8.04264 42.8732 7.8699L41.517 7.13107L41.0269 8.03061L44.4986 9.92202L44.9887 9.02249L44.2459 8.6178C43.9288 8.44506 43.8118 8.04779 43.9845 7.73065C44.1523 7.42275 44.5314 7.30425 44.8436 7.4558L46.459 4.49071ZM26.0567 8.96459V7.94018H25.265C24.9038 7.94018 24.611 7.64737 24.611 7.2862C24.611 6.95397 24.859 6.68017 25.1798 6.6384V3.2572H22.9801V6.63221H23.7475C24.1087 6.63221 24.4015 6.92502 24.4015 7.2862C24.4015 7.64737 24.1087 7.94018 23.7475 7.94018H22.1032V8.96459H26.0567ZM11.5802 42.9413C11.5802 43.27 12.284 44.0795 14.9474 44.7897C17.3784 45.438 20.6217 45.795 24.08 45.795C27.5382 45.795 30.7816 45.438 33.2126 44.7897C35.8759 44.0795 36.5797 43.27 36.5797 42.9413C36.5797 42.7309 36.3049 42.3435 35.4688 41.9117C35.4584 41.9066 35.448 41.9014 35.4379 41.8956C34.8526 41.5976 33.9996 41.2793 32.7844 40.9839C32.4334 40.8985 32.2181 40.5449 32.3034 40.1939C32.3887 39.843 32.7421 39.6273 33.0934 39.7129C33.1934 39.7373 33.2918 39.7619 33.3887 39.7868L24.6385 30.6059C24.3893 30.3444 24.3993 29.9304 24.6608 29.6812C24.9223 29.4321 25.3361 29.442 25.5854 29.7035L35.3491 39.9479L24.08 11.3998L12.7954 39.9874L27.5487 24.2253C27.7955 23.9616 28.2094 23.948 28.4731 24.1947C28.7368 24.4416 28.7504 24.8554 28.5037 25.1191L14.774 39.7875C17.2921 39.1376 20.5864 38.7796 24.08 38.7796C25.9342 38.7796 27.7299 38.8792 29.4172 39.0758C29.7759 39.1176 30.0329 39.4423 29.9911 39.8011C29.9492 40.1598 29.6244 40.4166 29.2658 40.375C27.6286 40.1842 25.8838 40.0875 24.08 40.0875C20.6217 40.0875 17.3784 40.4445 14.9474 41.0929C12.284 41.8032 11.5802 42.6125 11.5802 42.9413ZM6.97356 8.03061L6.48351 7.13107L5.97767 7.40662C5.66036 7.57936 5.26326 7.46234 5.09052 7.1452C4.96966 6.92337 4.99094 6.66264 5.12295 6.46671L3.47299 3.43831L1.54138 4.49071L3.15602 7.4544L3.93357 7.03079C4.2508 6.85788 4.64799 6.97507 4.82073 7.29221C4.99355 7.60944 4.87653 8.00654 4.55931 8.17937L3.20756 8.91584L3.0118 9.02249L3.50185 9.92202L6.97356 8.03061Z" fill="url(#paint0_linear_4726_152)"/>
</g>
</g>
<defs>
<linearGradient id="paint0_linear_4726_152" x1="0.000244141" y1="24.4999" x2="48.0002" y2="24.4999" gradientUnits="userSpaceOnUse">
<stop stop-color="#3461FF"/>
<stop offset="1" stop-color="#0505E5"/>
</linearGradient>
<clipPath id="clip0_4726_152">
<rect width="48" height="48" fill="white" transform="translate(0 0.5)"/>
</clipPath>
<clipPath id="clip1_4726_152">
<rect width="48" height="48" fill="white" transform="translate(0 0.5)"/>
</clipPath>
</defs>
</svg>
