<?xml version="1.0" encoding="UTF-8" standalone="no"?>
<!DOCTYPE svg PUBLIC "-//W3C//DTD SVG 1.1//EN" "http://www.w3.org/Graphics/SVG/1.1/DTD/svg11.dtd">
<svg xmlns="http://www.w3.org/2000/svg" version="1.1" viewBox="0.00 0.00 1643.00 583.00">
<g stroke-width="2.00" fill="none" stroke-linecap="butt">
<path stroke="#0aa799" vector-effect="non-scaling-stroke" d="
  M 1316.94 146.60
  Q 1317.03 146.83 1317.00 147.14
  Q 1316.97 147.53 1316.65 147.75
  C 1267.52 182.18 1227.08 234.43 1222.65 295.58
  Q 1221.95 305.30 1223.01 314.67
  Q 1224.70 329.50 1230.05 342.21
  Q 1230.33 342.88 1229.83 343.08"
/>
<path stroke="#008447" vector-effect="non-scaling-stroke" d="
  M 1393.89 367.57
  Q 1392.32 367.56 1390.76 369.27
  C 1375.23 386.27 1354.77 397.26 1331.98 400.24
  Q 1295.27 405.05 1263.81 384.19
  Q 1258.39 380.59 1243.63 366.94"
/>
<path stroke="#3ead45" vector-effect="non-scaling-stroke" d="
  M 1409.15 339.92
  Q 1414.66 322.95 1415.26 308.25
  C 1416.78 270.84 1400.60 233.51 1377.78 203.86
  Q 1352.76 171.36 1318.34 147.90
  Q 1317.86 147.58 1317.93 146.75"
/>
</g>
<path fill="#14b5eb" d="
  M 1316.94 146.60
  Q 1317.03 146.83 1317.00 147.14
  Q 1316.97 147.53 1316.65 147.75
  C 1267.52 182.18 1227.08 234.43 1222.65 295.58
  Q 1221.95 305.30 1223.01 314.67
  Q 1224.70 329.50 1230.05 342.21
  Q 1230.33 342.88 1229.83 343.08
  Q 1159.69 221.42 1089.41 99.83
  C 1086.11 94.13 1085.85 86.26 1092.36 82.75
  Q 1095.99 80.80 1100.55 80.96
  Q 1142.52 82.43 1183.43 91.09
  C 1231.19 101.21 1276.76 119.16 1316.94 146.60
  Z"
/>
<path fill="#7bc144" d="
  M 1409.15 339.92
  Q 1414.66 322.95 1415.26 308.25
  C 1416.78 270.84 1400.60 233.51 1377.78 203.86
  Q 1352.76 171.36 1318.34 147.90
  Q 1317.86 147.58 1317.93 146.75
  C 1364.01 115.32 1416.90 96.33 1472.03 87.49
  C 1473.43 87.26 1476.24 86.55 1478.46 86.47
  Q 1479.86 86.42 1481.34 86.07
  Q 1483.20 85.62 1485.20 85.47
  Q 1487.44 85.31 1489.80 84.84
  Q 1491.40 84.51 1493.14 84.48
  Q 1494.72 84.45 1496.29 84.12
  Q 1500.37 83.28 1504.81 83.48
  Q 1505.31 83.50 1505.72 83.23
  Q 1506.19 82.93 1506.72 82.88
  Q 1511.33 82.44 1515.62 82.42
  C 1516.66 82.42 1517.70 81.94 1518.89 81.87
  Q 1526.54 81.43 1532.17 81.37
  A 1.36 1.36 0.0 0 0 1532.81 81.21
  Q 1533.20 81.00 1533.63 80.99
  Q 1537.51 80.81 1541.30 81.47
  Q 1549.05 82.81 1550.42 90.26
  C 1551.14 94.15 1549.08 98.22 1547.11 101.62
  Q 1479.39 218.91 1411.68 336.20
  Q 1410.14 338.86 1409.15 339.92
  Z"
/>
<path fill="#009946" d="
  M 1316.94 146.60
  Q 1317.63 146.87 1317.93 146.75
  Q 1317.86 147.58 1318.34 147.90
  Q 1352.76 171.36 1377.78 203.86
  C 1400.60 233.51 1416.78 270.84 1415.26 308.25
  Q 1414.66 322.95 1409.15 339.92
  Q 1402.34 353.72 1393.89 367.57
  Q 1392.32 367.56 1390.76 369.27
  C 1375.23 386.27 1354.77 397.26 1331.98 400.24
  Q 1295.27 405.05 1263.81 384.19
  Q 1258.39 380.59 1243.63 366.94
  L 1229.83 343.08
  Q 1230.33 342.88 1230.05 342.21
  Q 1224.70 329.50 1223.01 314.67
  Q 1221.95 305.30 1222.65 295.58
  C 1227.08 234.43 1267.52 182.18 1316.65 147.75
  Q 1316.97 147.53 1317.00 147.14
  Q 1317.03 146.83 1316.94 146.60
  Z"
/>
<path fill="#003058" d="
  M 794.12 324.23
  Q 794.13 356.03 794.13 388.05
  Q 794.13 397.44 794.97 405.77
  C 795.77 413.73 798.51 422.54 804.91 427.64
  Q 809.63 431.41 817.40 432.27
  C 826.12 433.25 834.37 431.96 842.89 429.90
  A 0.63 0.61 -16.1 0 1 843.62 430.29
  C 848.85 445.28 849.60 461.73 847.86 477.57
  Q 847.79 478.15 847.22 478.29
  Q 821.70 484.36 797.47 481.89
  Q 788.96 481.02 780.72 478.49
  C 759.85 472.09 745.91 457.46 740.94 435.35
  C 738.70 425.38 738.20 415.77 738.19 405.81
  Q 738.10 339.67 738.15 273.93
  Q 738.15 273.55 738.35 273.21
  L 776.13 207.76
  Q 776.36 207.37 776.82 207.37
  L 793.75 207.38
  A 0.37 0.37 0.0 0 1 794.12 207.75
  L 794.13 272.75
  Q 794.13 273.38 794.75 273.38
  L 844.26 273.37
  Q 844.90 273.37 845.01 274.00
  Q 849.03 299.01 845.02 322.57
  A 0.96 0.96 0.0 0 1 844.07 323.38
  L 794.97 323.38
  Q 794.12 323.38 794.12 324.23
  Z"
/>
<path fill="#003058" d="
  M 372.58 394.31
  A 0.31 0.30 -8.8 0 0 372.34 394.63
  Q 373.23 408.79 379.50 418.84
  C 387.33 431.39 402.84 437.48 417.30 439.11
  Q 427.81 440.30 439.32 439.43
  Q 462.60 437.66 483.10 430.06
  A 1.00 0.99 -23.5 0 1 484.34 430.54
  Q 494.13 449.80 495.07 472.26
  A 1.00 0.99 -11.9 0 1 494.43 473.23
  Q 472.69 481.47 447.40 483.89
  C 427.70 485.77 407.04 485.57 387.77 480.91
  Q 374.11 477.60 361.71 470.58
  Q 336.15 456.11 324.91 427.67
  Q 322.11 420.60 320.42 413.58
  Q 313.32 384.06 318.48 352.74
  Q 320.40 341.08 324.76 329.60
  Q 334.60 303.73 354.64 288.26
  Q 372.38 274.56 394.09 270.59
  C 414.13 266.92 436.69 267.87 455.05 276.38
  Q 486.79 291.11 499.36 323.68
  Q 505.73 340.19 506.77 358.32
  Q 507.77 375.82 505.24 393.27
  A 1.00 1.00 0.0 0 1 504.25 394.12
  Q 439.31 394.16 374.26 394.12
  Q 373.42 394.12 372.58 394.31
  Z
  M 373.65 354.77
  L 453.27 354.49
  A 0.26 0.26 0.0 0 0 453.53 354.23
  L 453.53 352.82
  A 40.09 37.35 89.8 0 0 416.04 312.86
  L 410.60 312.88
  A 40.09 37.35 89.8 0 0 373.39 353.10
  L 373.39 354.51
  A 0.26 0.26 0.0 0 0 373.65 354.77
  Z"
/>
<path fill="#003058" d="
  M 1063.16 348.23
  Q 1063.20 345.37 1063.12 342.26
  Q 1062.70 325.46 1049.80 318.44
  Q 1043.05 314.77 1030.36 313.78
  Q 1002.19 311.60 973.93 321.64
  Q 973.23 321.88 972.88 321.24
  C 966.74 309.96 962.21 297.79 962.22 285.30
  Q 962.22 283.11 961.94 280.90
  Q 961.88 280.40 962.34 280.20
  Q 964.22 279.37 966.22 278.75
  Q 994.07 270.13 1022.42 268.80
  Q 1044.43 267.76 1063.00 272.48
  Q 1077.25 276.10 1089.41 284.32
  Q 1103.26 293.67 1110.47 309.70
  C 1117.09 324.43 1118.46 340.70 1118.43 357.23
  Q 1118.32 414.66 1118.40 472.23
  A 0.50 0.50 0.0 0 1 1118.05 472.71
  Q 1102.31 477.41 1085.23 480.79
  C 1067.72 484.26 1050.25 485.33 1032.42 484.86
  Q 1013.95 484.36 997.83 480.48
  C 972.35 474.34 952.96 457.41 948.52 431.38
  Q 945.94 416.22 948.27 402.21
  Q 949.08 397.27 950.90 392.34
  C 955.32 380.32 964.66 369.89 975.28 363.20
  Q 988.20 355.05 1004.32 351.48
  Q 1015.71 348.96 1026.46 348.25
  Q 1042.20 347.20 1062.37 348.94
  Q 1063.14 349.00 1063.16 348.23
  Z
  M 1053.83 439.80
  Q 1058.30 439.05 1062.71 438.45
  Q 1063.14 438.39 1063.14 437.95
  L 1063.14 387.04
  Q 1063.14 386.62 1062.73 386.54
  C 1046.56 383.65 1028.29 383.21 1013.98 390.23
  C 1001.87 396.17 998.51 408.77 1001.13 421.15
  C 1003.51 432.40 1014.18 438.38 1025.21 439.98
  Q 1040.05 442.12 1053.83 439.80
  Z"
/>
<path fill="#003058" d="
  M 584.34 300.88
  C 597.55 282.17 617.07 270.29 640.41 269.86
  C 652.64 269.63 665.08 271.25 676.12 275.97
  C 696.44 284.65 706.56 302.14 710.29 323.67
  Q 712.32 335.34 712.33 345.58
  Q 712.42 408.64 712.36 479.28
  A 1.05 1.04 85.5 0 1 711.48 480.32
  Q 683.97 484.85 656.66 480.31
  Q 655.88 480.18 655.88 479.38
  Q 655.94 419.70 655.84 360.21
  Q 655.82 347.71 651.75 336.31
  Q 646.64 322.02 632.32 319.97
  C 623.10 318.65 610.68 320.28 602.93 326.37
  C 595.70 332.06 591.26 340.65 589.11 349.33
  C 586.96 358.00 586.63 366.48 586.63 375.32
  Q 586.63 427.24 586.64 479.62
  Q 586.64 480.17 586.10 480.26
  Q 558.49 484.91 530.52 480.24
  A 0.46 0.46 0.0 0 1 530.14 479.79
  L 530.14 274.79
  A 0.22 0.21 -6.8 0 1 530.31 274.58
  Q 553.01 269.79 575.85 274.47
  Q 576.43 274.59 576.63 275.15
  C 577.00 276.21 577.63 276.98 577.93 278.10
  Q 580.93 289.21 582.22 300.34
  Q 582.58 303.38 584.34 300.88
  Z"
/>
<path fill="#003058" d="
  M 218.62 409.31
  Q 219.63 412.84 220.63 409.30
  L 258.70 274.20
  A 1.32 1.32 0.0 0 1 259.80 273.26
  Q 289.59 269.47 319.02 273.33
  Q 319.31 273.37 319.22 273.65
  Q 286.24 373.35 251.53 478.00
  Q 251.14 479.17 250.78 479.80
  Q 250.54 480.21 250.08 480.28
  Q 217.88 484.94 185.87 480.15
  A 0.39 0.38 83.6 0 1 185.56 479.90
  Q 151.29 377.68 116.94 274.83
  Q 116.82 274.48 116.60 274.19
  Q 116.16 273.62 116.87 273.51
  Q 148.04 268.82 179.08 273.31
  Q 179.63 273.39 179.78 273.93
  L 218.62 409.31
  Z"
/>
<path fill="#003058" d="
  M 873.59 273.25
  C 874.68 273.16 875.65 273.06 876.76 272.89
  Q 902.19 268.98 928.25 273.35
  A 0.44 0.44 0.0 0 1 928.61 273.78
  L 928.61 479.70
  Q 928.61 480.11 928.21 480.18
  Q 900.95 484.97 873.35 480.21
  Q 873.14 480.17 873.14 479.96
  L 873.14 273.74
  Q 873.14 273.29 873.59 273.25
  Z"
/>
<path fill="#006e47" d="
  M 1393.89 367.57
  Q 1361.83 423.23 1329.72 478.75
  Q 1328.21 481.37 1325.47 483.26
  Q 1318.68 487.95 1312.32 483.22
  Q 1309.14 480.85 1307.00 477.15
  Q 1275.43 422.41 1243.63 366.94
  Q 1258.39 380.59 1263.81 384.19
  Q 1295.27 405.05 1331.98 400.24
  C 1354.77 397.26 1375.23 386.27 1390.76 369.27
  Q 1392.32 367.56 1393.89 367.57
  Z"
/>
</svg>
